# Blender 5.1.1
# www.blender.org
mtllib pine_leaves.mtl
o Pine_1.003
v 0.664874 5.314186 -1.171093
v 0.678731 5.336884 -1.123048
v 0.607470 5.261877 -1.172469
v 0.627907 5.295355 -1.101615
v 0.688415 5.325022 -1.112656
v 0.658332 5.258081 -1.068970
v 0.517150 5.176828 -1.236428
v 0.564210 5.253922 -1.073267
v 0.634219 5.168149 -0.998145
v 0.485010 5.219432 -1.035634
v 0.437953 5.142343 -1.198796
v 0.592231 5.088067 -0.920578
v 0.402367 5.197142 -0.994444
v 0.372543 5.148282 -1.097858
v 0.456004 5.131426 -0.936887
v 0.328861 5.190443 -0.955971
v 0.310724 5.160728 -1.018861
v 0.373028 5.136327 -0.908573
v 0.233694 5.192855 -0.904606
v 0.636798 5.358404 -1.101903
v 0.706085 5.370923 -1.162822
v 0.649332 5.264699 -1.010223
v 0.751510 5.283165 -1.100066
v 0.706256 5.348213 -1.184475
v 0.753562 5.212921 -1.167971
v 0.581316 5.146749 -0.816673
v 0.818743 5.190815 -1.023384
v 0.833717 5.036601 -1.178813
v 0.914951 5.101450 -0.931521
v 0.675363 5.055821 -0.724986
v 0.939009 4.866073 -1.169474
v 1.021160 5.025536 -0.838811
v 0.870207 4.997272 -0.707837
v 1.032608 4.907361 -0.957895
v 1.126108 4.978190 -0.758972
v 1.035411 4.961802 -0.679232
v 1.129228 4.876304 -0.857543
v 1.272164 4.935611 -0.658140
v 0.598506 5.250134 -1.183013
v 0.710518 5.293921 -1.130396
v 0.518946 5.098925 -1.110335
v 0.684136 5.163503 -1.032742
v 0.744641 5.268372 -1.142234
v 0.791341 5.083240 -1.069933
v 0.273147 4.875305 -1.080300
v 0.653540 5.024011 -0.901616
v 0.908050 4.865231 -0.962901
v 0.619580 4.889281 -0.724362
v 0.239066 4.740313 -0.903253
v 1.015710 4.671173 -0.793247
v 0.587078 4.779064 -0.528541
v 0.345985 4.684818 -0.641798
v 0.780885 4.652899 -0.579920
v 0.561331 4.710899 -0.343389
v 0.414711 4.653585 -0.412268
v 0.716972 4.594366 -0.397375
v 0.530575 4.647676 -0.094553
v 0.693011 5.147933 -1.297060
v 0.666105 5.206985 -1.131489
v 0.568942 4.943069 -1.373934
v 0.529268 5.030163 -1.129757
v 0.694261 5.172346 -1.091496
v 0.617728 4.921342 -1.004115
v 0.438643 4.640440 -1.683355
v 0.347277 4.840991 -1.121074
v 0.550832 4.590573 -0.831954
v 0.104161 4.657825 -1.099829
v 0.195534 4.457281 -1.662110
v 0.415909 4.274295 -0.657025
v -0.163069 4.508555 -1.069255
v -0.105151 4.381453 -1.425633
v -0.007119 4.316689 -0.847739
v -0.413729 4.415904 -1.034008
v -0.378504 4.338608 -1.250739
v -0.285312 4.257910 -0.851597
v -0.749211 4.329832 -0.981572
v 0.767601 5.084676 -1.045327
v 0.636510 5.118361 -1.167337
v 0.932214 4.891572 -1.090587
v 0.738884 4.941255 -1.270517
v 0.591751 5.076469 -1.163672
v 0.598262 4.809655 -1.258999
v 1.308421 4.636837 -1.000613
v 0.863230 4.751238 -1.414954
v 0.539642 4.448405 -1.388454
v 1.011487 4.566236 -1.618804
v 1.456673 4.451840 -1.204457
v 0.515900 4.102427 -1.578224
v 1.161084 4.414416 -1.851032
v 1.443243 4.341916 -1.588412
v 0.913166 4.182392 -1.830735
v 1.289246 4.318892 -2.076284
v 1.460839 4.274799 -1.916569
v 1.085096 4.127825 -2.059572
v 1.450265 4.229016 -2.382231
v 0.698386 4.996464 -1.024963
v 0.673354 5.029625 -1.206927
v 0.861394 4.801736 -0.952795
v 0.824500 4.851349 -1.221421
v 0.636263 4.985959 -1.232899
v 0.708385 4.727563 -1.308883
v 1.105033 4.546468 -0.635725
v 1.020496 4.676809 -1.261554
v 0.753754 4.459879 -1.495845
v 1.273653 4.504914 -1.332140
v 1.358023 4.360857 -0.699770
v 0.865155 4.182221 -1.695680
v 1.545177 4.333475 -1.408774
v 1.598821 4.250682 -1.011873
v 1.340769 4.165629 -1.587550
v 1.794417 4.227889 -1.498052
v 1.827178 4.184484 -1.259862
v 1.625419 4.041409 -1.622513
v 2.123822 4.140182 -1.635784
v 0.687560 4.889837 -1.107357
v 0.727778 4.958662 -1.202334
v 0.774084 4.633906 -0.939543
v 0.861862 4.760031 -1.170791
v 0.701727 4.925706 -1.241425
v 0.789233 4.663145 -1.324426
v 0.847396 4.260950 -0.622941
v 1.051810 4.553014 -1.163063
v 0.891877 4.335248 -1.540654
v 1.311751 4.354689 -1.166454
v 1.107329 4.062630 -0.626332
v 1.066813 4.021162 -1.744754
v 1.598985 4.192991 -1.169994
v 1.469416 4.007887 -0.827662
v 1.476458 4.026141 -1.459292
v 1.869785 4.092543 -1.173145
v 1.790984 3.979973 -0.964956
v 1.768891 3.955146 -1.411371
v 2.232135 3.999072 -1.176654
v 0.586457 4.877954 -1.071718
v 0.753912 4.923812 -1.156303
v 0.578961 4.664577 -0.893163
v 0.825234 4.736641 -1.014750
v 0.766612 4.877605 -1.203163
v 0.866080 4.585480 -1.166398
v 0.366630 4.351235 -0.570038
v 0.930827 4.536501 -0.836423
v 1.027508 4.172143 -1.197900
v 1.091533 4.321138 -0.629134
v 0.525023 4.150809 -0.351995
v 1.237376 3.774704 -1.172338
v 1.282251 4.126561 -0.421489
v 0.920213 4.037636 -0.231958
v 1.352736 3.869749 -0.681683
v 1.468284 4.017183 -0.218703
v 1.247433 3.968113 -0.100292
v 1.525486 3.811249 -0.429031
v 1.724241 3.926865 0.053291
v 0.646248 4.719176 -1.244844
v 0.818114 4.747734 -1.149897
v 0.475424 4.515018 -1.155949
v 0.728888 4.557137 -1.015931
v 0.862510 4.700375 -1.165949
v 0.868365 4.408356 -1.066366
v 0.042989 4.255540 -1.155180
v 0.626653 4.352530 -0.832746
v 0.947607 4.010157 -0.948800
v 0.514927 4.153108 -0.580455
v -0.068734 4.056123 -0.902896
v 1.006482 3.628735 -0.758190
v 0.410719 3.989227 -0.297466
v 0.040794 3.927761 -0.501836
v 0.656621 3.726905 -0.386375
v 0.329895 3.885840 -0.026863
v 0.104927 3.848461 -0.151153
v 0.532386 3.669826 -0.100073
v 0.234923 3.787940 0.338128
v 0.679014 4.611451 -1.277557
v 0.812790 4.635593 -1.128639
v 0.477537 4.411533 -1.249647
v 0.674827 4.447145 -1.030035
v 0.858897 4.585676 -1.129001
v 0.819682 4.290327 -1.031175
v 0.052976 4.163630 -1.394332
v 0.507284 4.245632 -0.888611
v 0.840612 3.884764 -0.891233
v 0.307576 4.050694 -0.684143
v -0.146726 3.968699 -1.189870
v 0.818079 3.498000 -0.688152
v 0.106105 3.892009 -0.447758
v -0.181830 3.840045 -0.768295
v 0.361484 3.615520 -0.449760
v -0.066455 3.793740 -0.215445
v -0.241560 3.762138 -0.410382
v 0.143839 3.566058 -0.217091
v -0.284260 3.702717 0.103960
v 0.737191 4.461121 -1.341588
v 0.763922 4.534820 -1.152299
v 0.577668 4.225918 -1.376521
v 0.617096 4.330413 -1.097370
v 0.809269 4.496524 -1.117016
v 0.759564 4.210105 -0.986525
v 0.333700 3.906250 -1.658344
v 0.423263 4.115541 -1.018775
v 0.751099 3.834898 -0.763706
v 0.166511 3.906950 -0.905409
v 0.080940 3.765170 -1.534392
v 0.668601 3.476051 -0.514753
v -0.114072 3.729482 -0.774530
v -0.171381 3.590290 -1.181369
v 0.137098 3.515480 -0.579100
v -0.375770 3.620598 -0.646062
v -0.410755 3.524859 -0.893841
v -0.168944 3.445923 -0.485131
v -0.724834 3.521253 -0.469554
v 0.858494 4.363100 -1.307610
v 0.759569 4.418879 -1.133126
v 0.757368 4.132257 -1.459924
v 0.611485 4.214524 -1.202602
v 0.774283 4.374676 -1.080661
v 0.657714 4.075663 -1.037773
v 0.747199 3.806492 -1.876782
v 0.411258 3.995926 -1.284231
v 0.517632 3.676377 -0.904940
v 0.138826 3.784319 -1.376990
v 0.474775 3.594893 -1.969538
v 0.301735 3.294907 -0.796089
v -0.164337 3.611919 -1.466757
v 0.048595 3.491863 -1.842316
v -0.082845 3.367085 -1.176160
v -0.452075 3.504974 -1.539867
v -0.322578 3.431963 -1.768261
v -0.384973 3.303361 -1.300571
v -0.838028 3.406172 -1.628407
v 0.950017 4.311423 -1.204049
v 0.764909 4.380239 -1.207358
v 1.014848 4.056589 -1.351760
v 0.735359 4.161699 -1.359806
v 0.720474 4.341908 -1.165879
v 0.595762 4.041286 -1.229489
v 1.351578 3.674424 -1.536909
v 0.676435 3.934009 -1.570828
v 0.355204 3.656914 -1.270955
v 0.607062 3.703336 -1.846203
v 1.282206 3.443759 -1.812276
v 0.115077 3.278943 -1.386940
v 0.524103 3.512421 -2.150687
v 0.952015 3.347903 -2.129179
v 0.277984 3.300112 -1.920943
v 0.440188 3.390326 -2.437927
v 0.700422 3.290276 -2.424843
v 0.237516 3.215496 -2.248743
v 0.323552 3.273116 -2.821828
v 0.956319 4.134623 -1.104532
v 0.781377 4.236085 -1.185515
v 1.043919 3.867372 -1.230434
v 0.785923 4.017012 -1.349857
v 0.719481 4.202810 -1.164253
v 0.591468 3.912481 -1.283053
v 1.387415 3.437921 -1.294996
v 0.793311 3.782499 -1.570008
v 0.345842 3.541953 -1.416287
v 0.805206 3.555172 -1.866486
v 1.399310 3.210601 -1.591466
v 0.119885 3.186757 -1.631063
v 0.819799 3.369639 -2.194156
v 1.196345 3.151253 -2.019840
v 0.476963 3.185335 -2.076389
v 0.834867 3.254149 -2.503132
v 1.063863 3.121339 -2.397119
v 0.552554 3.102379 -2.406159
v 0.856038 3.146972 -2.915979
v 0.752815 4.099251 -1.051836
v 0.750263 4.137519 -1.271677
v 0.934174 3.866069 -0.940616
v 0.930404 3.922511 -1.264825
v 0.709794 4.085318 -1.307645
v 0.803261 3.758517 -1.377827
v 1.174549 3.562079 -0.526451
v 1.165874 3.692046 -1.273029
v 0.873305 3.314667 -1.533062
v 1.474211 3.468071 -1.310171
v 1.482877 3.338112 -0.563592
v 1.026135 2.890088 -1.708426
v 1.808473 3.284684 -1.370596
v 1.813960 3.202319 -0.897408
v 1.584325 2.995543 -1.569825
v 2.117772 3.169805 -1.445104
v 2.121106 3.119717 -1.157335
v 1.933198 2.931706 -1.609164
v 2.527250 3.061966 -1.558026
v 0.739054 3.946322 -1.105359
v 0.840270 4.000099 -1.287916
v 0.843314 3.709253 -0.944457
v 0.992577 3.788570 -1.213687
v 0.824179 3.953518 -1.341291
v 0.942018 3.642237 -1.381374
v 0.855142 3.379438 -0.507136
v 1.198867 3.562079 -1.127106
v 1.082529 3.225339 -1.512975
v 1.480076 3.342426 -1.029805
v 1.136342 3.159791 -0.409838
v 1.301906 2.826684 -1.620780
v 1.793391 3.163050 -0.936596
v 1.575525 3.047298 -0.543660
v 1.704265 2.905044 -1.232234
v 2.091115 3.051260 -0.861671
v 1.958616 2.980868 -0.622708
v 2.017725 2.838801 -1.105117
v 2.491222 2.946954 -0.771006
v 0.638629 3.927406 -1.206956
v 0.867953 3.955256 -1.245638
v 0.540559 3.695355 -0.991791
v 0.878754 3.736436 -1.048846
v 0.896221 3.897225 -1.291076
v 0.967563 3.554129 -1.191601
v 0.134382 3.407856 -0.665021
v 0.913166 3.502445 -0.796396
v 1.117529 3.082923 -1.124889
v 0.989445 3.276097 -0.473188
v 0.210659 3.181516 -0.341822
v 1.302440 2.633571 -0.976282
v 1.095978 3.091852 -0.128428
v 0.602377 3.031910 -0.045173
v 1.252557 2.770421 -0.380098
v 1.216547 2.977758 0.185399
v 0.916363 2.941306 0.236027
v 1.345485 2.713071 -0.021839
v 1.393162 2.872276 0.596799
v 0.668734 3.834153 -1.310497
v 0.867476 3.863374 -1.180519
v 0.446487 3.596845 -1.216569
v 0.739585 3.639948 -1.024891
v 0.920324 3.804177 -1.194840
v 0.905619 3.453980 -1.069884
v -0.084100 3.301875 -1.252505
v 0.590832 3.401121 -0.811108
v 0.972896 2.973179 -0.914640
v 0.424380 3.170266 -0.515243
v -0.250546 3.071029 -0.956648
v 1.009527 2.514845 -0.673799
v 0.265571 2.982532 -0.182338
v -0.162198 2.919637 -0.462109
v 0.558291 2.654649 -0.261652
v 0.138581 2.866493 0.136925
v -0.121565 2.828245 -0.033220
v 0.379625 2.596493 0.071617
v -0.013785 2.759288 0.569832
v 0.711868 3.713838 -1.386794
v 0.810838 3.776878 -1.171664
v 0.493959 3.444492 -1.397276
v 0.639922 3.537469 -1.080016
v 0.870481 3.724052 -1.149919
v 0.827302 3.371511 -1.011705
v 0.085179 3.067400 -1.677696
v 0.421290 3.281494 -0.947118
v 0.852473 2.899602 -0.789920
v 0.142354 3.033946 -0.752939
v -0.193749 2.819860 -1.483523
v 0.802724 2.449050 -0.512177
v -0.154421 2.832510 -0.527041
v -0.367439 2.696826 -0.990093
v 0.175929 2.539910 -0.406596
v -0.423852 2.707853 -0.303816
v -0.553396 2.625338 -0.585423
v -0.151824 2.466906 -0.204631
v -0.777298 2.592501 0.004025
v 0.879058 3.630443 -1.347071
v 0.759947 3.664133 -1.129653
v 0.763574 3.378293 -1.566875
v 0.587921 3.427987 -1.246233
v 0.779466 3.603186 -1.074754
v 0.649250 3.236517 -1.073756
v 0.758098 3.060827 -2.117829
v 0.353603 3.175252 -1.379471
v 0.494725 2.734650 -0.982580
v 0.032229 2.930367 -1.524481
v 0.436733 2.815949 -2.262835
v 0.248355 2.255551 -0.916627
v -0.327274 2.730610 -1.659187
v -0.070891 2.658096 -2.127157
v -0.219161 2.393026 -1.355107
v -0.670176 2.606395 -1.763082
v -0.514253 2.562296 -2.047676
v -0.581152 2.328405 -1.512683
v -1.131450 2.491279 -1.883567
v 0.950614 3.501815 -1.270851
v 0.723737 3.551174 -1.167153
v 0.977149 3.233268 -1.508653
v 0.642564 3.306070 -1.355716
v 0.703700 3.492648 -1.107841
v 0.579616 3.122207 -1.169377
v 1.290274 2.876116 -1.946983
v 0.519801 3.043755 -1.594812
v 0.374946 2.620653 -1.166025
v 0.333420 2.789598 -1.896538
v 1.103899 2.621965 -2.248700
v 0.111562 2.141586 -1.239836
v 0.111798 2.582290 -2.214959
v 0.600135 2.476048 -2.438155
v 0.000809 2.258115 -1.886445
v -0.111327 2.453393 -2.501598
v 0.185657 2.388783 -2.637332
v -0.202725 2.186445 -2.231081
v -0.420675 2.333955 -2.873802
v 0.880606 3.385529 -1.076783
v 0.692004 3.435187 -1.246303
v 1.111671 3.111075 -1.146623
v 0.833525 3.184320 -1.396616
v 0.628363 3.376034 -1.240387
v 0.633452 3.000279 -1.378942
v 1.645620 2.746715 -1.030389
v 1.004881 2.918626 -1.607734
v 0.541493 2.535806 -1.587844
v 1.208530 2.663175 -1.905030
v 1.849705 2.485260 -1.324607
v 0.498193 2.085574 -1.879028
v 1.414546 2.442225 -2.235773
v 1.820674 2.332853 -1.869621
v 1.059610 2.147697 -2.219922
v 1.590384 2.305467 -2.557807
v 1.837257 2.240466 -2.335901
v 1.299838 2.039430 -2.532758
v 1.811770 2.179111 -2.998383
v 0.774045 3.252738 -1.018631
v 0.748858 3.325160 -1.268949
v 0.987019 2.960584 -0.938551
v 0.949865 3.067398 -1.307706
v 0.695275 3.270238 -1.312508
v 0.781524 2.894859 -1.444551
v 1.298636 2.545639 -0.522032
v 1.213089 2.791598 -1.372111
v 0.825718 2.394556 -1.687012
v 1.558501 2.524492 -1.477591
v 1.644039 2.278541 -0.627509
v 0.965233 1.916391 -1.959880
v 1.933517 2.306744 -1.608087
v 1.987724 2.150862 -1.069298
v 1.636737 2.002534 -1.849356
v 2.281044 2.171503 -1.743732
v 2.314006 2.076706 -1.416066
v 2.036659 1.920996 -1.942411
v 2.742779 2.045764 -1.935883
v 0.626739 3.190381 -1.126658
v 0.829456 3.224959 -1.298338
v 0.657114 2.922087 -0.860815
v 0.956066 2.973091 -1.114006
v 0.830950 3.159287 -1.360273
v 0.960755 2.766776 -1.308591
v 0.450062 2.586186 -0.305918
v 1.138484 2.703630 -0.888952
v 1.149279 2.228864 -1.336713
v 1.403383 2.442722 -0.618705
v 0.714953 2.325288 -0.035679
v 1.419923 1.715586 -1.304466
v 1.710433 2.230091 -0.344407
v 1.274097 2.155665 0.025113
v 1.718712 1.866334 -0.687459
v 2.012889 2.098106 -0.107818
v 1.747529 2.052845 0.116902
v 2.019711 1.798563 -0.390306
v 2.429265 1.975487 0.192253
v 0.576958 3.082177 -1.236870
v 0.843448 3.144018 -1.214431
v 0.435704 2.787170 -1.027684
v 0.828709 2.878381 -0.994601
v 0.895661 3.082584 -1.259790
v 0.992746 2.685383 -1.137107
v -0.078000 2.384404 -0.781457
v 0.826999 2.594432 -0.705264
v 1.204469 2.150308 -1.033187
v 0.851765 2.319955 -0.323339
v -0.053234 2.109936 -0.399543
v 1.429881 1.639747 -0.825557
v 0.899237 2.096736 0.093032
v 0.325642 1.963629 0.044725
v 1.188443 1.756455 -0.158200
v 0.962187 1.958758 0.480458
v 0.613356 1.877812 0.451077
v 1.200339 1.678547 0.273582
v 1.059991 1.831398 0.995020
v 0.706688 3.016329 -1.359908
v 0.860736 3.042304 -1.126163
v 0.418706 2.742257 -1.369419
v 0.645897 2.780574 -1.024707
v 0.923271 2.971513 -1.118679
v 0.842364 2.558181 -1.001199
v -0.142060 2.412004 -1.664555
v 0.381098 2.500228 -0.870758
v 0.833192 1.988466 -0.816661
v 0.059013 2.228157 -0.636355
v -0.464135 2.139942 -1.430158
v 0.751410 1.444359 -0.553494
v -0.271323 2.005781 -0.357183
v -0.602891 1.949875 -0.860304
v 0.075047 1.613679 -0.315727
v -0.559621 1.866956 -0.075743
v -0.761260 1.832958 -0.381719
v -0.274400 1.544071 -0.041603
v -0.928213 1.737022 0.316615
v 0.806819 2.891225 -1.411941
v 0.781534 2.950017 -1.132080
v 0.587833 2.586894 -1.567887
v 0.550553 2.673607 -1.155162
v 0.828288 2.884397 -1.078513
v 0.697442 2.467461 -0.986872
v 0.332552 2.178408 -2.115981
v 0.246695 2.378079 -1.165573
v 0.584700 1.903702 -0.778313
v -0.154163 2.092293 -1.148805
v -0.068294 1.892631 -2.099213
v 0.363498 1.365749 -0.555696
v -0.590994 1.859754 -1.107411
v -0.536562 1.733212 -1.709786
v -0.332038 1.496293 -0.810705
v -0.997296 1.715865 -1.047693
v -0.964189 1.638911 -1.414027
v -0.784059 1.416566 -0.803365
v -1.538330 1.582735 -0.951037
v 0.971310 2.798590 -1.236292
v 0.695627 2.848014 -1.146364
v 1.040796 2.491461 -1.508256
v 0.634236 2.564360 -1.375626
v 0.666606 2.779099 -1.081272
v 0.543064 2.347859 -1.171126
v 1.468375 2.092315 -1.973945
v 0.532158 2.260175 -1.668539
v 0.322357 1.761971 -1.197961
v 0.364909 1.964301 -2.041685
v 1.301131 1.796451 -2.347080
v 0.043584 1.201265 -1.320982
v 0.157952 1.721781 -2.438257
v 0.751338 1.615402 -2.631810
v -0.002796 1.340065 -2.077727
v -0.057207 1.569536 -2.797880
v 0.303662 1.504844 -2.915585
v -0.189580 1.255204 -2.501000
v -0.362021 1.426030 -3.269300
v 0.882160 2.689201 -1.028886
v 0.688744 2.754221 -1.250562
v 1.149379 2.361180 -1.080013
v 0.864133 2.457079 -1.406923
v 0.612178 2.687561 -1.252753
v 0.623582 2.247665 -1.413804
v 1.738600 1.917083 -0.874981
v 1.081751 2.137906 -1.627786
v 0.528216 1.656007 -1.643623
v 1.348805 1.826468 -1.942338
v 2.005647 1.605655 -1.189524
v 0.501046 1.088405 -1.966603
v 1.624640 1.570179 -2.302691
v 2.040946 1.430231 -1.825547
v 1.200548 1.200955 -2.314835
v 1.867262 1.408056 -2.653987
v 2.120434 1.322948 -2.363808
v 1.518039 1.104009 -2.663990
v 2.177589 1.254498 -3.132494
v 0.715003 2.598980 -1.000647
v 0.773348 2.658567 -1.296691
v 0.930229 2.274624 -0.806405
v 1.016265 2.362510 -1.242998
v 0.729373 2.587669 -1.358209
v 0.878104 2.139786 -1.436268
v 1.140073 1.843382 -0.189065
v 1.338204 2.045750 -1.194434
v 1.020283 1.533223 -1.639173
v 1.766555 1.739003 -1.164101
v 1.568412 1.536645 -0.158733
v 1.279655 0.954032 -1.845241
v 2.236106 1.488967 -1.156617
v 2.110513 1.360717 -0.519410
v 1.992538 1.096278 -1.497361
v 2.675371 1.333710 -1.173121
v 2.598989 1.255716 -0.785604
v 2.474807 1.010342 -1.453712
v 3.260564 1.189581 -1.212900
v 0.595778 2.516448 -1.207555
v 0.904217 2.550599 -1.246015
v 0.449558 2.206196 -0.928286
v 0.904427 2.256572 -0.985016
v 0.943644 2.473124 -1.305590
v 1.028294 2.013176 -1.172184
v -0.114676 1.825455 -0.517974
v 0.932784 1.941447 -0.648600
v 1.217818 1.381353 -1.079292
v 1.013113 1.635277 -0.215382
v -0.034349 1.519294 -0.084770
v 1.449660 0.777453 -0.874997
v 1.133185 1.384672 0.248683
v 0.469296 1.311167 0.331457
v 1.351572 0.955537 -0.081286
v 1.274721 1.227785 0.672946
v 0.870976 1.183085 0.723281
v 1.454556 0.874406 0.401233
v 1.485648 1.080695 1.230581
v 0.620598 2.412243 -1.302805
v 0.903642 2.435509 -1.160286
v 0.325247 2.110713 -1.148363
v 0.742673 2.145036 -0.938192
v 0.967167 2.353721 -1.187554
v 0.942248 1.888094 -1.023865
v -0.399539 1.755504 -1.120403
v 0.561690 1.834530 -0.636418
v 1.020936 1.243264 -0.833558
v 0.369971 1.534367 -0.223623
v -0.591252 1.455350 -0.707620
v 1.073324 0.628802 -0.525541
v 0.196702 1.290242 0.237348
v -0.412523 1.240166 -0.069420
v 0.548556 0.837225 0.086318
v 0.068263 1.139322 0.676317
v -0.302235 1.108870 0.489752
v 0.358001 0.766276 0.551955
v -0.076342 0.999854 1.269104
v 0.751166 2.256078 -1.433042
v 0.794579 2.329028 -1.121557
v 0.474740 1.908857 -1.540553
v 0.538774 2.016453 -1.081192
v 0.860217 2.256841 -1.073396
v 0.744992 1.789676 -0.929888
v 0.059189 1.434555 -2.065624
v 0.206633 1.682312 -1.007820
v 0.681162 1.160459 -0.659647
v -0.224854 1.359279 -0.880039
v -0.372285 1.111533 -1.937846
v 0.501899 0.560025 -0.346790
v -0.689996 1.096535 -0.717303
v -0.783430 0.939518 -1.387750
v -0.326441 0.696700 -0.450540
v -1.117981 0.934080 -0.544387
v -1.174798 0.838592 -0.952120
v -0.818610 0.604827 -0.324714
v -1.684134 0.783921 -0.296722
v 0.974796 2.131657 -1.359211
v 0.742596 2.222720 -1.143406
v 0.893100 1.763945 -1.634439
v 0.550671 1.898253 -1.316175
v 0.739585 2.153427 -1.056544
v 0.541216 1.680567 -1.043279
v 1.074198 1.241867 -2.264824
v 0.285656 1.551135 -1.531942
v 0.263893 1.050202 -0.903975
v -0.083122 1.215065 -1.798994
v 0.705430 0.905807 -2.531868
v -0.116465 0.447849 -0.837239
v -0.499519 0.941204 -2.076675
v 0.000277 0.745200 -2.541170
v -0.516205 0.557396 -1.595556
v -0.900144 0.771248 -2.322710
v -0.596190 0.652050 -2.605190
v -0.913889 0.455193 -1.926528
v -1.441778 0.614147 -2.638926
v 0.714926 5.314447 -1.159575
v 0.669915 5.344250 -1.169648
v 0.724818 5.247656 -1.197971
v 0.658437 5.291607 -1.212826
v 0.655033 5.336694 -1.161651
v 0.611684 5.267871 -1.187700
v 0.797449 5.134654 -1.235878
v 0.644591 5.235865 -1.270086
v 0.537003 5.181240 -1.212270
v 0.628238 5.182970 -1.346330
v 0.781097 5.081761 -1.312120
v 0.463461 5.099310 -1.257784
v 0.611869 5.140980 -1.429949
v 0.708751 5.076835 -1.408265
v 0.529438 5.099129 -1.385655
v 0.597975 5.116286 -1.508215
v 0.656893 5.077274 -1.495027
v 0.530095 5.081820 -1.471741
v 0.580631 5.095102 -1.612327
vn -0.5899 0.7613 -0.2692
vn -0.8219 0.5691 0.0242
vn -0.8555 0.5162 -0.0407
vn -0.6490 0.6633 -0.3726
vn -0.2915 0.6528 0.6992
vn 0.0690 0.5448 0.8357
vn 0.0504 0.5087 0.8594
vn -0.3071 0.5981 0.7403
vn -0.6111 0.7697 -0.1849
vn -0.5052 0.8402 -0.1971
vn -0.4354 0.8733 0.2184
vn -0.5680 0.7896 0.2321
vn 0.7378 0.6615 0.1345
vn 0.4705 0.7684 0.4339
vn 0.4200 0.8185 0.3920
vn 0.6567 0.7526 0.0487
vn 0.3498 0.8779 0.3270
vn 0.2576 0.9367 0.2372
vn 0.4638 0.8780 -0.1183
vn 0.5686 0.8221 -0.0298
vn 0.4649 0.8827 -0.0684
vn 0.6477 0.6578 -0.3844
vn 0.7385 0.6005 -0.3067
vn 0.5689 0.8224 -0.0026
vn -0.5226 0.7539 0.3981
vn -0.4879 0.7831 0.3857
vn -0.2426 0.6842 0.6878
vn -0.3009 0.6457 0.7018
vn -0.2117 0.6801 0.7019
vn 0.1427 0.5429 0.8276
vn 0.1219 0.5086 0.8523
vn -0.2304 0.6272 0.7440
vn 0.7287 0.5320 0.4313
vn 0.7169 0.5689 0.4029
vn 0.9010 0.4273 0.0744
vn 0.9175 0.3770 0.1265
vn -0.6155 0.7881 0.0064
vn -0.5128 0.8568 -0.0546
vn -0.3868 0.8563 0.3423
vn -0.1270 0.7484 0.6510
vn -0.1251 0.9679 0.2180
vn -0.0497 0.7829 0.6201
vn -0.2605 0.9227 0.2841
vn -0.5927 0.8017 0.0772
vn -0.4906 0.8703 0.0427
vn -0.3056 0.8533 0.4224
vn -0.4337 0.7721 0.4645
vn 0.0542 0.8191 0.5710
vn -0.0835 0.9902 -0.1120
vn 0.1649 0.8447 0.5092
vn -0.0013 0.9880 0.1542
vn -0.2155 0.9556 -0.2012
vn -0.1454 0.9621 -0.2307
vn -0.7701 0.6184 -0.1566
vn -0.7709 0.5890 0.2425
vn -0.7988 0.5512 0.2408
vn -0.8129 0.5639 -0.1459
vn 0.5454 0.6770 0.4942
vn 0.7950 0.5708 0.2051
vn 0.8994 0.4134 -0.1423
vn 0.6951 0.7007 0.1611
vn 0.8086 0.5489 -0.2119
vn 0.8764 0.4653 -0.1243
vn -0.7329 0.6796 0.0304
vn -0.5778 0.7365 -0.3518
vn -0.5149 0.7893 -0.3344
vn -0.6226 0.7793 0.0712
vn 0.0219 0.7522 -0.6586
vn -0.3382 0.5586 -0.7574
vn -0.2912 0.5050 -0.8125
vn 0.0946 0.6529 -0.7515
vn 0.5426 0.8397 0.0209
vn 0.7928 0.5651 -0.2282
vn 0.6401 0.7602 0.1110
vn 0.2906 0.7476 0.5971
vn 0.2320 0.8242 0.5165
vn 0.5099 0.8312 0.2215
vn 0.6096 0.7338 0.2998
vn -0.2471 0.9332 0.2609
vn -0.0555 0.7948 0.6043
vn -0.1573 0.7347 0.6599
vn -0.3646 0.8744 0.3202
vn 0.5428 0.8397 0.0154
vn 0.7229 0.6226 -0.2997
vn 0.7989 0.5573 -0.2262
vn -0.2990 0.8567 -0.4204
vn -0.1993 0.9155 -0.3494
vn -0.3929 0.9194 0.0192
vn -0.5020 0.8634 -0.0498
vn 0.2728 0.9582 0.0860
vn 0.6248 0.6592 -0.4185
vn 0.4535 0.8842 -0.1118
vn 0.2026 0.9617 0.1849
vn 0.4760 0.6468 -0.5959
vn 0.1552 0.5555 -0.8169
vn 0.1775 0.5189 -0.8362
vn 0.4988 0.5920 -0.6330
vn 0.8137 0.5270 0.2454
vn 0.7993 0.5610 0.2153
vn 0.9055 0.4021 -0.1358
vn 0.9307 0.3544 -0.0902
vn -0.3628 0.6190 0.6966
vn -0.3548 0.7171 0.6000
vn 0.0422 0.6899 0.7227
vn 0.0208 0.5901 0.8070
vn 0.4107 0.5083 0.7569
vn -0.0485 0.7427 0.6678
vn 0.3642 0.6902 0.6253
vn 0.3336 0.6013 0.7261
vn -0.1176 0.6471 0.7533
vn -0.4152 0.7676 0.4882
vn -0.3708 0.8186 0.4386
vn -0.0291 0.7419 0.6699
vn 0.6662 0.7437 0.0559
vn 0.8046 0.5258 -0.2761
vn 0.8524 0.4747 -0.2194
vn 0.7474 0.6482 0.1457
vn -0.0858 0.8859 0.4558
vn 0.3057 0.7312 0.6099
vn -0.1081 0.8055 0.5827
vn -0.2330 0.8034 0.5479
vn -0.1941 0.8727 0.4480
vn 0.2180 0.8214 0.5271
vn 0.1685 0.7394 0.6519
vn -0.3930 0.8779 0.2735
vn -0.4459 0.6478 0.6177
vn -0.5569 0.5910 0.5836
vn -0.5165 0.8240 0.2329
vn -0.0112 0.7951 0.6064
vn 0.3809 0.6467 0.6608
vn 0.3500 0.5619 0.7495
vn 0.2358 0.8577 0.4568
vn 0.1638 0.9188 0.3592
vn 0.4398 0.8963 0.0563
vn 0.5301 0.8352 0.1467
vn -0.1566 0.9511 0.2663
vn 0.4965 0.7806 0.3797
vn 0.1083 0.9305 0.3500
vn 0.1082 0.9305 0.3500
vn -0.3051 0.9001 0.3109
vn -0.2889 0.9265 0.2411
vn -0.2180 0.5185 0.8268
vn -0.1912 0.5536 0.8106
vn 0.1596 0.3850 0.9090
vn 0.1122 0.3382 0.9344
vn -0.6752 0.7165 -0.1752
vn -0.6842 0.6886 0.2402
vn -0.6155 0.5068 0.6035
vn -0.5152 0.6002 0.6118
vn -0.3468 0.7700 0.5356
vn 0.0661 0.7906 0.6088
vn -0.6393 0.6170 0.4589
vn -0.7056 0.5629 0.4305
vn -0.4441 0.6554 0.6110
vn -0.1459 0.8241 0.5473
vn -0.1044 0.8891 0.4456
vn 0.3042 0.8036 0.5116
vn 0.2521 0.7270 0.6387
vn -0.1189 0.8915 -0.4371
vn -0.4531 0.6823 -0.5738
vn -0.3968 0.6231 -0.6740
vn -0.0530 0.8350 -0.5478
vn -0.3432 0.7209 0.6021
vn -0.1491 0.9308 0.3337
vn 0.2577 0.8775 0.4044
vn -0.3000 0.9509 -0.0760
vn -0.2296 0.7795 0.5829
vn -0.3077 0.9299 0.2016
vn -0.3837 0.9001 -0.2066
vn -0.3122 0.9265 -0.2102
vn -0.6906 0.6437 0.3297
vn -0.4745 0.5816 0.6608
vn -0.5011 0.5446 0.6725
vn -0.7238 0.5893 0.3589
vn 0.4966 0.3566 0.7913
vn 0.4592 0.3115 0.8320
vn 0.4242 0.7452 -0.5145
vn -0.2152 0.4156 -0.8837
vn 0.5271 0.6900 -0.4961
vn 0.6304 0.7693 -0.1039
vn 0.5701 0.8178 -0.0784
vn 0.4106 0.7805 -0.4714
vn 0.1428 0.7436 0.6532
vn 0.4984 0.5223 0.6920
vn 0.4571 0.4717 0.7540
vn 0.0789 0.6490 0.7567
vn 0.1277 0.7361 -0.6647
vn 0.1556 0.8105 -0.5647
vn -0.2463 0.8614 -0.4442
vn -0.2795 0.7727 -0.5699
vn -0.2114 0.9227 -0.3225
vn -0.5838 0.7895 -0.1894
vn -0.6194 0.7268 -0.2969
vn -0.0660 0.8706 0.4875
vn -0.0766 0.9279 0.3649
vn 0.3265 0.9080 0.2627
vn 0.3451 0.8533 0.3910
vn 0.1001 0.9555 -0.2774
vn 0.2606 0.9270 -0.2698
vn 0.2197 0.9525 -0.2107
vn -0.3588 0.6551 -0.6649
vn -0.6873 0.5668 -0.4542
vn -0.6970 0.5305 -0.4824
vn -0.3849 0.6008 -0.7006
vn 0.8185 0.5188 0.2468
vn 0.8029 0.5541 0.2200
vn 0.9118 0.3896 -0.1296
vn 0.9360 0.3424 -0.0820
vn 0.7172 0.6830 -0.1383
vn 0.7029 0.6950 -0.1513
vn 0.4990 0.7000 -0.5109
vn 0.5975 0.6046 -0.5267
vn 0.5212 0.7105 -0.4727
vn 0.3847 0.4775 -0.7899
vn 0.6190 0.6128 -0.4912
vn 0.5418 0.7712 -0.3342
vn 0.2964 0.6917 -0.6586
vn 0.3894 0.6214 -0.6799
vn -0.3054 0.6673 -0.6792
vn 0.1082 0.6807 -0.7246
vn 0.4852 0.7511 -0.4477
vn 0.3108 0.5514 -0.7742
vn 0.3837 0.4985 -0.7773
vn 0.6036 0.6529 -0.4576
vn 0.4485 0.8492 -0.2787
vn 0.3812 0.6286 -0.6779
vn 0.5681 0.7609 -0.3135
vn -0.2650 0.8046 -0.5314
vn -0.2048 0.8733 -0.4421
vn -0.5153 0.8425 -0.1570
vn 0.4899 0.8129 -0.3151
vn 0.3060 0.6761 -0.6703
vn 0.3979 0.5940 -0.6991
vn 0.5166 0.8561 0.0159
vn 0.3999 0.9151 0.0524
vn 0.2230 0.9193 -0.3244
vn 0.3438 0.8632 -0.3698
vn 0.2571 0.9595 -0.1155
vn 0.0227 0.7064 -0.7075
vn 0.1909 0.9050 -0.3802
vn 0.1705 0.8924 -0.4178
vn 0.3571 0.9328 -0.0479
vn 0.2875 0.9574 -0.0283
vn 0.0115 0.5525 0.8335
vn -0.3643 0.5645 0.7407
vn -0.8529 0.5187 0.0601
vn -0.8287 0.5541 0.0793
vn -0.8047 0.3920 0.4459
vn -0.8443 0.3446 0.4104
vn 0.7260 0.5743 0.3783
vn 0.6310 0.6710 0.3893
vn 0.7191 0.6947 -0.0171
vn 0.8078 0.5894 -0.0116
vn 0.7294 0.6813 -0.0617
vn 0.7214 0.5293 -0.4466
vn 0.8131 0.5793 -0.0579
vn 0.6177 0.6636 -0.4221
vn 0.7146 0.5673 -0.4093
vn -0.5083 0.7150 0.4800
vn -0.6322 0.7726 0.0588
vn -0.5839 0.8105 0.0467
vn -0.4185 0.8128 0.4052
vn -0.0572 0.8336 0.5494
vn 0.3344 0.7552 0.5638
vn 0.3268 0.7020 0.6328
vn -0.1126 0.7345 0.6692
vn 0.4695 0.8828 -0.0150
vn 0.5475 0.7201 -0.4263
vn 0.6022 0.7982 -0.0166
vn -0.2469 0.8195 0.5171
vn -0.1978 0.8859 0.4197
vn 0.2048 0.8219 0.5316
vn -0.0897 0.9158 0.3914
vn 0.1753 0.7331 0.6571
vn 0.0873 0.6753 0.7323
vn -0.1905 0.8605 0.4725
vn 0.4469 0.7865 -0.4264
vn -0.4371 0.8816 -0.1782
vn -0.3221 0.9374 -0.1324
vn 0.2838 0.9233 0.2588
vn 0.3318 0.8449 -0.4196
vn 0.3410 0.9400 -0.0133
vn 0.3428 0.8529 0.3938
vn 0.2718 0.8806 0.3883
vn -0.0338 0.6528 0.7568
vn 0.3585 0.5771 0.7338
vn 0.3543 0.5406 0.7631
vn -0.0267 0.5986 0.8006
vn 0.6967 0.4494 0.5592
vn 0.6852 0.3997 0.6089
vn 0.3247 0.6320 0.7036
vn 0.2597 0.7336 0.6279
vn 0.6109 0.6779 0.4091
vn 0.3398 0.6596 0.6704
vn 0.6247 0.6847 0.3753
vn 0.6681 0.5905 0.4526
vn 0.6729 0.6684 0.3169
vn 0.8605 0.5090 -0.0212
vn -0.7503 0.6486 0.1281
vn -0.5994 0.7627 -0.2429
vn -0.5379 0.8142 -0.2184
vn -0.6424 0.7445 0.1820
vn 0.5422 0.7329 0.4109
vn 0.8351 0.5091 0.2085
vn 0.8431 0.4578 0.2822
vn 0.5591 0.6371 0.5305
vn 0.5679 0.8078 0.1578
vn 0.8300 0.5529 -0.0741
vn 0.6495 0.7158 0.2565
vn 0.4452 0.7119 -0.5431
vn 0.4424 0.7831 -0.4371
vn 0.0328 0.8818 -0.4705
vn 0.0386 0.7969 -0.6029
vn 0.4703 0.8731 0.1287
vn 0.7701 0.6367 -0.0397
vn 0.8113 0.5805 0.0691
vn 0.5140 0.8201 0.2515
vn 0.5248 0.8433 0.1160
vn 0.7596 0.6295 -0.1636
vn 0.8195 0.5674 -0.0803
vn -0.4783 0.8630 0.1630
vn -0.3784 0.9211 0.0916
vn 0.2162 0.9605 0.1753
vn 0.6806 0.6893 -0.2483
vn 0.4395 0.8980 0.0208
vn 0.1571 0.9326 0.3248
vn 0.1143 0.9570 0.2665
vn -0.5257 0.6360 -0.5649
vn -0.7723 0.5822 -0.2543
vn -0.7921 0.5449 -0.2751
vn -0.5643 0.5815 -0.5861
vn 0.7235 0.5201 -0.4539
vn 0.6937 0.5564 -0.4574
vn 0.4886 0.4102 -0.7700
vn 0.5395 0.3613 -0.7605
vn -0.2567 0.7506 0.6089
vn 0.1161 0.6412 0.7585
vn 0.4384 0.3896 0.8100
vn 0.4987 0.4774 0.7235
vn 0.4735 0.7647 0.4370
vn 0.4250 0.8161 0.3916
vn 0.5333 0.5302 0.6592
vn 0.3887 0.7983 -0.4600
vn 0.3295 0.8682 -0.3711
vn 0.5728 0.5940 0.5649
vn 0.4316 0.8447 -0.3166
vn 0.0270 0.9392 -0.3422
vn 0.0096 0.9530 0.3027
vn 0.6058 0.6530 0.4546
vn -0.1225 0.9559 0.2668
vn 0.4329 0.5617 -0.7051
vn 0.0462 0.5938 -0.8033
vn 0.0487 0.5553 -0.8302
vn 0.4245 0.5081 -0.7495
vn -0.3499 0.5730 -0.7411
vn -0.3382 0.5184 -0.7854
vn -0.4816 0.6723 0.5621
vn 0.2485 0.4694 0.8473
vn -0.4454 0.8907 -0.0912
vn 0.4708 0.7803 -0.4118
vn 0.2591 0.6220 -0.7389
vn 0.3292 0.5676 -0.7546
vn 0.5838 0.6802 -0.4433
vn 0.0620 0.8204 0.5685
vn 0.3044 0.5200 0.7980
vn 0.3455 0.8831 0.3175
vn 0.5671 0.8228 -0.0372
vn 0.3339 0.8871 -0.3187
vn 0.1662 0.6940 -0.7006
vn 0.2930 0.6165 -0.7308
vn 0.4323 0.8018 -0.4125
vn 0.3754 0.5811 0.7221
vn 0.4221 0.8608 0.2845
vn 0.3058 0.9197 0.2462
vn 0.3759 0.9120 -0.1641
vn 0.5005 0.8558 -0.1307
vn -0.0551 0.9562 0.2876
vn 0.4453 0.6373 0.6289
vn 0.1423 0.8734 0.4658
vn -0.2158 0.9400 0.2642
vn -0.1676 0.9633 0.2098
vn -0.6633 0.7474 0.0375
vn -0.3304 0.5061 0.7967
vn -0.3010 0.5409 0.7854
vn 0.0286 0.3638 0.9311
vn -0.0228 0.3174 0.9480
vn -0.7624 0.6411 0.0879
vn -0.6790 0.7328 0.0430
vn -0.5606 0.7017 0.4398
vn -0.7847 0.6159 0.0706
vn -0.5831 0.6969 0.4175
vn -0.6675 0.5946 0.4482
vn -0.4098 0.5244 0.7464
vn -0.3102 0.6171 0.7231
vn 0.0431 0.6946 -0.7181
vn 0.4431 0.6588 -0.6080
vn 0.1135 0.7565 -0.6440
vn -0.2414 0.5766 -0.7806
vn -0.1909 0.5219 -0.8314
vn 0.1916 0.6556 -0.7304
vn -0.2513 0.6659 0.7024
vn -0.4879 0.7866 0.3785
vn -0.5909 0.8057 -0.0422
vn -0.4833 0.8740 -0.0509
vn -0.3899 0.8474 0.3604
vn -0.5246 0.7666 0.3704
vn -0.2613 0.9019 0.3439
vn -0.1683 0.6981 0.6960
vn -0.2828 0.6407 0.7138
vn -0.3369 0.9302 -0.1458
vn -0.3226 0.9465 -0.0087
vn -0.2454 0.9336 0.2610
vn -0.4402 0.8918 -0.1045
vn -0.3733 0.9185 -0.1301
vn -0.2982 0.6524 -0.6967
vn -0.6461 0.5540 -0.5251
vn -0.6515 0.5177 -0.5545
vn -0.3188 0.5978 -0.7355
vn 0.4037 0.3410 0.8490
vn -0.6719 0.6387 -0.3750
vn -0.8137 0.5813 -0.0052
vn -0.7953 0.4718 0.3807
vn 0.1730 0.7615 0.6246
vn 0.1582 0.8131 0.5602
vn -0.4948 0.8619 0.1112
vn -0.5427 0.6816 0.4909
vn -0.3340 0.8834 0.3288
vn -0.2377 0.9385 0.2503
vn 0.0852 0.8611 0.5013
vn -0.0103 0.8076 0.5897
vn -0.2648 0.9580 -0.1099
vn -0.4303 0.7397 0.5173
vn -0.3701 0.9177 0.1447
vn -0.2961 0.9177 -0.2650
vn -0.2283 0.9433 -0.2411
vn -0.8387 0.5442 -0.0194
vn -0.7150 0.5842 -0.3841
vn -0.6631 0.4545 0.5948
vn 0.0747 0.5794 -0.8116
vn 0.0602 0.5979 -0.7993
vn -0.3163 0.6918 -0.6491
vn -0.3366 0.5925 -0.7319
vn -0.3034 0.6984 -0.6482
vn -0.6616 0.5402 -0.5200
vn -0.3255 0.5989 -0.7317
vn -0.6482 0.6345 -0.4210
vn -0.6617 0.5401 -0.5201
vn 0.7379 0.6731 -0.0489
vn 0.5868 0.7378 0.3337
vn 0.5242 0.7909 0.3159
vn 0.6281 0.7729 -0.0904
vn -0.2987 0.7785 0.5520
vn 0.0041 0.6113 0.7914
vn -0.0583 0.5575 0.8281
vn -0.3973 0.6794 0.6169
vn -0.6431 0.6575 -0.3926
vn 0.1726 0.8188 0.5475
vn 0.1428 0.8852 0.4427
vn 0.5509 0.7416 0.3828
vn 0.4313 0.7272 -0.5341
vn 0.5435 0.6685 -0.5076
vn -0.3733 0.9277 0.0053
vn -0.1847 0.9081 0.3759
vn 0.0653 0.9341 -0.3511
vn 0.1825 0.8751 -0.4483
vn 0.1961 0.9044 -0.3791
vn 0.6721 0.6156 0.4116
vn 0.7957 0.6042 0.0426
vn 0.8219 0.5694 0.0174
vn 0.7162 0.5631 0.4122
vn -0.7634 0.5363 0.3601
vn -0.7340 0.5726 0.3653
vn -0.5624 0.4368 0.7021
vn -0.6124 0.3876 0.6891
vn -0.3674 0.6697 -0.6454
vn -0.7056 0.6807 -0.1969
vn -0.4426 0.7339 -0.5153
vn -0.3876 0.7868 -0.4803
vn -0.6122 0.7806 -0.1258
vn 0.5619 0.7619 -0.3221
vn 0.4595 0.5693 -0.6818
vn 0.5318 0.5166 -0.6710
vn 0.6804 0.6642 -0.3097
vn -0.3752 0.7265 -0.5757
vn 0.6139 0.7844 -0.0889
vn 0.5121 0.8569 -0.0585
vn 0.3466 0.8285 -0.4397
vn 0.4702 0.7397 -0.4815
vn -0.3808 0.7931 -0.4754
vn 0.4639 0.7916 0.3976
vn 0.2942 0.9177 -0.2669
vn -0.3807 0.8517 -0.3602
vn 0.4219 0.8726 -0.2460
vn 0.2175 0.6725 0.7074
vn 0.5827 0.5534 0.5951
vn 0.5821 0.5184 0.6265
vn 0.2296 0.6190 0.7511
vn -0.8711 0.4762 0.1202
vn -0.9015 0.4251 0.0809
vn 0.7533 0.6535 -0.0737
vn 0.6577 0.7512 -0.0566
vn -0.5487 0.6740 0.4947
vn -0.6546 0.7495 0.0992
vn 0.3523 0.8329 -0.4268
vn -0.0550 0.8020 0.5948
vn 0.3578 0.7721 0.5252
vn 0.0512 0.9245 0.3777
vn 0.4623 0.7809 0.4202
vn 0.4387 0.7204 0.5372
vn 0.0601 0.8634 0.5009
vn 0.2095 0.6151 -0.7601
vn -0.5696 0.8214 -0.0306
vn -0.4539 0.8874 -0.0803
vn -0.2503 0.9233 0.2914
vn -0.3728 0.8647 0.3366
vn 0.2604 0.9565 -0.1313
vn 0.0974 0.6735 -0.7328
vn 0.2261 0.8886 -0.3991
vn 0.3658 0.9307 -0.0092
vn 0.2944 0.9557 0.0014
vn 0.3477 0.6578 0.6681
vn 0.6779 0.5836 0.4471
vn 0.6857 0.5475 0.4796
vn 0.3796 0.6027 0.7019
vn 0.8543 0.5175 -0.0491
vn 0.8312 0.5480 -0.0938
vn 0.7495 0.4729 -0.4633
vn 0.7827 0.4203 -0.4591
vn 0.6803 0.6397 0.3577
vn 0.8182 0.5748 -0.0123
vn 0.7955 0.4587 -0.3960
vn 0.7060 0.5497 -0.4466
vn 0.6788 0.7332 -0.0413
vn 0.6178 0.7861 -0.0187
vn -0.3853 0.5778 0.7195
vn -0.4584 0.5251 0.7170
vn -0.6438 0.6690 0.3715
vn 0.6399 0.6038 -0.4753
vn 0.4599 0.7880 -0.4093
vn 0.3945 0.8592 -0.3259
vn 0.0307 0.8410 -0.5402
vn 0.2733 0.9576 0.0908
vn 0.2380 0.9455 0.2225
vn 0.5552 0.6347 -0.5375
vn 0.2551 0.5567 -0.7906
vn 0.2780 0.5195 -0.8080
vn 0.5798 0.5794 -0.5728
vn -0.6954 0.5549 0.4566
vn -0.4604 0.4690 0.7537
vn 0.1907 0.7678 0.6117
vn 0.5739 0.6469 0.5022
vn 0.8536 0.3845 0.3515
vn 0.8491 0.4687 0.2434
vn 0.3619 0.6740 0.6440
vn -0.0473 0.7498 0.6600
vn 0.8374 0.5195 0.1697
vn 0.2559 0.8747 0.4116
vn 0.5910 0.6392 0.4921
vn 0.5473 0.5833 0.6002
vn -0.3603 0.9310 -0.0593
vn 0.2141 0.9562 0.1998
vn 0.1084 0.9401 0.3232
vn 0.0883 0.9633 0.2533
vn 0.5459 0.6690 0.5044
vn 0.5787 0.6153 0.5353
vn 0.1675 0.5242 -0.8349
vn 0.1440 0.5635 -0.8135
vn -0.2265 0.4270 -0.8754
vn -0.1855 0.3751 -0.9083
vn -0.3222 0.6734 0.6653
vn -0.2771 0.7686 0.5766
vn 0.0225 0.5555 0.8312
vn 0.3871 0.3875 0.8367
vn 0.0850 0.6638 -0.7430
vn 0.4203 0.7498 -0.5110
vn 0.3872 0.8030 -0.4531
vn 0.0144 0.7626 -0.6467
vn -0.7452 0.6220 0.2404
vn -0.8002 0.5676 0.1939
vn -0.2982 0.8851 0.3572
vn 0.0193 0.9569 0.2898
vn -0.1421 0.9405 0.3086
vn -0.1094 0.9637 0.2436
vn 0.4679 0.6517 -0.5970
vn 0.4907 0.5937 -0.6378
vn -0.3249 0.5253 -0.7864
vn -0.3220 0.5642 -0.7602
vn -0.6622 0.5017 -0.5566
vn -0.6612 0.4471 -0.6024
vn -0.6157 0.7411 0.2677
vn -0.1522 0.4671 0.8710
vn 0.6341 0.6599 0.4029
vn 0.2823 0.7169 0.6374
vn 0.2454 0.7710 0.5877
vn 0.5563 0.7667 0.3205
vn -0.2168 0.5917 0.7764
vn -0.2880 0.5387 0.7917
vn -0.3294 0.8402 0.4307
vn 0.0891 0.8739 0.4779
vn 0.6821 0.7121 0.1661
vn 0.7019 0.6547 0.2803
vn -0.2340 0.9594 0.1572
vn -0.3190 0.9464 0.0507
vn 0.7965 0.5990 -0.0820
vn -0.6664 0.5405 0.5137
vn -0.6369 0.5770 0.5113
vn -0.3918 0.4496 0.8027
vn -0.4429 0.3999 0.8024
vn -0.6911 0.6666 -0.2793
vn -0.7171 0.4776 0.5077
vn 0.5700 0.7207 0.3946
vn 0.7099 0.5914 0.3825
vn 0.7090 0.5384 0.4554
vn -0.6520 0.5290 0.5432
vn -0.5642 0.7937 0.2273
vn -0.5630 0.7449 0.3579
vn -0.6625 0.6866 0.2995
vn -0.2907 0.9565 0.0267
vn -0.2547 0.9612 -0.1054
vn -0.7537 0.6567 -0.0254
vn -0.7978 0.6026 -0.0198
vn 0.5607 0.5077 0.6541
vn 0.5630 0.5430 0.6230
vn 0.8421 0.3727 0.3899
vn 0.8353 0.3257 0.4430
vn -0.3023 0.7523 -0.5853
vn -0.8931 0.4279 -0.1387
vn -0.6197 0.6506 -0.4390
vn -0.2536 0.7502 -0.6106
vn -0.2240 0.8029 -0.5524
vn -0.5751 0.7490 -0.3290
vn 0.1335 0.8806 0.4546
vn 0.5117 0.8127 0.2787
vn 0.2976 0.8977 -0.3248
vn 0.2413 0.6900 -0.6824
vn 0.3570 0.6324 -0.6874
vn 0.4271 0.8429 -0.3272
vn -0.7667 0.6324 0.1106
vn 0.4772 0.8741 0.0913
vn 0.3541 0.9312 0.0863
vn -0.2053 0.9593 -0.1939
vn -0.6950 0.6902 0.2015
vn -0.4377 0.8975 -0.0533
vn -0.1370 0.9306 -0.3393
vn -0.0978 0.9554 -0.2786
vn 0.5536 0.6677 0.4977
vn 0.8054 0.5551 0.2078
vn 0.8217 0.5196 0.2342
vn 0.5871 0.6140 0.5275
vn 0.8432 0.5377 0.0023
vn 0.8361 0.4080 -0.3668
vn 0.1213 0.6960 -0.7078
vn -0.2712 0.5712 -0.7747
vn -0.2013 0.4862 -0.8504
vn 0.4989 0.7341 -0.4606
vn 0.4861 0.8212 -0.2989
vn 0.3062 0.6924 -0.6534
vn 0.3685 0.6404 -0.6739
vn 0.6013 0.7292 -0.3266
vn 0.0175 0.8485 -0.5290
vn -0.2824 0.5949 -0.7526
vn 0.0880 0.7650 -0.6380
vn 0.5849 0.8056 0.0947
vn 0.3568 0.6161 0.7022
vn 0.2728 0.5594 0.7827
vn 0.0169 0.8340 -0.5515
vn -0.3377 0.6460 -0.6846
vn -0.2809 0.5738 -0.7693
vn 0.1078 0.9569 -0.2696
vn -0.4532 0.6934 -0.5603
vn -0.1145 0.8973 -0.4262
vn -0.1195 0.8946 -0.4306
vn 0.2623 0.9266 -0.2694
vn 0.2204 0.9528 -0.2086
vn 0.7483 0.6563 0.0966
vn 0.7692 0.5678 -0.2931
vn 0.7979 0.5314 -0.2844
vn 0.7927 0.6020 0.0963
vn 0.8495 0.3378 0.4052
vn 0.7684 0.6352 -0.0777
vn 0.6697 0.5816 -0.4618
vn 0.4307 0.4760 -0.7668
vn -0.6564 0.7536 -0.0360
vn -0.4189 0.8167 0.3969
vn -0.1168 0.7288 0.6747
vn 0.1621 0.6868 -0.7086
vn -0.4125 0.8590 -0.3033
vn 0.2848 0.9570 -0.0554
vn 0.0555 0.7452 -0.6646
vn 0.3309 0.9409 0.0725
vn -0.5120 0.6188 0.5957
vn 0.0008 0.5205 0.8539
vn 0.3478 0.3408 0.8735
vn 0.1952 0.6343 0.7480
vn -0.1718 0.7740 0.6094
vn -0.1760 0.8722 -0.4565
vn -0.5158 0.8310 -0.2085
vn 0.3444 0.8553 0.3871
vn 0.6738 0.6023 0.4281
vn 0.6395 0.5472 0.5399
vn 0.7305 0.5873 -0.3485
vn 0.1047 0.9367 0.3342
vn 0.4738 0.8670 0.1546
vn 0.2825 0.9565 0.0732
vn 0.6391 0.6440 -0.4205
vn 0.4666 0.8763 -0.1198
vn 0.2547 0.9385 0.2331
vn 0.2016 0.9621 0.1835
vn -0.7328 0.6128 -0.2958
vn -0.8361 0.4209 0.3519
vn 0.6207 0.7787 0.0911
vn 0.7742 0.5829 -0.2467
vn 0.8241 0.5332 -0.1914
vn 0.7058 0.6851 0.1803
vn 0.4574 0.8885 0.0352
vn 0.6875 0.6840 -0.2439
vn 0.7648 0.6248 -0.1572
vn 0.5408 0.8305 0.1333
vn 0.4872 0.8728 -0.0282
vn 0.0532 0.9610 0.2715
vn -0.0818 0.9527 0.2928
vn 0.7344 0.6595 -0.1603
vn 0.6283 0.5649 -0.5349
vn 0.6589 0.5289 -0.5349
vn 0.7768 0.6051 -0.1745
vn -0.1741 0.3660 -0.9142
vn -0.5493 0.6700 0.4994
vn -0.4711 0.7655 0.4383
vn -0.2181 0.6341 0.7418
vn 0.1270 0.4476 0.8852
vn -0.4763 0.7966 0.3722
vn -0.2423 0.6725 0.6993
vn 0.1905 0.4982 0.8459
vn 0.3952 0.7930 -0.4636
vn 0.3346 0.8653 -0.3733
vn -0.0494 0.8366 -0.5456
vn 0.0255 0.7512 -0.6596
vn -0.0440 0.8989 -0.4360
vn -0.3697 0.7027 -0.6079
vn -0.3057 0.6425 -0.7027
vn -0.0821 0.9511 0.2976
vn -0.1816 0.9619 0.2042
vn -0.3428 0.6200 0.7058
vn 0.3891 0.4561 0.8004
vn -0.0119 0.7125 0.7015
vn -0.1188 0.6551 0.7461
vn -0.1217 0.9302 -0.3463
vn -0.4518 0.8869 -0.0963
vn -0.2678 0.9608 0.0718
vn -0.2881 0.9555 -0.0635
vn 0.1947 0.6653 0.7207
vn 0.2044 0.6114 0.7645
vn -0.9061 0.3787 -0.1886
vn -0.8825 0.4069 -0.2358
vn -0.8584 0.4953 -0.1335
vn -0.8338 0.5483 -0.0649
vn 0.5932 0.8038 -0.0456
vn -0.7903 0.6121 0.0276
vn 0.3179 0.9195 -0.2313
vn -0.2068 0.9557 -0.2093
vn -0.7308 0.6708 0.1264
vn -0.0903 0.9553 -0.2814
vn 0.6981 0.5444 -0.4651
vn 0.8085 0.5806 -0.0957
vn 0.6335 0.4284 -0.6443
vn 0.6817 0.3793 -0.6256
vn -0.1113 0.4305 -0.8957
vn 0.5980 0.4876 0.6361
vn 0.5612 0.4384 0.7021
vn -0.6942 0.7151 0.0814
vn -0.5870 0.8088 0.0357
vn -0.3626 0.8303 0.4233
vn -0.5042 0.7393 0.4463
vn 0.7779 0.6284 -0.0029
vn 0.8139 0.5711 0.1074
vn 0.1600 0.9537 -0.2546
vn 0.2721 0.9460 -0.1762
vn -0.7460 0.6524 0.1337
vn -0.7871 0.5982 0.1503
vn 0.6723 0.5482 -0.4975
vn 0.6413 0.5746 -0.5085
vn 0.4094 0.4402 -0.7992
vn 0.4528 0.3957 -0.7990
vn 0.6506 0.7533 0.0960
vn 0.0677 0.7829 -0.6185
vn -0.2971 0.6129 -0.7322
vn -0.2551 0.5602 -0.7881
vn 0.1400 0.6866 -0.7134
vn 0.4983 0.8640 -0.0716
vn 0.3813 0.9236 -0.0390
vn 0.2054 0.8900 -0.4071
vn 0.3226 0.8291 -0.4567
vn 0.2758 0.9597 -0.0541
vn 0.2819 0.9559 0.0826
vn 0.7230 0.5850 0.3674
vn -0.0690 0.3797 -0.9225
vn -0.6547 0.5994 -0.4605
vn -0.0586 0.9424 0.3292
vn 0.2158 0.9523 0.2155
vn 0.0879 0.9606 0.2637
vn -0.5851 0.6165 0.5268
vn -0.8885 0.3580 -0.2872
vn 0.1003 0.9509 0.2929
vn -0.0322 0.9648 0.2612
vn -0.7884 0.6112 0.0692
vn -0.8245 0.5583 0.0923
vn -0.1999 0.4166 0.8868
vn -0.2537 0.9609 0.1113
vn -0.3042 0.9525 -0.0157
vn 0.0493 0.5796 -0.8134
vn -0.3479 0.5589 -0.7527
vn -0.3477 0.5207 -0.7797
vn 0.0301 0.5237 -0.8514
vn 0.4803 0.4249 -0.7673
vn 0.6285 0.7389 0.2430
vn 0.8251 0.5590 -0.0819
vn 0.8633 0.5044 -0.0177
vn 0.6947 0.6343 0.3394
vn 0.4293 0.8088 0.4019
vn 0.6690 0.7405 0.0641
vn -0.0676 0.8962 -0.4385
vn -0.4193 0.6938 -0.5855
vn -0.3576 0.6302 -0.6892
vn -0.0218 0.8312 -0.5555
vn -0.2159 0.9573 -0.1924
vn -0.1416 0.9413 -0.3064
vn -0.0696 0.5981 -0.7984
vn -0.0637 0.6350 -0.7699
vn -0.4403 0.6389 -0.6308
vn -0.4420 0.5863 -0.6789
vn 0.3308 0.5698 -0.7523
vn 0.3677 0.6601 -0.6551
vn -0.0418 0.7307 -0.6814
vn -0.4309 0.7308 -0.5294
vn 0.0118 0.9033 -0.4289
vn -0.4202 0.7838 -0.4573
vn -0.0154 0.8261 -0.5633
vn -0.4006 0.8447 -0.3551
vn 0.3100 0.9085 -0.2802
vn -0.3732 0.8963 -0.2397
vn 0.0358 0.9534 -0.2996
vn 0.4286 0.8290 -0.3594
vn 0.4351 0.8533 -0.2873
vn 0.3867 0.7090 -0.5896
vn 0.3095 0.5196 -0.7964
vn 0.4106 0.7739 -0.4822
vt 0.501640 0.498040
vt 0.169220 0.498040
vt 0.271180 0.298180
vt 0.501860 0.298130
vt 0.643080 0.137490
vt 0.501640 0.137480
vt 0.501640 0.000240
vt 0.597550 0.000240
vt 0.802020 0.498040
vt 0.704320 0.674700
vt 0.501860 0.674660
vt 0.821380 0.298050
vt 0.627180 0.816600
vt 0.501640 0.816600
vt 0.353560 0.816600
vt 0.325160 0.674630
vt 0.399650 0.137480
vt 0.469180 0.000240
vt 0.501640 0.998880
vt 0.501980 0.999260
vt 0.591312 0.000240
s 1
usemtl Leaves_Pine.001
f 390/1/1 392/2/2 389/3/3 388/4/4
f 155/5/5 156/6/6 154/7/7 153/8/8
f 68/9/9 71/10/10 70/11/11 67/1/12
f 27/4/13 26/12/14 30/9/15 29/1/16
f 33/10/17 36/13/18 35/14/19 32/11/20
f 35/14/21 37/15/22 34/16/23 32/11/24
f 2/7/25 4/6/26 6/17/27 5/18/28
f 592/5/29 593/6/30 591/7/31 590/8/32
f 135/7/33 137/6/34 139/17/35 138/18/36
f 3/5/37 7/12/38 8/4/39
f 3/5/37 8/4/39 4/6/26
f 8/4/39 6/17/27 4/6/26
f 8/4/39 9/3/40 6/17/27
f 13/11/41 12/2/42 10/1/43
f 619/9/44 622/10/45 621/11/46 618/1/47
f 13/11/41 15/16/48 12/2/42
f 19/19/49 18/15/50 16/14/51
f 16/14/51 17/13/52 19/20/53
f 60/5/54 61/6/55 59/7/56 58/8/57
f 22/5/58 26/12/14 27/4/13
f 22/5/58 27/4/13 23/6/59
f 27/4/13 25/17/60 23/6/59
f 27/4/61 28/3/62 25/17/63
f 217/4/64 216/12/65 220/9/66 219/1/67
f 86/1/68 88/2/69 85/3/70 84/4/71
f 32/11/72 31/2/73 29/1/74
f 144/9/75 147/10/76 146/11/77 143/1/78
f 206/14/79 208/15/80 205/16/81 203/11/82
f 32/11/83 34/16/84 31/2/85
f 641/10/86 644/13/87 643/14/88 640/11/89
f 38/19/90 37/15/91 35/14/92
f 35/14/19 36/13/18 38/20/93
f 79/5/94 80/6/95 78/7/96 77/8/97
f 21/7/98 23/6/99 25/17/100 24/18/101
f 41/5/102 45/12/103 46/4/104
f 41/5/102 46/4/104 42/6/105
f 46/4/104 44/17/106 42/6/105
f 46/4/107 47/3/108 44/17/109
f 179/4/110 178/12/111 182/9/112 181/1/113
f 447/1/114 449/2/115 446/3/116 445/4/117
f 51/11/118 50/2/119 48/1/120
f 163/9/121 166/10/122 165/11/123 162/1/124
f 377/14/125 379/15/126 376/16/127 374/11/128
f 51/11/129 53/16/130 50/2/131
f 147/10/132 150/13/133 149/14/134 146/11/135
f 57/19/136 56/15/137 54/14/138
f 54/14/139 55/13/140 57/20/141
f 173/7/142 175/6/143 177/17/144 176/18/145
f 60/5/54 64/12/146 65/4/147
f 60/5/54 65/4/147 61/6/55
f 65/4/147 63/17/148 61/6/55
f 65/4/147 66/3/149 63/17/148
f 46/4/104 45/12/103 49/9/150 48/1/151
f 219/1/67 221/2/152 218/3/153 217/4/64
f 70/11/11 69/2/154 67/1/12
f 600/9/155 603/10/156 602/11/157 599/1/158
f 92/14/159 94/15/160 91/16/161 89/11/162
f 70/11/11 72/16/163 69/2/154
f 166/10/122 169/13/164 168/14/165 165/11/123
f 76/19/166 75/15/167 73/14/168
f 73/14/168 74/13/169 76/20/170
f 345/5/171 346/6/172 344/7/173 343/8/174
f 591/7/31 593/6/30 595/17/175 594/18/176
f 79/5/94 83/12/177 84/4/71
f 79/5/94 84/4/71 80/6/95
f 84/4/71 82/17/178 80/6/95
f 84/4/71 85/3/70 82/17/178
f 103/4/179 102/12/180 106/9/181 105/1/182
f 333/1/183 335/2/184 332/3/185 331/4/186
f 89/11/162 88/2/69 86/1/68
f 239/9/187 242/10/188 241/11/189 238/1/190
f 244/14/191 246/15/192 243/16/193 241/11/189
f 89/11/162 91/16/161 88/2/69
f 470/10/194 473/13/195 472/14/196 469/11/197
f 95/19/198 94/15/160 92/14/159
f 92/14/159 93/13/199 95/20/200
f 383/5/201 384/6/202 382/7/203 381/8/204
f 439/7/205 441/6/206 443/17/207 442/18/208
f 98/5/209 102/12/180 103/4/179
f 98/5/210 103/4/211 99/6/212
f 103/4/213 101/17/214 99/6/215
f 103/4/216 104/3/217 101/17/218
f 236/4/219 235/12/220 239/9/187 238/1/190
f 276/1/221 278/2/222 275/3/223 274/4/224
f 108/11/225 107/2/226 105/1/227
f 391/9/228 394/10/229 393/11/230 390/1/1
f 73/14/168 75/15/167 72/16/163 70/11/11
f 108/11/231 110/16/232 107/2/233
f 432/10/234 435/13/235 434/14/236 431/11/237
f 114/19/238 113/15/239 111/14/240
f 111/14/241 112/13/242 114/20/243
f 41/5/102 42/6/105 40/7/244 39/8/245
f 363/7/246 365/6/247 367/17/248 366/18/249
f 117/5/250 121/12/251 122/4/252
f 117/5/250 122/4/252 118/6/253
f 122/4/254 120/17/255 118/6/256
f 122/4/252 123/3/257 120/17/258
f 198/4/259 197/12/260 201/9/261 200/1/262
f 48/1/263 50/2/264 47/3/265 46/4/266
f 127/11/267 126/2/268 124/1/269
f 334/9/270 337/10/271 336/11/272 333/1/183
f 358/14/273 360/15/274 357/16/275 355/11/276
f 127/11/267 129/16/277 126/2/268
f 375/10/278 378/13/279 377/14/125 374/11/128
f 133/19/280 132/15/281 130/14/282
f 130/14/282 131/13/283 133/20/284
f 459/5/285 460/6/286 458/7/287 457/8/288
f 458/7/287 460/6/286 462/17/289 461/18/290
f 136/5/291 140/12/292 141/4/293
f 136/5/294 141/4/295 137/6/296
f 141/4/297 139/17/35 137/6/34
f 141/4/297 142/3/298 139/17/35
f 369/4/299 368/12/300 372/9/301 371/1/302
f 580/1/303 582/2/304 579/3/305 578/4/306
f 146/11/307 145/2/308 143/1/309
f 258/9/310 261/10/311 260/11/312 257/1/313
f 320/14/314 322/15/315 319/16/316 317/11/317
f 146/11/318 148/16/319 145/2/320
f 356/10/321 359/13/322 358/14/273 355/11/276
f 152/19/323 151/15/324 149/14/325
f 149/14/325 150/13/326 152/20/327
f 630/5/328 631/6/329 629/7/330 628/8/331
f 268/7/332 270/6/333 272/17/334 271/18/335
f 155/5/5 159/12/336 160/4/337
f 155/5/5 160/4/337 156/6/6
f 160/4/337 158/17/338 156/6/6
f 160/4/337 161/3/339 158/17/338
f 445/4/117 444/12/340 448/9/341 447/1/114
f 67/1/12 69/2/154 66/3/149 65/4/147
f 165/11/123 164/2/342 162/1/124
f 87/9/343 90/10/344 89/11/162 86/1/68
f 130/14/282 132/15/281 129/16/277 127/11/267
f 165/11/123 167/16/345 164/2/342
f 261/10/311 264/13/346 263/14/347 260/11/312
f 171/19/348 170/15/349 168/14/165
f 168/14/165 169/13/164 171/20/350
f 250/5/351 251/6/352 249/7/353 248/8/354
f 249/7/353 251/6/352 253/17/355 252/18/356
f 174/5/357 178/12/111 179/4/110
f 174/5/357 179/4/110 175/6/143
f 179/4/110 177/17/144 175/6/143
f 179/4/110 180/3/358 177/17/144
f 8/4/39 7/12/38 11/9/359 10/1/43
f 428/1/360 430/2/361 427/3/362 426/4/363
f 184/11/364 183/2/365 181/1/113
f 448/9/341 451/10/366 450/11/367 447/1/114
f 111/14/368 113/15/369 110/16/370 108/11/371
f 184/11/364 186/16/372 183/2/365
f 299/10/373 302/13/374 301/14/375 298/11/376
f 190/19/377 189/15/378 187/14/379
f 187/14/379 188/13/380 190/20/381
f 3/5/37 4/6/26 2/7/25 1/8/382
f 477/7/383 479/6/384 481/17/385 480/18/386
f 193/5/387 197/12/388 198/4/389
f 193/5/390 198/4/391 194/6/392
f 198/4/391 196/17/393 194/6/392
f 198/4/391 199/3/394 196/17/393
f 255/4/395 254/12/396 258/9/310 257/1/313
f 542/1/397 544/2/398 541/3/399 540/4/400
f 203/11/82 202/2/401 200/1/402
f 505/9/403 508/10/404 507/11/405 504/1/406
f 510/14/407 512/15/408 509/16/409 507/11/405
f 203/11/82 205/16/81 202/2/401
f 14/10/410 17/13/52 16/14/51 13/11/41
f 209/19/411 208/15/80 206/14/79
f 206/14/412 207/13/413 209/20/414
f 516/5/415 517/6/416 515/7/417 514/8/418
f 154/7/7 156/6/6 158/17/338 157/18/419
f 212/5/420 216/12/65 217/4/64
f 212/5/420 217/4/64 213/6/421
f 217/4/64 215/17/422 213/6/421
f 217/4/64 218/3/153 215/17/422
f 578/4/306 577/12/423 581/9/424 580/1/303
f 10/1/43 12/2/42 9/3/40 8/4/39
f 222/11/425 221/2/152 219/1/67
f 372/9/301 375/10/278 374/11/128 371/1/302
f 16/14/51 18/15/50 15/16/48 13/11/41
f 222/11/425 224/16/426 221/2/152
f 489/10/427 492/13/428 491/14/429 488/11/430
f 228/19/431 227/15/432 225/14/433
f 225/14/433 226/13/434 228/20/435
f 212/5/420 213/6/421 211/7/436 210/8/437
f 59/7/56 61/6/55 63/17/148 62/18/438
f 231/5/439 235/12/220 236/4/219
f 231/5/440 236/4/441 232/6/442
f 236/4/443 234/17/444 232/6/445
f 236/4/443 237/3/446 234/17/447
f 293/4/448 292/12/449 296/9/450 295/1/451
f 352/1/452 354/2/453 351/3/454 350/4/455
f 241/11/189 240/2/456 238/1/190
f 315/9/457 318/10/458 317/11/317 314/1/459
f 301/14/375 303/15/460 300/16/461 298/11/376
f 241/11/189 243/16/193 240/2/456
f 622/10/45 625/13/462 624/14/463 621/11/46
f 247/19/464 246/15/192 244/14/191
f 244/14/191 245/13/465 247/20/466
f 117/5/467 118/6/468 116/7/469 115/21/470
f 496/7/471 498/6/472 500/17/473 499/18/474
f 250/5/351 254/12/396 255/4/395
f 250/5/351 255/4/395 251/6/352
f 255/4/395 253/17/355 251/6/352
f 255/4/395 256/3/475 253/17/355
f 635/4/476 634/12/477 638/9/478 637/1/479
f 561/1/480 563/2/481 560/3/482 559/4/483
f 260/11/312 259/2/484 257/1/313
f 106/9/485 109/10/486 108/11/487 105/1/488
f 168/14/165 170/15/349 167/16/345 165/11/123
f 260/11/312 262/16/489 259/2/484
f 128/10/490 131/13/283 130/14/282 127/11/267
f 266/19/491 265/15/492 263/14/347
f 263/14/347 264/13/346 266/20/493
f 307/5/494 308/6/495 306/7/496 305/8/497
f 629/7/330 631/6/329 633/17/498 632/18/499
f 269/5/500 273/12/501 274/4/224
f 269/5/500 274/4/224 270/6/333
f 274/4/224 272/17/334 270/6/333
f 274/4/224 275/3/223 272/17/334
f 616/4/502 615/12/503 619/9/44 618/1/47
f 181/1/113 183/2/365 180/3/358 179/4/110
f 279/11/504 278/2/222 276/1/221
f 467/9/505 470/10/194 469/11/197 466/1/506
f 54/14/507 56/15/508 53/16/509 51/11/510
f 279/11/504 281/16/511 278/2/222
f 204/10/512 207/13/513 206/14/514 203/11/515
f 285/19/516 284/15/517 282/14/518
f 282/14/518 283/13/519 285/20/520
f 136/5/521 137/6/522 135/7/523 134/8/524
f 116/7/525 118/6/526 120/17/527 119/18/528
f 288/5/529 292/12/449 293/4/448
f 288/5/529 293/4/448 289/6/530
f 293/4/448 291/17/531 289/6/530
f 293/4/448 294/3/532 291/17/531
f 426/4/363 425/12/533 429/9/534 428/1/360
f 504/1/406 506/2/535 503/3/536 502/4/537
f 298/11/376 297/2/538 295/1/451
f 543/9/539 546/10/540 545/11/541 542/1/397
f 225/14/433 227/15/432 224/16/426 222/11/425
f 298/11/376 300/16/461 297/2/538
f 90/10/344 93/13/199 92/14/159 89/11/162
f 304/19/542 303/15/460 301/14/375
f 301/14/375 302/13/374 304/20/543
f 535/5/544 536/6/545 534/7/546 533/8/547
f 192/7/548 194/6/392 196/17/393 195/18/549
f 307/5/494 311/12/550 312/4/551
f 307/5/494 312/4/551 308/6/495
f 312/4/551 310/17/552 308/6/495
f 312/4/551 313/3/553 310/17/552
f 464/4/554 463/12/555 467/9/505 466/1/506
f 295/1/451 297/2/538 294/3/532 293/4/448
f 317/11/317 316/2/556 314/1/459
f 339/14/557 341/15/558 338/16/559 336/11/272
f 317/11/317 319/16/316 316/2/556
f 508/10/404 511/13/560 510/14/407 507/11/405
f 323/19/561 322/15/315 320/14/314
f 320/14/314 321/13/562 323/20/563
f 440/5/564 441/6/206 439/7/205 438/8/565
f 401/7/566 403/6/567 405/17/568 404/18/569
f 326/5/570 330/12/571 331/4/186
f 326/5/570 331/4/186 327/6/572
f 331/4/186 329/17/573 327/6/572
f 331/4/186 332/3/185 329/17/573
f 407/4/574 406/12/575 410/9/576 409/1/577
f 637/1/479 639/2/578 636/3/579 635/4/476
f 336/11/272 335/2/184 333/1/183
f 182/9/112 185/10/580 184/11/364 181/1/113
f 187/14/379 189/15/378 186/16/372 184/11/364
f 336/11/272 338/16/559 335/2/184
f 185/10/580 188/13/380 187/14/379 184/11/364
f 342/19/581 341/15/558 339/14/557
f 339/14/557 340/13/582 342/20/583
f 402/5/584 403/6/567 401/7/566 400/8/585
f 230/7/586 232/6/587 234/17/588 233/18/589
f 345/5/171 349/12/590 350/4/455
f 345/5/171 350/4/455 346/6/172
f 350/4/455 348/17/591 346/6/172
f 350/4/455 351/3/454 348/17/591
f 141/4/592 140/12/593 144/9/594 143/1/595
f 618/1/47 620/2/596 617/3/597 616/4/502
f 355/11/276 354/2/453 352/1/452
f 49/9/150 52/10/598 51/11/599 48/1/151
f 472/14/196 474/15/600 471/16/601 469/11/197
f 355/11/276 357/16/275 354/2/453
f 318/10/458 321/13/562 320/14/314 317/11/317
f 361/19/602 360/15/274 358/14/273
f 358/14/273 359/13/322 361/20/603
f 269/5/500 270/6/333 268/7/332 267/8/604
f 610/7/605 612/6/606 614/17/607 613/18/608
f 364/5/609 368/12/300 369/4/299
f 364/5/609 369/4/299 365/6/247
f 369/4/299 367/17/248 365/6/247
f 369/4/299 370/3/610 367/17/248
f 122/4/252 121/12/251 125/9/611 124/1/269
f 466/1/506 468/2/612 465/3/613 464/4/554
f 374/11/128 373/2/614 371/1/302
f 353/9/615 356/10/321 355/11/276 352/1/452
f 643/14/88 645/15/616 642/16/617 640/11/89
f 374/11/128 376/16/127 373/2/614
f 337/10/271 340/13/582 339/14/557 336/11/272
f 380/19/618 379/15/126 377/14/125
f 377/14/125 378/13/279 380/20/619
f 497/5/620 498/6/472 496/7/471 495/8/621
f 572/7/622 574/6/623 576/17/624 575/18/625
f 383/5/201 387/12/626 388/4/4
f 383/5/201 388/4/4 384/6/202
f 388/4/4 386/17/627 384/6/202
f 388/4/4 389/3/3 386/17/627
f 521/4/628 520/12/629 524/9/630 523/1/631
f 314/1/459 316/2/556 313/3/553 312/4/551
f 393/11/230 392/2/2 390/1/1
f 581/9/424 584/10/632 583/11/633 580/1/303
f 567/14/634 569/15/635 566/16/636 564/11/637
f 393/11/230 395/16/638 392/2/2
f 565/10/639 568/13/640 567/14/634 564/11/637
f 399/19/641 398/15/642 396/14/643
f 396/14/643 397/13/644 399/20/645
f 22/5/646 23/6/647 21/7/648 20/8/649
f 287/7/650 289/6/530 291/17/531 290/18/651
f 402/5/584 406/12/575 407/4/574
f 402/5/584 407/4/574 403/6/567
f 407/4/574 405/17/568 403/6/567
f 407/4/652 408/3/653 405/17/654
f 540/4/400 539/12/655 543/9/539 542/1/397
f 105/1/656 107/2/657 104/3/658 103/4/659
f 412/11/660 411/2/661 409/1/662
f 562/9/663 565/10/639 564/11/637 561/1/480
f 491/14/429 493/15/664 490/16/665 488/11/430
f 412/11/666 414/16/667 411/2/668
f 71/10/10 74/13/169 73/14/168 70/11/11
f 418/19/669 417/15/670 415/14/671
f 415/14/672 416/13/673 418/20/674
f 554/5/675 555/6/676 553/7/677 552/8/678
f 306/7/496 308/6/495 310/17/552 309/18/679
f 421/5/680 425/12/533 426/4/363
f 421/5/680 426/4/363 422/6/681
f 426/4/363 424/17/682 422/6/681
f 426/4/363 427/3/362 424/17/682
f 502/4/537 501/12/683 505/9/403 504/1/406
f 124/1/269 126/2/268 123/3/257 122/4/252
f 431/11/237 430/2/361 428/1/360
f 486/9/684 489/10/427 488/11/430 485/1/685
f 263/14/347 265/15/492 262/16/489 260/11/312
f 431/11/237 433/16/686 430/2/361
f 223/10/687 226/13/434 225/14/433 222/11/425
f 437/19/688 436/15/689 434/14/236
f 434/14/236 435/13/235 437/20/690
f 174/5/357 175/6/143 173/7/142 172/8/691
f 325/7/692 327/6/572 329/17/573 328/18/693
f 440/5/564 444/12/340 445/4/117
f 440/5/564 445/4/117 441/6/206
f 445/4/117 443/17/207 441/6/206
f 445/4/117 446/3/116 443/17/207
f 597/4/694 596/12/695 600/9/155 599/1/158
f 162/1/124 164/2/342 161/3/339 160/4/337
f 450/11/367 449/2/115 447/1/114
f 524/9/630 527/10/696 526/11/697 523/1/631
f 605/14/698 607/15/699 604/16/700 602/11/157
f 450/11/367 452/16/701 449/2/115
f 584/10/632 587/13/702 586/14/703 583/11/633
f 456/19/704 455/15/705 453/14/706
f 453/14/706 454/13/707 456/20/708
f 364/5/609 365/6/247 363/7/246 362/8/709
f 211/7/436 213/6/421 215/17/422 214/18/710
f 459/5/285 463/12/555 464/4/554
f 459/5/285 464/4/554 460/6/286
f 464/4/554 462/17/289 460/6/286
f 464/4/554 465/3/613 462/17/289
f 84/4/71 83/12/177 87/9/343 86/1/68
f 29/1/711 31/2/712 28/3/713 27/4/714
f 469/11/197 468/2/612 466/1/506
f 638/9/478 641/10/86 640/11/89 637/1/479
f 149/14/715 151/15/716 148/16/717 146/11/718
f 469/11/197 471/16/601 468/2/612
f 280/10/719 283/13/519 282/14/518 279/11/504
f 475/19/720 474/15/600 472/14/196
f 472/14/196 473/13/195 475/20/721
f 98/5/722 99/6/723 97/7/724 96/8/725
f 78/7/96 80/6/95 82/17/178 81/18/726
f 478/5/727 482/12/728 483/4/729
f 478/5/727 483/4/729 479/6/384
f 483/4/729 481/17/385 479/6/384
f 483/4/729 484/3/730 481/17/385
f 312/4/551 311/12/550 315/9/457 314/1/459
f 200/1/731 202/2/732 199/3/394 198/4/391
f 488/11/430 487/2/733 485/1/685
f 410/9/734 413/10/735 412/11/736 409/1/737
f 548/14/738 550/15/739 547/16/740 545/11/541
f 488/11/430 490/16/665 487/2/733
f 413/10/735 416/13/673 415/14/672 412/11/736
f 494/19/741 493/15/664 491/14/429
f 491/14/429 492/13/428 494/20/742
f 326/5/570 327/6/572 325/7/692 324/8/743
f 40/7/244 42/6/105 44/17/106 43/18/744
f 497/5/620 501/12/683 502/4/537
f 497/5/620 502/4/537 498/6/472
f 502/4/537 500/17/473 498/6/472
f 502/4/537 503/3/536 500/17/473
f 160/4/337 159/12/336 163/9/121 162/1/124
f 485/1/685 487/2/733 484/3/730 483/4/729
f 507/11/405 506/2/535 504/1/406
f 125/9/611 128/10/490 127/11/267 124/1/269
f 624/14/463 626/15/745 623/16/746 621/11/46
f 507/11/405 509/16/409 506/2/535
f 527/10/696 530/13/747 529/14/748 526/11/697
f 513/19/749 512/15/408 510/14/407
f 510/14/407 511/13/560 513/20/750
f 573/5/751 574/6/623 572/7/622 571/8/752
f 382/7/203 384/6/202 386/17/627 385/18/753
f 516/5/415 520/12/629 521/4/628
f 516/5/415 521/4/628 517/6/416
f 521/4/628 519/17/754 517/6/416
f 521/4/628 522/3/755 519/17/754
f 331/4/186 330/12/571 334/9/270 333/1/183
f 257/1/313 259/2/484 256/3/475 255/4/395
f 526/11/697 525/2/756 523/1/631
f 277/9/757 280/10/719 279/11/504 276/1/221
f 282/14/518 284/15/517 281/16/511 279/11/504
f 526/11/697 528/16/758 525/2/756
f 546/10/540 549/13/759 548/14/738 545/11/541
f 532/19/760 531/15/761 529/14/748
f 529/14/748 530/13/747 532/20/762
f 421/5/680 422/6/681 420/7/763 419/8/764
f 553/7/677 555/6/676 557/17/765 556/18/766
f 535/5/544 539/12/655 540/4/400
f 535/5/544 540/4/400 536/6/545
f 540/4/400 538/17/767 536/6/545
f 540/4/400 541/3/399 538/17/767
f 483/4/729 482/12/728 486/9/684 485/1/685
f 599/1/158 601/2/768 598/3/769 597/4/694
f 545/11/541 544/2/398 542/1/397
f 201/9/770 204/10/771 203/11/772 200/1/773
f 586/14/703 588/15/774 585/16/775 583/11/633
f 545/11/541 547/16/740 544/2/398
f 394/10/229 397/13/644 396/14/643 393/11/230
f 551/19/776 550/15/739 548/14/738
f 548/14/738 549/13/759 551/20/777
f 611/5/778 612/6/606 610/7/605 609/8/779
f 97/7/780 99/6/781 101/17/782 100/18/783
f 554/5/675 558/12/784 559/4/483
f 554/5/675 559/4/483 555/6/676
f 559/4/483 557/17/765 555/6/676
f 559/4/483 560/3/482 557/17/765
f 388/4/4 387/12/626 391/9/228 390/1/1
f 409/1/785 411/2/786 408/3/787 407/4/788
f 564/11/637 563/2/481 561/1/480
f 220/9/66 223/10/687 222/11/425 219/1/67
f 529/14/748 531/15/761 528/16/758 526/11/697
f 564/11/637 566/16/636 563/2/481
f 109/10/789 112/13/790 111/14/791 108/11/792
f 570/19/793 569/15/635 567/14/634
f 567/14/634 568/13/640 570/20/794
f 288/5/529 289/6/530 287/7/650 286/8/795
f 534/7/546 536/6/545 538/17/767 537/18/796
f 573/5/751 577/12/423 578/4/306
f 573/5/751 578/4/306 574/6/623
f 578/4/306 576/17/624 574/6/623
f 578/4/306 579/3/305 576/17/624
f 274/4/224 273/12/501 277/9/757 276/1/221
f 238/1/190 240/2/456 237/3/797 236/4/219
f 583/11/633 582/2/304 580/1/303
f 11/9/359 14/10/410 13/11/41 10/1/43
f 434/14/236 436/15/689 433/16/686 431/11/237
f 583/11/633 585/16/775 582/2/304
f 603/10/156 606/13/798 605/14/698 602/11/157
f 589/19/799 588/15/774 586/14/703
f 586/14/703 587/13/702 589/20/800
f 478/5/727 479/6/384 477/7/383 476/8/801
f 515/7/417 517/6/416 519/17/754 518/18/802
f 592/5/29 596/12/695 597/4/694
f 592/5/29 597/4/694 593/6/30
f 597/4/694 595/17/175 593/6/30
f 597/4/694 598/3/769 595/17/175
f 350/4/455 349/12/590 353/9/615 352/1/452
f 371/1/302 373/2/614 370/3/610 369/4/299
f 602/11/157 601/2/768 599/1/158
f 296/9/450 299/10/373 298/11/376 295/1/451
f 396/14/643 398/15/642 395/16/638 393/11/230
f 602/11/157 604/16/700 601/2/768
f 242/10/188 245/13/465 244/14/191 241/11/189
f 608/19/803 607/15/699 605/14/698
f 605/14/698 606/13/798 608/20/804
f 193/5/805 194/6/392 192/7/548 191/8/806
f 344/7/173 346/6/172 348/17/591 347/18/807
f 611/5/778 615/12/503 616/4/502
f 611/5/778 616/4/502 612/6/606
f 616/4/502 614/17/607 612/6/606
f 616/4/502 617/3/597 614/17/607
f 559/4/483 558/12/784 562/9/663 561/1/480
f 523/1/631 525/2/756 522/3/755 521/4/628
f 621/11/46 620/2/596 618/1/47
f 429/9/534 432/10/234 431/11/237 428/1/360
f 453/14/706 455/15/705 452/16/701 450/11/367
f 621/11/46 623/16/746 620/2/596
f 52/10/598 55/13/140 54/14/139 51/11/599
f 627/19/808 626/15/745 624/14/463
f 624/14/463 625/13/462 627/20/809
f 231/5/810 232/6/811 230/7/812 229/8/813
f 420/7/763 422/6/681 424/17/682 423/18/814
f 630/5/328 634/12/477 635/4/476
f 630/5/328 635/4/476 631/6/329
f 635/4/476 633/17/498 631/6/329
f 635/4/476 636/3/579 633/17/498
f 65/4/147 64/12/146 68/9/9 67/1/12
f 143/1/815 145/2/816 142/3/817 141/4/818
f 640/11/89 639/2/578 637/1/479
f 30/9/819 33/10/17 32/11/20 29/1/820
f 415/14/821 417/15/822 414/16/823 412/11/824
f 640/11/89 642/16/617 639/2/578
f 451/10/366 454/13/707 453/14/706 450/11/367
f 646/19/825 645/15/616 643/14/88
f 643/14/88 644/13/87 646/20/826
f 648/7/827 650/6/828 652/17/829 651/18/830
f 649/5/831 653/12/832 654/4/833
f 649/5/831 654/4/833 650/6/828
f 654/4/833 652/17/829 650/6/828
f 654/4/833 655/3/834 652/17/829
f 659/11/835 658/2/836 656/1/837
f 659/11/835 661/16/838 658/2/836
f 665/19/839 664/15/840 662/14/841
f 662/14/841 663/13/842 665/20/843
f 654/4/833 653/12/832 657/9/844 656/1/837
f 649/5/831 650/6/828 648/7/827 647/8/845
f 660/10/846 663/13/842 662/14/841 659/11/835
f 656/1/837 658/2/836 655/3/834 654/4/833
f 662/14/841 664/15/840 661/16/838 659/11/835
f 657/9/844 660/10/846 659/11/835 656/1/837
