# Blender 5.1.1
# www.blender.org
mtllib real_pine_leaves.mtl
o Pine_4
v -0.198539 9.964823 -0.453971
v -0.154903 9.987247 -0.432158
v -0.220998 9.896759 -0.428865
v -0.156645 9.929831 -0.396697
v -0.139814 9.979319 -0.438234
v -0.109242 9.904924 -0.415787
v -0.307253 9.791231 -0.421953
v -0.159064 9.867391 -0.347877
v -0.049983 9.810076 -0.391805
v -0.162451 9.805024 -0.280154
v -0.310639 9.728868 -0.354232
v 0.004613 9.717247 -0.347431
v -0.166288 9.752232 -0.203838
v -0.260211 9.703965 -0.250790
v -0.082714 9.708320 -0.237492
v -0.169993 9.717048 -0.130547
v -0.227112 9.687695 -0.159102
v -0.101173 9.680887 -0.158260
v -0.175036 9.681437 -0.031089
v -0.131610 9.966898 -0.420492
v -0.110133 9.993649 -0.493970
v -0.078939 9.874285 -0.378008
v -0.047269 9.913738 -0.486370
v -0.120377 9.977630 -0.513602
v -0.079452 9.863417 -0.548045
v -0.036449 9.737572 -0.229733
v 0.036481 9.828420 -0.479265
v -0.037574 9.712623 -0.621188
v 0.148575 9.746140 -0.474315
v 0.075641 9.655292 -0.224783
v 0.035158 9.568784 -0.691678
v 0.271947 9.679421 -0.472273
v 0.225719 9.621843 -0.314118
v 0.215212 9.590698 -0.581010
v 0.387815 9.638424 -0.473450
v 0.359701 9.603407 -0.377269
v 0.341097 9.565362 -0.562991
v 0.542267 9.601018 -0.477482
v -0.180141 9.882284 -0.447063
v -0.079672 9.913337 -0.475388
v -0.196532 9.760309 -0.354417
v -0.048366 9.806110 -0.396193
v -0.065515 9.890688 -0.500563
v -0.003890 9.734957 -0.475283
v -0.343182 9.585964 -0.197192
v -0.001991 9.691429 -0.293389
v 0.100356 9.527690 -0.475385
v 0.067125 9.580452 -0.159876
v -0.274068 9.474993 -0.063683
v 0.223878 9.329675 -0.438608
v 0.148460 9.490077 -0.015978
v -0.067792 9.423239 0.044987
v 0.226877 9.364625 -0.155413
v 0.229630 9.434064 0.116397
v 0.098116 9.393415 0.153471
v 0.294205 9.330756 0.001578
v 0.342177 9.382124 0.291484
v -0.191795 9.759301 -0.561808
v -0.112309 9.822596 -0.470446
v -0.275144 9.592094 -0.512311
v -0.157920 9.685442 -0.377578
v -0.071536 9.801529 -0.466649
v -0.029824 9.619261 -0.365651
v -0.489519 9.323743 -0.563784
v -0.219582 9.538696 -0.253523
v 0.075185 9.386396 -0.226073
v -0.303467 9.396583 -0.086982
v -0.573401 9.181634 -0.397248
v 0.147981 9.163322 -0.044936
v -0.396804 9.280739 0.096690
v -0.567888 9.144505 -0.099961
v -0.170966 9.164045 0.117727
v -0.485383 9.208797 0.269533
v -0.589427 9.125948 0.149937
v -0.299414 9.112706 0.286857
v -0.604721 9.141880 0.500367
v -0.024022 9.689409 -0.566598
v -0.127892 9.717936 -0.442911
v -0.072898 9.518865 -0.716086
v -0.226076 9.560938 -0.533675
v -0.122919 9.679405 -0.403588
v -0.210452 9.439897 -0.410135
v -0.009634 9.296047 -1.062694
v -0.362370 9.392927 -0.642646
v -0.326420 9.114388 -0.358366
v -0.553075 9.230162 -0.770464
v -0.200333 9.133284 -1.190508
v -0.498022 8.803557 -0.335078
v -0.769157 9.097418 -0.897669
v -0.545584 9.036020 -1.163893
v -0.741619 8.884005 -0.679867
v -0.977720 9.014907 -1.004896
v -0.841752 8.977569 -1.166798
v -0.955047 8.839169 -0.825545
v -1.261569 8.938112 -1.138725
v -0.024913 9.596352 -0.424392
v -0.151999 9.626421 -0.528480
v 0.124231 9.420382 -0.475273
v -0.063191 9.464734 -0.628774
v -0.192475 9.587759 -0.522582
v -0.190354 9.343279 -0.610242
v 0.475019 9.189220 -0.414585
v 0.043432 9.291348 -0.768066
v -0.249185 9.011857 -0.725425
v 0.168497 9.122702 -0.963066
v 0.600080 9.020579 -0.609580
v -0.279658 8.694641 -0.897766
v 0.292963 8.984470 -1.184088
v 0.566500 8.919746 -0.960043
v 0.068773 8.770329 -1.151425
v 0.397881 8.897698 -1.397483
v 0.564232 8.858339 -1.261228
v 0.213270 8.721359 -1.370589
v 0.528829 8.815914 -1.687958
v -0.067669 9.509389 -0.391449
v -0.118382 9.540682 -0.561778
v 0.098655 9.321277 -0.345636
v 0.023860 9.367434 -0.596827
v -0.157663 9.498390 -0.580936
v -0.099551 9.234573 -0.657013
v 0.378079 9.075617 -0.077425
v 0.205851 9.181900 -0.655860
v -0.078132 8.876165 -0.794359
v 0.438098 9.001913 -0.753499
v 0.610319 8.895637 -0.175061
v 0.003170 8.533659 -0.965619
v 0.685244 8.854873 -0.874878
v 0.794394 8.787518 -0.508258
v 0.467673 8.620625 -0.980994
v 0.909664 8.763167 -1.001519
v 0.976041 8.722206 -0.778558
v 0.730503 8.570271 -1.088903
v 1.203485 8.677561 -1.180173
v -0.139372 9.418488 -0.424582
v -0.055709 9.451160 -0.584137
v -0.052888 9.224676 -0.276158
v 0.070489 9.272865 -0.511464
v -0.071354 9.408958 -0.626352
v 0.021335 9.140286 -0.644090
v -0.041685 8.970440 0.113475
v 0.242430 9.081401 -0.428377
v 0.129323 8.776315 -0.733565
v 0.478318 8.894670 -0.337892
v 0.194196 8.783715 0.203957
v 0.305095 8.427410 -0.805301
v 0.742240 8.741102 -0.253787
v 0.562158 8.670781 0.089639
v 0.655589 8.507350 -0.487609
v 0.994019 8.644075 -0.188864
v 0.884499 8.601311 0.019989
v 0.922667 8.451588 -0.381408
v 1.333169 8.552005 -0.112800
v -0.159808 9.333080 -0.465154
v -0.007855 9.356931 -0.570337
v -0.157542 9.145364 -0.280153
v 0.066548 9.180545 -0.435276
v -0.002927 9.311474 -0.613384
v 0.082028 9.037735 -0.570519
v -0.339226 8.910537 0.088843
v 0.176804 8.991543 -0.268363
v 0.212427 8.662914 -0.579575
v 0.341178 8.807988 -0.064617
v -0.174857 8.726987 0.292583
v 0.395741 8.304668 -0.541247
v 0.534644 8.657823 0.144945
v 0.207575 8.606487 0.371337
v 0.561943 8.406034 -0.093489
v 0.727751 8.563911 0.328419
v 0.528842 8.532694 0.466096
v 0.750233 8.356570 0.132079
v 0.994269 8.475965 0.563231
v -0.162798 9.242017 -0.510679
v 0.023279 9.263975 -0.539584
v -0.245072 9.053385 -0.338755
v 0.029344 9.085774 -0.381388
v 0.046409 9.217152 -0.576394
v 0.102011 8.938675 -0.497035
v -0.577997 8.820335 -0.079828
v 0.053920 8.894916 -0.177996
v 0.221137 8.556415 -0.444112
v 0.111710 8.709720 0.083115
v -0.520209 8.635145 0.181275
v 0.367812 8.191284 -0.324448
v 0.193915 8.558382 0.362194
v -0.206600 8.511119 0.424403
v 0.322033 8.299028 0.158312
v 0.288022 8.463942 0.616753
v 0.044449 8.435199 0.654583
v 0.393524 8.250372 0.448867
v 0.427588 8.375594 0.951676
v -0.143411 9.143164 -0.566721
v 0.033132 9.164107 -0.492892
v -0.307602 8.953271 -0.461261
v -0.047242 8.984167 -0.352388
v 0.072296 9.116181 -0.512341
v 0.075799 8.833601 -0.413493
v -0.735273 8.720411 -0.413630
v -0.135728 8.791552 -0.162915
v 0.147403 8.445076 -0.303522
v -0.226100 8.604856 0.094136
v -0.825642 8.533722 -0.156587
v 0.207527 8.074204 -0.121203
v -0.304600 8.452501 0.379631
v -0.684592 8.407419 0.220716
v -0.087677 8.187038 0.271910
v -0.359277 8.357684 0.650105
v -0.590368 8.330268 0.553458
v -0.180649 8.139083 0.561404
v -0.417741 8.269458 1.013017
v -0.129747 9.023285 -0.604026
v 0.014085 9.055526 -0.476630
v -0.311292 8.822919 -0.550784
v -0.099172 8.870475 -0.362913
v 0.060385 9.009193 -0.481202
v 0.046287 8.724919 -0.377279
v -0.723923 8.563146 -0.637165
v -0.235463 8.672650 -0.204536
v 0.099255 8.337700 -0.237591
v -0.395853 8.481390 0.017819
v -0.884308 8.371892 -0.414817
v 0.116780 7.968390 -0.032800
v -0.555924 8.325815 0.270301
v -0.865506 8.256417 -0.003910
v -0.299478 8.069181 0.244983
v -0.691305 8.229608 0.514473
v -0.879575 8.187405 0.347709
v -0.480133 8.018278 0.493627
v -0.860726 8.140789 0.845812
v -0.076552 8.892171 -0.661863
v -0.021668 8.946939 -0.480606
v -0.245953 8.672448 -0.689866
v -0.165007 8.753227 -0.422560
v 0.024143 8.905539 -0.456077
v -0.021082 8.623159 -0.345499
v -0.537042 8.360058 -0.952091
v -0.350648 8.546066 -0.336545
v -0.019461 8.246758 -0.159214
v -0.591085 8.345640 -0.208314
v -0.777471 8.159637 -0.823863
v -0.083861 7.887226 0.063282
v -0.849712 8.182462 -0.057388
v -0.967840 8.064575 -0.447529
v -0.595975 7.953135 0.078482
v -1.087158 8.081371 0.093256
v -1.158994 8.009681 -0.144009
v -0.878216 7.892528 0.205142
v -1.400832 7.987697 0.302146
v -0.008880 8.754192 -0.696233
v -0.034939 8.834764 -0.516923
v -0.172360 8.535583 -0.739826
v -0.185815 8.635648 -0.493440
v -0.001601 8.800429 -0.469706
v -0.079821 8.526875 -0.346001
v -0.383412 8.232212 -1.004216
v -0.391951 8.427447 -0.455930
v -0.143353 8.172505 -0.120219
v -0.656216 8.221195 -0.410212
v -0.625277 8.017925 -0.973313
v -0.283396 7.833302 0.109143
v -0.948795 8.046581 -0.357203
v -0.899685 7.895181 -0.735485
v -0.763528 7.854339 -0.096363
v -1.226345 7.939609 -0.302777
v -1.191135 7.834249 -0.538137
v -1.074297 7.782999 -0.087411
v -1.599316 7.842085 -0.226747
v 0.092879 8.677303 -0.608438
v -0.055741 8.709557 -0.475734
v 0.061409 8.469625 -0.801789
v -0.157764 8.517197 -0.606079
v -0.056262 8.661519 -0.427575
v -0.159397 8.366284 -0.454776
v 0.201836 8.201773 -1.216175
v -0.302875 8.311316 -0.765506
v -0.306635 7.964040 -0.417340
v -0.510969 8.111809 -0.957420
v -0.006252 8.002273 -1.408083
v -0.516733 7.579931 -0.424191
v -0.750365 7.949049 -1.152603
v -0.430469 7.879627 -1.438232
v -0.753252 7.682971 -0.885855
v -0.984618 7.847816 -1.321341
v -0.790071 7.805597 -1.495044
v -0.986998 7.628708 -1.101685
v -1.305910 7.753517 -1.535692
v 0.084222 8.550140 -0.604852
v -0.105682 8.594499 -0.544186
v 0.125415 8.320404 -0.775077
v -0.154643 8.385832 -0.685604
v -0.126575 8.551212 -0.494918
v -0.220281 8.249843 -0.530817
v 0.412299 8.009252 -1.075654
v -0.232611 8.159909 -0.869624
v -0.383655 7.846973 -0.513441
v -0.356196 7.936124 -1.109307
v 0.288718 7.785473 -1.315330
v -0.587530 7.456838 -0.563801
v -0.506582 7.748545 -1.368164
v -0.097829 7.653063 -1.498737
v -0.622310 7.508776 -1.095275
v -0.660874 7.625727 -1.606785
v -0.412290 7.567662 -1.686191
v -0.756175 7.428286 -1.382073
v -0.876725 7.504074 -1.922169
v 0.087121 8.460980 -0.443246
v -0.061420 8.498748 -0.583726
v 0.276606 8.241770 -0.493473
v 0.057541 8.297475 -0.700641
v -0.112256 8.450666 -0.580052
v -0.102172 8.146423 -0.689094
v 0.706519 7.953399 -0.387357
v 0.202068 8.081667 -0.864422
v -0.165449 7.734074 -0.837854
v 0.374443 7.871813 -1.095737
v 0.878888 7.743551 -0.618665
v -0.188424 7.339451 -1.055054
v 0.548422 7.699864 -1.359371
v 0.868139 7.618575 -1.056996
v 0.266847 7.433544 -1.339023
v 0.697519 7.591997 -1.615189
v 0.891953 7.542562 -1.431297
v 0.465654 7.372690 -1.598436
v 0.884880 7.490896 -1.962733
v 0.066137 8.149112 -0.474235
v -0.081582 8.183963 -0.620879
v 0.284042 7.953955 -0.533749
v 0.066188 8.005357 -0.750007
v -0.127561 8.129791 -0.624109
v -0.078268 7.835177 -0.760151
v 0.745106 7.700879 -0.428344
v 0.243445 7.819242 -0.926342
v -0.088965 7.427630 -0.949688
v 0.451097 7.648368 -1.168852
v 0.952752 7.530011 -0.670847
v -0.058000 7.048591 -1.204615
v 0.657531 7.518748 -1.440617
v 0.975479 7.443736 -1.124974
v 0.402856 7.218705 -1.458512
v 0.831319 7.450120 -1.700263
v 1.024677 7.404502 -1.508302
v 0.621605 7.203043 -1.715002
v 1.047961 7.400683 -2.050102
v -0.026631 8.264255 -0.418071
v 0.034564 8.314685 -0.617764
v 0.109284 8.031173 -0.278206
v 0.199525 8.105551 -0.572705
v 0.008241 8.267244 -0.665724
v 0.116825 7.956516 -0.723380
v 0.211950 7.710574 0.151809
v 0.419762 7.881842 -0.526351
v 0.229462 7.538887 -0.873074
v 0.715240 7.665298 -0.484952
v 0.507420 7.494036 0.193207
v 0.423796 7.140038 -1.015975
v 1.040978 7.488883 -0.454810
v 0.909255 7.380341 -0.024989
v 0.895185 7.226117 -0.720456
v 1.347383 7.379457 -0.440513
v 1.267272 7.313448 -0.179119
v 1.227332 7.163076 -0.659264
v 1.756849 7.277985 -0.431892
v -0.086362 8.190528 -0.530145
v 0.112449 8.217659 -0.617090
v -0.126201 7.970820 -0.316095
v 0.166993 8.010839 -0.444323
v 0.127648 8.164155 -0.665444
v 0.214741 7.842755 -0.596237
v -0.419562 7.697047 0.068515
v 0.255599 7.789197 -0.226759
v 0.365475 7.402406 -0.576329
v 0.398252 7.573880 0.045414
v -0.276913 7.481737 0.340679
v 0.566536 6.981483 -0.489963
v 0.573233 7.397670 0.330759
v 0.145307 7.339272 0.517894
v 0.657420 7.101316 0.062938
v 0.753903 7.287390 0.585835
v 0.493659 7.251877 0.699639
v 0.823231 7.043352 0.365297
v 1.007574 7.184029 0.916573
v -0.099043 8.135829 -0.580991
v 0.093235 8.204312 -0.492286
v -0.235745 7.877316 -0.464470
v 0.047819 7.978320 -0.333659
v 0.150144 8.160906 -0.514713
v 0.226608 7.841960 -0.404123
v -0.657086 7.502534 -0.419972
v -0.004106 7.735115 -0.118738
v 0.407310 7.421325 -0.280881
v -0.060654 7.496945 0.174341
v -0.713632 7.264374 -0.126902
v 0.569450 7.016352 -0.073980
v -0.113216 7.300073 0.500959
v -0.527076 7.152671 0.310024
v 0.201996 7.059649 0.376739
v -0.153789 7.174465 0.811391
v -0.405477 7.084826 0.695271
v 0.105777 6.976484 0.709104
v -0.201651 7.053739 1.228693
v -0.066045 7.894595 -0.685390
v 0.068763 7.962436 -0.510925
v -0.257005 7.633361 -0.643494
v -0.058193 7.733418 -0.386207
v 0.130167 7.915374 -0.503244
v 0.134721 7.585575 -0.362081
v -0.677002 7.257713 -0.805546
v -0.219188 7.488111 -0.213068
v 0.224729 7.147901 -0.157546
v -0.422383 7.250039 0.029209
v -0.880191 7.019650 -0.563276
v 0.257494 6.728983 0.114250
v -0.636843 7.055451 0.303739
v -0.927000 6.909431 -0.071786
v -0.296734 6.794786 0.346285
v -0.829919 6.933966 0.568727
v -1.006375 6.845166 0.340349
v -0.549853 6.719316 0.603766
v -1.081650 6.820324 0.927797
v 0.064018 7.803347 -0.718604
v 0.014616 7.832050 -0.490823
v -0.099253 7.569637 -0.889067
v -0.172101 7.611976 -0.553145
v 0.046532 7.774113 -0.447367
v -0.071827 7.429960 -0.416619
v -0.251626 7.279067 -1.387687
v -0.419386 7.376555 -0.614139
v -0.188647 6.957705 -0.299975
v -0.748144 7.148658 -0.662520
v -0.580375 7.051176 -1.436065
v -0.394765 6.507159 -0.181362
v -1.108326 6.962977 -0.690923
v -1.001987 6.901196 -1.181199
v -0.931551 6.642062 -0.450222
v -1.445097 6.847783 -0.695024
v -1.380423 6.810213 -0.993185
v -1.299533 6.583520 -0.496815
v -1.894967 6.740838 -0.682459
v -0.490165 9.525897 -1.013446
v -0.480160 9.525042 -0.785021
v -0.314607 9.535625 -0.889574
v -0.413327 9.581261 -0.879031
v -0.437850 9.567692 -0.665826
v -0.194362 9.560922 -0.797328
v -0.356691 9.635962 -0.779991
v -0.459924 9.581571 -0.448662
v -0.041575 9.599639 -0.704236
v -0.297690 9.718039 -0.676879
v -0.351234 9.725892 -0.436381
v -0.245308 9.815001 -0.585392
v 0.010807 9.696594 -0.612752
v -0.253550 9.873354 -0.454704
v -0.194701 9.989016 -0.450971
v -0.207518 9.912076 -0.519461
v -0.096298 9.860660 -0.531343
v -0.180049 10.001343 -0.471583
v -0.104632 9.966478 -0.479639
v 0.198944 7.555738 -0.675241
v -0.011897 7.639524 -0.589662
v 0.197058 7.274091 -0.870963
v -0.113876 7.397664 -0.744751
v -0.038872 7.593298 -0.527905
v -0.198620 7.252444 -0.550728
v 0.459756 6.854288 -1.237841
v -0.256256 7.138839 -0.947211
v -0.457422 6.829164 -0.505339
v -0.456662 6.888098 -1.211918
v 0.259355 6.603556 -1.502541
v -0.775833 6.457866 -0.543442
v -0.684584 6.683616 -1.498575
v -0.230764 6.503275 -1.682769
v -0.836781 6.438641 -1.158590
v -0.905323 6.556520 -1.763541
v -0.629331 6.446849 -1.875554
v -1.028365 6.345677 -1.481867
v -1.204883 6.438808 -2.113347
v 0.117676 7.472756 -0.481611
v -0.062484 7.520544 -0.641791
v 0.335553 7.210343 -0.548756
v 0.069857 7.280828 -0.784975
v -0.123283 7.464636 -0.635617
v -0.121154 7.105190 -0.765575
v 0.842168 6.861303 -0.440581
v 0.230337 7.023605 -0.984545
v -0.209201 6.619431 -0.939905
v 0.421235 6.773115 -1.264956
v 1.033060 6.610823 -0.720984
v -0.251935 6.154096 -1.196599
v 0.613489 6.567495 -1.583521
v 1.001263 6.464636 -1.238743
v 0.276734 6.257823 -1.549330
v 0.777829 6.438046 -1.891740
v 1.013651 6.375495 -1.682060
v 0.500525 6.183041 -1.863588
v 0.983980 6.316172 -2.309782
v 0.018656 7.357729 -0.438049
v -0.004946 7.403664 -0.681329
v 0.230921 7.096756 -0.335174
v 0.196107 7.164508 -0.693950
v -0.053183 7.345911 -0.718251
v 0.044558 6.983077 -0.809947
v 0.537371 6.752509 0.097446
v 0.457209 6.908517 -0.728732
v 0.108479 6.491016 -0.995659
v 0.796490 6.660411 -0.802405
v 0.876642 6.504410 0.023774
v 0.262403 6.020979 -1.211221
v 1.162298 6.457963 -0.903755
v 1.213092 6.359093 -0.380116
v 0.895124 6.138081 -1.108268
v 1.498942 6.331991 -1.017350
v 1.529829 6.271864 -0.698899
v 1.278937 6.068577 -1.185763
v 1.944315 6.214587 -1.184227
v -0.028114 7.181446 -0.533216
v 0.043783 7.228785 -0.769721
v 0.137758 6.923491 -0.352443
v 0.243779 6.993311 -0.701231
v 0.015106 7.169092 -0.822725
v 0.153681 6.805789 -0.867755
v 0.264838 6.582080 0.173399
v 0.508989 6.742853 -0.629777
v 0.301666 6.311335 -1.012969
v 0.862093 6.503099 -0.564011
v 0.617932 6.342332 0.239163
v 0.544578 5.842196 -1.150887
v 1.249335 6.310544 -0.513943
v 1.094577 6.208654 -0.004889
v 1.090501 5.979922 -0.807532
v 1.611759 6.194509 -0.487200
v 1.517640 6.132545 -0.177620
v 1.480970 5.922251 -0.728960
v 2.094628 6.091036 -0.466820
v -0.132624 7.130997 -0.522753
v 0.092913 7.176053 -0.632090
v -0.157129 6.866752 -0.279189
v 0.175479 6.933208 -0.440442
v 0.111142 7.116154 -0.690791
v 0.232745 6.745029 -0.624863
v -0.465380 6.520576 0.172585
v 0.300542 6.673603 -0.198734
v 0.432321 6.240570 -0.623107
v 0.490669 6.422617 0.104228
v -0.275258 6.269596 0.475536
v 0.692501 5.759395 -0.545714
v 0.716915 6.218459 0.422318
v 0.231462 6.121478 0.657650
v 0.817886 5.886675 0.097186
v 0.944837 6.092213 0.707113
v 0.649606 6.033236 0.850226
v 1.027985 5.819000 0.439381
v 1.260816 5.975658 1.076800
v -0.099772 7.027359 -0.665937
v 0.123432 7.059519 -0.541309
v -0.327713 6.766663 -0.552360
v 0.001462 6.814099 -0.368571
v 0.179908 6.996878 -0.561974
v 0.178892 6.617311 -0.433497
v -0.896144 6.441474 -0.555285
v -0.138136 6.550701 -0.132055
v 0.270152 6.097856 -0.281454
v -0.290421 6.294090 0.194145
v -1.048425 6.184872 -0.229094
v 0.334888 5.600527 -0.034659
v -0.432211 6.083334 0.560367
v -0.912635 6.014115 0.292109
v -0.119399 5.736372 0.445912
v -0.541918 5.950519 0.910859
v -0.834086 5.908425 0.747715
v -0.284329 5.664806 0.816613
v -0.670537 5.824939 1.383831
v -0.087930 6.930952 -0.700980
v 0.087924 6.955637 -0.508142
v -0.356183 6.677364 -0.666021
v -0.096835 6.713777 -0.381640
v 0.146193 6.889246 -0.509752
v 0.086229 6.505206 -0.386698
v -0.917341 6.371413 -0.854292
v -0.320129 6.455256 -0.199419
v 0.098030 6.038281 -0.184892
v -0.584518 6.205604 0.065220
v -1.181710 6.121547 -0.589753
v 0.052878 5.628699 0.113120
v -0.849719 6.002194 0.371727
v -1.228225 5.949063 -0.043346
v -0.528788 5.671327 0.378133
v -1.075389 5.876628 0.673701
v -1.305574 5.844317 0.421272
v -0.809626 5.573812 0.666368
v -1.358927 5.760646 1.089385
v -0.169561 6.878202 -0.882699
v -0.129349 6.960237 -0.644058
v -0.373774 6.584283 -0.933159
v -0.314464 6.705273 -0.581226
v -0.072465 6.910008 -0.603340
v -0.135750 6.547482 -0.453306
v -0.694316 6.153564 -1.298620
v -0.557745 6.432165 -0.488196
v -0.145455 6.086176 -0.192349
v -0.878323 6.167098 -0.349611
v -1.014884 5.888507 -1.160039
v -0.244363 5.678417 0.107075
v -1.227392 5.950428 -0.186568
v -1.313939 5.773859 -0.700225
v -0.911933 5.678589 0.039520
v -1.551811 5.815139 -0.023890
v -1.604441 5.707759 -0.336271
v -1.292366 5.586042 0.161833
v -1.983603 5.688483 0.201643
v 0.094355 6.692508 -0.766765
v -0.024128 6.763115 -0.533656
v -0.045785 6.393699 -0.961321
v -0.220511 6.497836 -0.617540
v -0.001934 6.705066 -0.466792
v -0.150780 6.315474 -0.407477
v -0.083002 5.974302 -1.505994
v -0.485362 6.214097 -0.714347
v -0.335040 5.851387 -0.214820
v -0.844723 5.939538 -0.821348
v -0.442341 5.699711 -1.612999
v -0.623705 5.441652 -0.038981
v -1.243850 5.715841 -0.922275
v -0.988819 5.563867 -1.424021
v -1.125779 5.423206 -0.543467
v -1.622015 5.577179 -1.001742
v -1.466913 5.484758 -1.306876
v -1.520796 5.312410 -0.696774
v -2.128731 5.449173 -1.095477
v 0.186877 6.607806 -0.601753
v -0.080206 6.654943 -0.552563
v 0.284353 6.320405 -0.846501
v -0.109525 6.389933 -0.773950
v -0.115529 6.590323 -0.495942
v -0.220498 6.186927 -0.596057
v 0.738271 5.945892 -1.226650
v -0.168742 6.105989 -1.059590
v -0.449202 5.662988 -0.648483
v -0.278419 5.830267 -1.427861
v 0.628597 5.670181 -1.594911
v -0.740232 5.182833 -0.795982
v -0.421861 5.604747 -1.822698
v 0.153013 5.503287 -1.928567
v -0.630852 5.259656 -1.508145
v -0.577228 5.463757 -2.183990
v -0.227618 5.402057 -2.248370
v -0.738346 5.169019 -1.925740
v -0.801847 5.331559 -2.660285
v 0.053619 6.444917 -0.500849
v -0.163677 6.540727 -0.650123
v 0.246614 6.123199 -0.629938
v -0.066562 6.262942 -0.846174
v -0.239847 6.486073 -0.637966
v -0.277554 6.085165 -0.795134
v 0.774512 5.644409 -0.612637
v 0.061074 5.964535 -1.106712
v -0.414347 5.553268 -0.985408
v 0.179256 5.684050 -1.478946
v 0.908588 5.360519 -0.977404
v -0.639076 5.073539 -1.334579
v 0.307928 5.456043 -1.888999
v 0.775635 5.249820 -1.567692
v -0.113769 5.153274 -1.821418
v 0.427503 5.315224 -2.271930
v 0.711937 5.189809 -2.076524
v 0.080088 5.065936 -2.216488
v 0.580535 5.186650 -2.785229
v -0.008622 6.410608 -0.410114
v 0.000203 6.459653 -0.691298
v 0.217093 6.112151 -0.258038
v 0.230100 6.184490 -0.672713
v -0.049565 6.392872 -0.739526
v 0.073741 5.974695 -0.824228
v 0.501598 5.722974 0.284560
v 0.531559 5.889544 -0.670342
v 0.171760 5.406770 -1.018997
v 0.927766 5.602902 -0.700959
v 0.897793 5.436341 0.253944
v 0.376728 4.863499 -1.234943
v 1.358403 5.368203 -0.759902
v 1.339398 5.262641 -0.154678
v 1.082749 4.998309 -1.027031
v 1.757909 5.221178 -0.838198
v 1.746347 5.156982 -0.470132
v 1.530922 4.916582 -1.058171
v 2.287601 5.083159 -0.960098
v 0.039917 6.111673 -0.411689
v 0.258607 6.154906 -0.578554
v 0.070836 5.853341 -0.163312
v 0.393343 5.917108 -0.409402
v 0.265127 6.104771 -0.651050
v 0.413824 5.759604 -0.637165
v -0.156979 5.512088 0.369479
v 0.585687 5.658919 -0.197204
v 0.632820 5.296476 -0.721312
v 0.862509 5.401827 0.066958
v 0.119835 5.255002 0.633633
v 0.934703 4.846718 -0.735732
v 1.181665 5.184967 0.342867
v 0.710948 5.091914 0.702024
v 1.217785 4.907267 -0.058679
v 1.494567 5.041356 0.588519
v 1.208298 4.984767 0.806937
v 1.524314 4.812678 0.257862
v 1.922271 4.897279 0.906499
v -0.232161 6.198059 -0.547157
v 0.046389 6.228539 -0.593287
v -0.366251 5.909380 -0.274704
v 0.018477 5.954283 -0.344665
v 0.072636 6.154193 -0.650319
v 0.079081 5.722339 -0.521447
v -0.855560 5.557685 0.137106
v 0.036119 5.638980 -0.033929
v 0.241476 5.125941 -0.421271
v 0.152906 5.327843 0.364304
v -0.769258 5.274282 0.549275
v 0.578099 4.556123 -0.224161
v 0.314211 5.123137 0.820325
v -0.289690 5.075850 0.929008
v 0.528785 4.726571 0.518888
v 0.487392 5.004428 1.235533
v 0.107034 4.964778 1.294607
v 0.649312 4.665574 0.979396
v 0.701367 4.873101 1.759665
v -0.156609 6.149643 -0.663884
v 0.077893 6.184612 -0.500677
v -0.434687 5.839563 -0.542941
v -0.118646 5.913779 -0.304425
v 0.132606 6.111448 -0.518577
v 0.063909 5.690676 -0.353808
v -1.024134 5.367204 -0.569614
v -0.277032 5.623341 -0.027174
v 0.166273 5.198870 -0.065837
v -0.444896 5.343607 0.355245
v -1.267758 5.146006 -0.210651
v 0.292607 4.694462 0.304532
v -0.645095 5.090492 0.756672
v -1.186705 5.012035 0.397942
v -0.265116 4.755054 0.724112
v -0.808706 4.935861 1.148004
v -1.136420 4.894705 0.935359
v -0.509306 4.606422 1.076388
v -1.001170 4.803456 1.689046
v -0.114641 6.003719 -0.662270
v 0.018206 6.077709 -0.417825
v -0.402192 5.679516 -0.643452
v -0.190985 5.780418 -0.319746
v 0.093700 6.010884 -0.398835
v 0.048364 5.570025 -0.268785
v -1.010588 5.270926 -0.784557
v -0.457671 5.462414 -0.174631
v 0.085942 4.979781 -0.028689
v -0.794204 5.154116 0.032236
v -1.289453 4.930024 -0.708684
v 0.024104 4.417953 0.312877
v -1.160786 4.904887 0.315190
v -1.435456 4.743245 -0.256092
v -0.751554 4.536640 0.456093
v -1.492855 4.750813 0.596083
v -1.659684 4.652468 0.247822
v -1.155871 4.447573 0.712115
v -1.927670 4.608390 0.983669
v 0.109299 5.900196 -0.734413
v -0.029338 5.939244 -0.462142
v -0.040694 5.591983 -1.003346
v -0.245140 5.649581 -0.601810
v -0.003261 5.863648 -0.395948
v -0.163211 5.412093 -0.393848
v -0.067398 5.206985 -1.684510
v -0.538199 5.339608 -0.759871
v -0.349675 4.793110 -0.281324
v -0.938827 5.039334 -0.929145
v -0.468015 4.906720 -1.853778
v -0.650105 4.202333 -0.196231
v -1.386032 4.794471 -1.083862
v -1.087621 4.710424 -1.669897
v -1.241603 4.375753 -0.717221
v -1.811732 4.642299 -1.200469
v -1.630248 4.591187 -1.556864
v -1.692805 4.297497 -0.898554
v -2.383717 4.501382 -1.333058
v 0.211717 5.758156 -0.659722
v -0.061773 5.818316 -0.522964
v 0.234302 5.429324 -0.952408
v -0.169155 5.518356 -0.750690
v -0.083725 5.746508 -0.449529
v -0.245179 5.308558 -0.518669
v 0.599412 4.992399 -1.503041
v -0.338894 5.218060 -1.036829
v -0.545114 4.805222 -0.497120
v -0.587684 4.924296 -1.397236
v 0.358486 4.681075 -1.864894
v -0.905489 4.296392 -0.570291
v -0.863494 4.650137 -1.779667
v -0.266474 4.501965 -2.075569
v -1.021837 4.334579 -1.366108
v -1.140549 4.473579 -2.122894
v -0.782549 4.394832 -2.301900
v -1.250980 4.169082 -1.786050
v -1.537127 4.326602 -2.567806
v 0.195343 5.653498 -0.389191
v -0.029179 5.736624 -0.594647
v 0.455252 5.310062 -0.488638
v 0.121575 5.443625 -0.797064
v -0.111597 5.670762 -0.591365
v -0.142169 5.257371 -0.796993
v 1.077869 4.815464 -0.359019
v 0.304538 5.144278 -1.079806
v -0.308626 4.742495 -1.092952
v 0.531694 4.841263 -1.458276
v 1.308649 4.496885 -0.729753
v -0.405108 4.216108 -1.473563
v 0.773033 4.561101 -1.865127
v 1.263951 4.349339 -1.406603
v 0.302418 4.256843 -1.876988
v 0.986816 4.367876 -2.249052
v 1.282517 4.251308 -1.976255
v 0.604082 4.096745 -2.248615
v 1.253481 4.205193 -2.784685
v 0.162908 5.593372 -0.382186
v 0.139156 5.654921 -0.692070
v 0.377567 5.219566 -0.256127
v 0.339082 5.308111 -0.712059
v 0.063634 5.594320 -0.739818
v 0.091980 5.105979 -0.859193
v 0.695367 4.667495 0.280704
v 0.602698 4.935863 -0.754700
v 0.127815 4.454872 -1.146512
v 1.020353 4.618133 -0.864758
v 1.110722 4.330817 0.167960
v 0.303291 3.868781 -1.472000
v 1.473316 4.346869 -1.006216
v 1.527986 4.163064 -0.350865
v 1.117703 3.973986 -1.310952
v 1.897799 4.179252 -1.156473
v 1.926201 4.064334 -0.756421
v 1.607872 3.874079 -1.408314
v 2.467881 4.025952 -1.372353
v -0.135761 5.449777 -0.441045
v 0.114770 5.489180 -0.643710
v -0.106732 5.128722 -0.115272
v 0.266473 5.194940 -0.414182
v 0.117965 5.409254 -0.717914
v 0.286844 4.964008 -0.649234
v -0.375430 4.725286 0.554466
v 0.493741 4.897108 -0.135579
v 0.611245 4.512929 -0.692819
v 0.818824 4.607698 0.199271
v -0.062856 4.410350 0.891692
v 1.020036 4.065081 -0.659422
v 1.168221 4.321089 0.544408
v 0.615740 4.209133 0.981949
v 1.253466 4.016549 0.118878
v 1.515131 4.135901 0.842040
v 1.184391 4.078583 1.107580
v 1.544735 3.800183 0.500422
v 2.005258 3.980571 1.218203
v -0.210145 5.338593 -0.544561
v 0.110482 5.409559 -0.515496
v -0.385410 4.987000 -0.293354
v 0.087436 5.091669 -0.250499
v 0.172804 5.334919 -0.569249
v 0.283229 4.857183 -0.419378
v -1.009668 4.510900 -0.000529
v 0.079185 4.751919 0.098166
v 0.529732 4.212326 -0.290442
v 0.102031 4.423602 0.558226
v -0.986822 4.182595 0.459518
v 0.792068 3.597177 -0.036933
v 0.152494 4.156703 1.059643
v -0.537628 4.003957 0.997071
v 0.497690 3.743275 0.761918
v 0.222894 3.991854 1.526079
v -0.196804 3.898963 1.488021
v 0.507151 3.651409 1.280919
v 0.335587 3.839696 2.147241
v -0.087182 5.276048 -0.685741
v 0.099706 5.303457 -0.408531
v -0.434065 4.952477 -0.695684
v -0.158443 4.992911 -0.286874
v 0.173575 5.218218 -0.400891
v 0.073633 4.725124 -0.262877
v -1.110466 4.567232 -1.043529
v -0.475781 4.660333 -0.102128
v 0.058251 4.044112 -0.046905
v -0.860403 4.337674 0.179358
v -1.495076 4.244585 -0.762050
v -0.042516 3.393890 0.263944
v -1.253752 4.074057 0.514731
v -1.656004 4.015061 -0.081945
v -0.844605 3.601919 0.557050
v -1.595945 3.909614 0.852933
v -1.840570 3.873739 0.490062
v -1.259031 3.520824 0.887785
v -2.032499 3.755861 1.324502
v 0.009917 5.139374 -0.769352
v -0.013393 5.207155 -0.435685
v -0.254846 4.779368 -0.951888
v -0.289212 4.879341 -0.459812
v 0.043258 5.128615 -0.373626
v -0.111227 4.632606 -0.264843
v -0.572253 4.298688 -1.600445
v -0.651401 4.528890 -0.467310
v -0.241840 3.961109 -0.018659
v -1.128213 4.190052 -0.440147
v -1.049050 3.959861 -1.573282
v -0.500963 3.320456 0.246985
v -1.647058 3.914413 -0.382459
v -1.596875 3.768523 -1.100647
v -1.333280 3.479390 -0.038717
v -2.128946 3.743938 -0.303029
v -2.098422 3.655217 -0.739795
v -1.870566 3.385709 -0.019968
v -2.770070 3.586308 -0.176442
v 0.217870 5.039292 -0.584713
v -0.104975 5.097940 -0.470822
v 0.291977 4.676395 -0.907479
v -0.184136 4.762900 -0.739508
v -0.137452 5.016638 -0.393117
v -0.286163 4.507486 -0.495381
v 0.783246 4.204419 -1.468954
v -0.313136 4.403606 -1.082166
v -0.547917 3.815856 -0.520404
v -0.521321 4.054121 -1.517702
v 0.575067 3.854945 -1.904476
v -0.880906 3.153939 -0.657347
v -0.776996 3.767650 -1.979808
v -0.082096 3.641418 -2.224940
v -0.956885 3.317325 -1.549418
v -1.041239 3.587807 -2.398135
v -0.618634 3.511040 -2.547207
v -1.189374 3.216977 -2.043728
v -1.414458 3.418273 -2.945907
v 0.131714 4.922087 -0.333239
v -0.091546 4.999612 -0.594675
v 0.443284 4.537220 -0.390645
v 0.114024 4.651564 -0.776190
v -0.181398 4.922018 -0.598315
v -0.168266 4.407802 -0.787623
v 1.127853 4.014400 -0.144869
v 0.369653 4.277694 -1.032698
v -0.279930 3.716754 -1.059011
v 0.684262 3.912855 -1.398179
v 1.442453 3.649572 -0.510340
v -0.310599 3.053735 -1.438490
v 1.009957 3.612589 -1.816993
v 1.490496 3.445725 -1.254268
v 0.512277 3.182805 -1.837165
v 1.297152 3.422610 -2.225379
v 1.589389 3.321134 -1.883154
v 0.887333 3.068695 -2.241994
v 1.666874 3.241756 -2.784407
v -0.044641 4.837300 -0.278704
v 0.029439 4.905960 -0.622795
v 0.202450 4.459809 -0.046896
v 0.311688 4.561078 -0.554345
v -0.020520 4.823094 -0.695211
v 0.154729 4.300750 -0.781855
v 0.434617 3.958906 0.678348
v 0.686177 4.192090 -0.490189
v 0.325003 3.593032 -1.013719
v 1.185089 3.834791 -0.445123
v 0.933514 3.601619 0.723411
v 0.631946 2.917291 -1.246936
v 1.732468 3.543575 -0.426010
v 1.573009 3.395795 0.314613
v 1.455763 3.084586 -0.827121
v 2.244982 3.362778 -0.435758
v 2.148002 3.272907 0.014650
v 2.017131 2.984815 -0.766059
v 2.930187 3.194769 -0.470971
v 0.002049 4.795544 -0.578766
v 0.362163 4.813787 -0.634268
v -0.179124 4.453685 -0.237310
v 0.351954 4.480602 -0.319175
v 0.401147 4.718908 -0.702059
v 0.474429 4.182532 -0.532156
v -0.847336 4.061690 0.272255
v 0.375614 4.123664 0.083752
v 0.657446 3.437755 -0.406336
v 0.463516 3.777154 0.597606
v -0.759435 3.715192 0.786093
v 0.895159 2.726638 -0.152975
v 0.602280 3.493827 1.144156
v -0.172835 3.454561 1.263610
v 0.818214 2.968296 0.768682
v 0.770780 3.316816 1.640196
v 0.299393 3.292938 1.712837
v 0.948596 2.884058 1.331012
v 1.025050 3.151362 2.289230
v -0.172536 4.687869 -0.570229
v 0.157660 4.713384 -0.404719
v -0.518009 4.338104 -0.389796
v -0.031045 4.375745 -0.145721
v 0.231175 4.617750 -0.436642
v 0.199918 4.075306 -0.246019
v -1.364379 3.928183 -0.355910
v -0.243023 4.014848 0.206150
v 0.288451 3.323489 -0.024641
v -0.467236 3.666023 0.687403
v -1.588585 3.579370 0.125328
v 0.346736 2.607159 0.333948
v -0.669550 3.382375 1.224771
v -1.380263 3.327459 0.868515
v -0.262359 2.852668 1.047961
v -0.819165 3.207087 1.736445
v -1.251383 3.173692 1.519783
v -0.483859 2.770889 1.590854
v -0.987961 3.045524 2.424938
v -0.049836 4.521454 -0.733628
v 0.001973 4.605590 -0.372298
v -0.371361 4.118991 -0.857676
v -0.294944 4.243086 -0.324807
v 0.078277 4.521701 -0.316814
v -0.055216 3.979542 -0.150497
v -0.856264 3.569830 -1.465790
v -0.680308 3.855577 -0.238714
v -0.128667 3.249119 0.162398
v -1.180691 3.480968 -0.089037
v -1.356632 3.195232 -1.316117
v -0.335840 2.552133 0.525291
v -1.719915 3.176289 0.101436
v -1.831418 2.995194 -0.676298
v -1.297282 2.711629 0.408759
v -2.215889 2.987925 0.303707
v -2.283694 2.877795 -0.169273
v -1.867871 2.605292 0.556780
v -2.871837 2.813842 0.593334
v 0.215285 4.374219 -0.672923
v -0.050600 4.478754 -0.423963
v 0.120302 3.951802 -0.988911
v -0.271804 4.105980 -0.621751
v -0.053684 4.399113 -0.324170
v -0.281486 3.855784 -0.308230
v 0.325774 3.352163 -1.714116
v -0.577164 3.707184 -0.868639
v -0.599450 3.131442 -0.147189
v -1.001961 3.321084 -1.174010
v -0.099011 2.966075 -2.019477
v -1.036106 2.439292 -0.069081
v -1.481523 3.006458 -1.491373
v -0.909220 2.781458 -2.027229
v -1.498612 2.565332 -0.938631
v -1.942843 2.811206 -1.772412
v -1.594793 2.674374 -2.098289
v -1.956920 2.447952 -1.317251
v -2.566474 2.630729 -2.133485
vn -0.5297 0.7916 -0.3046
vn -0.4260 0.8611 -0.2775
vn -0.4897 0.8605 0.1403
vn -0.6192 0.7782 0.1053
vn -0.0221 0.7395 0.6728
vn 0.3904 0.6654 0.6363
vn 0.3821 0.6027 0.7005
vn -0.0275 0.6273 0.7783
vn -0.6541 0.7560 0.0247
vn -0.7368 0.5558 0.3851
vn -0.7944 0.5035 0.3398
vn -0.7509 0.6588 -0.0455
vn 0.1902 0.8945 -0.4046
vn 0.0340 0.6835 -0.7291
vn 0.1435 0.6258 -0.7666
vn 0.3137 0.8395 -0.4436
vn -0.4194 0.5021 0.7563
vn -0.0317 0.5192 0.8541
vn -0.0347 0.4785 0.8774
vn -0.4117 0.4446 0.7955
vn -0.3309 0.6965 0.6367
vn -0.6506 0.6621 0.3721
vn -0.6255 0.7151 0.3120
vn -0.2790 0.7985 0.5334
vn -0.5791 0.7860 0.2165
vn -0.5194 0.8473 0.1109
vn -0.1606 0.9402 0.3005
vn -0.2189 0.8830 0.4151
vn -0.3828 0.5575 0.7367
vn -0.3693 0.5959 0.7132
vn 0.0174 0.5733 0.8192
vn -0.0118 0.5189 0.8548
vn -0.7380 0.6370 0.2225
vn -0.5675 0.5838 0.5806
vn -0.5948 0.5466 0.5894
vn -0.7740 0.5826 0.2480
vn 0.8170 0.5593 -0.1404
vn 0.7890 0.5968 -0.1459
vn 0.6817 0.5114 -0.5232
vn 0.7284 0.4596 -0.5082
vn -0.4287 0.6078 0.6685
vn 0.3636 0.4981 0.7872
vn 0.7016 0.6954 -0.1552
vn 0.6396 0.7250 0.2556
vn 0.5742 0.7774 0.2567
vn 0.5843 0.7951 -0.1625
vn -0.0157 0.8360 0.5486
vn 0.4669 0.8467 0.2550
vn 0.4502 0.8773 -0.1662
vn 0.3506 0.9217 0.1662
vn 0.6579 0.7508 -0.0585
vn 0.7202 0.6927 0.0386
vn 0.4167 0.8658 0.2770
vn 0.3964 0.7407 0.5423
vn 0.0671 0.8550 0.5143
vn 0.0103 0.9139 0.4059
vn -0.2778 0.8942 0.3511
vn 0.3966 0.8095 0.4329
vn -0.0097 0.9047 0.4260
vn -0.4160 0.8192 0.3949
vn -0.4062 0.8532 0.3273
vn 0.7372 0.6279 0.2497
vn 0.5823 0.6035 -0.5447
vn -0.3815 0.7819 0.4930
vn -0.1113 0.6237 0.7737
vn -0.1772 0.5694 0.8027
vn -0.4865 0.6823 0.5457
vn 0.5110 0.6579 -0.5533
vn 0.4091 0.7222 -0.5577
vn -0.4270 0.7471 0.5095
vn 0.2776 0.9546 0.1082
vn 0.2933 0.7796 -0.5534
vn 0.3207 0.9325 -0.1660
vn 0.3445 0.9053 0.2487
vn 0.2728 0.9309 0.2430
vn 0.7354 0.6476 0.1994
vn 0.7950 0.5761 -0.1898
vn 0.8226 0.5394 -0.1799
vn 0.7795 0.5932 0.2011
vn -0.1439 0.5293 0.8361
vn -0.1208 0.5651 0.8162
vn 0.2462 0.4137 0.8765
vn 0.2041 0.3657 0.9081
vn 0.2049 0.6345 0.7453
vn 0.1526 0.7323 0.6636
vn 0.5323 0.6831 0.5000
vn 0.5664 0.5845 0.5810
vn 0.8259 0.4820 0.2924
vn 0.7956 0.5736 0.1948
vn -0.4304 0.6666 0.6086
vn 0.7675 0.6280 0.1287
vn 0.4809 0.7830 0.3945
vn 0.0962 0.9569 0.2739
vn -0.0217 0.9396 0.3415
vn 0.2512 0.6747 0.6940
vn 0.6093 0.5291 0.5906
vn 0.6059 0.4950 0.6228
vn 0.2591 0.6217 0.7391
vn 0.5748 0.5472 0.6084
vn 0.8356 0.4307 0.3410
vn -0.6815 0.5652 0.4648
vn 0.0731 0.6697 0.7390
vn 0.6227 0.6530 -0.4311
vn 0.6596 0.7511 -0.0281
vn 0.5947 0.8037 -0.0198
vn 0.5040 0.7512 -0.4262
vn -0.5900 0.8071 0.0214
vn -0.6097 0.6803 0.4068
vn -0.6704 0.6288 0.3940
vn -0.6980 0.7153 -0.0338
vn 0.1091 0.7262 0.6788
vn -0.1392 0.8169 0.5597
vn -0.1078 0.8837 0.4555
vn 0.3076 0.8147 0.4916
vn 0.2679 0.7359 0.6219
vn 0.3366 0.8682 0.3647
vn 0.6780 0.6287 0.3809
vn 0.6541 0.5721 0.4947
vn 0.1558 0.7926 0.5896
vn 0.3278 0.8714 0.3650
vn 0.2403 0.9291 0.2811
vn 0.4598 0.8852 -0.0706
vn 0.5585 0.8294 0.0119
vn -0.3734 0.9196 0.1221
vn 0.2033 0.8509 0.4844
vn -0.4815 0.8750 0.0507
vn 0.2271 0.6727 0.7042
vn 0.5891 0.5221 0.6167
vn 0.5863 0.4821 0.6510
vn 0.2379 0.6168 0.7503
vn 0.5699 0.5241 -0.6329
vn 0.5402 0.5603 -0.6279
vn 0.2579 0.4139 -0.8730
vn 0.3096 0.3651 -0.8780
vn -0.6137 0.6596 -0.4340
vn -0.5293 0.7564 -0.3843
vn -0.8198 0.5630 -0.1048
vn -0.8698 0.4160 0.2655
vn -0.6712 0.6704 0.3164
vn -0.7099 0.6988 -0.0877
vn -0.6471 0.7545 -0.1090
vn -0.5586 0.7694 0.3099
vn 0.6281 0.7378 0.2472
vn 0.8539 0.5195 -0.0326
vn 0.8831 0.4678 0.0353
vn 0.6795 0.6415 0.3560
vn -0.5392 0.8367 0.0958
vn 0.1193 0.7852 0.6076
vn -0.0759 0.9135 0.3997
vn 0.1912 0.7264 0.6602
vn 0.1038 0.6688 0.7362
vn -0.1758 0.8584 0.4818
vn -0.6503 0.6187 0.4409
vn 0.3979 0.8440 -0.3597
vn 0.3536 0.9029 -0.2443
vn -0.0476 0.9352 -0.3509
vn -0.0078 0.8814 -0.4723
vn -0.2756 0.9589 -0.0675
vn -0.5471 0.6761 0.4936
vn -0.4251 0.8913 0.1575
vn -0.2760 0.9335 -0.2289
vn -0.2149 0.9579 -0.1903
vn 0.2300 0.5800 0.7815
vn -0.6164 0.5513 -0.5622
vn -0.6029 0.5892 -0.5379
vn -0.8306 0.5132 -0.2160
vn -0.8485 0.4606 -0.2605
vn 0.4336 0.6500 -0.6242
vn 0.3864 0.7480 -0.5397
vn 0.0431 0.6535 -0.7557
vn 0.1002 0.5565 -0.8248
vn -0.2727 0.4142 -0.8684
vn -0.3447 0.5030 -0.7926
vn 0.5954 0.6682 -0.4461
vn 0.6835 0.7283 -0.0494
vn 0.6208 0.7835 -0.0260
vn 0.4781 0.7680 -0.4261
vn -0.5823 0.7492 -0.3156
vn -0.8347 0.5488 -0.0453
vn -0.8610 0.4958 -0.1133
vn -0.6295 0.6508 -0.4244
vn -0.0926 0.8346 -0.5430
vn -0.3885 0.5563 -0.7346
vn -0.0243 0.7523 -0.6584
vn -0.1530 0.7641 -0.6267
vn -0.0867 0.8348 -0.5436
vn -0.4043 0.8746 -0.2676
vn -0.4860 0.7905 -0.3726
vn 0.3291 0.9096 -0.2537
vn 0.3087 0.7180 -0.6239
vn 0.4242 0.6601 -0.6200
vn 0.4582 0.8542 -0.2456
vn -0.4422 0.6205 -0.6477
vn -0.0727 0.9389 0.3365
vn 0.0763 0.9562 -0.2828
vn -0.4925 0.6793 -0.5441
vn -0.1519 0.8907 -0.4284
vn 0.2371 0.9287 -0.2853
vn 0.1998 0.9540 -0.2236
vn -0.6346 0.6634 0.3964
vn -0.4143 0.5734 0.7068
vn -0.4330 0.5215 0.7352
vn -0.6731 0.6044 0.4261
vn 0.3512 0.4399 0.8265
vn 0.7021 0.6569 -0.2749
vn 0.6145 0.7541 -0.2319
vn 0.4531 0.6564 -0.6032
vn 0.1547 0.5017 -0.8511
vn 0.7334 0.6430 0.2206
vn 0.4335 0.7596 0.4849
vn 0.3897 0.8115 0.4354
vn 0.6617 0.7394 0.1240
vn -0.5154 0.7653 0.3857
vn -0.3697 0.5739 0.7307
vn -0.4430 0.5214 0.7293
vn -0.6348 0.6679 0.3885
vn 0.2192 0.8352 -0.5043
vn 0.0853 0.5543 -0.8279
vn 0.3416 0.7541 -0.5610
vn 0.4674 0.7869 -0.4030
vn 0.4014 0.8582 -0.3201
vn 0.0397 0.8419 -0.5381
vn 0.1232 0.7574 -0.6413
vn 0.4723 0.8702 0.1402
vn 0.7732 0.6337 -0.0262
vn 0.8128 0.5766 0.0828
vn 0.5144 0.8162 0.2632
vn -0.0086 0.6175 -0.7865
vn 0.2450 0.9302 -0.2732
vn 0.1646 0.9713 -0.1717
vn -0.1990 0.9095 -0.3648
vn -0.1212 0.8712 -0.4757
vn 0.2112 0.9579 -0.1945
vn -0.1092 0.6753 -0.7294
vn 0.1052 0.8903 -0.4430
vn 0.3460 0.9322 -0.1060
vn 0.2801 0.9569 -0.0762
vn 0.7815 0.5738 0.2449
vn 0.8077 0.5525 -0.2059
vn 0.7791 0.5877 -0.2181
vn 0.6859 0.4401 -0.5796
vn 0.7332 0.3928 -0.5552
vn 0.7037 0.6445 0.2989
vn 0.6121 0.7432 0.2701
vn 0.7533 0.6484 -0.1101
vn 0.8319 0.5507 -0.0685
vn 0.7978 0.4094 -0.4427
vn 0.7095 0.4989 -0.4977
vn -0.2726 0.6793 0.6814
vn -0.5680 0.7240 0.3915
vn -0.5295 0.7774 0.3394
vn -0.1958 0.7803 0.5940
vn 0.5918 0.7724 -0.2307
vn 0.5256 0.5962 -0.6069
vn 0.5965 0.5427 -0.5914
vn 0.7084 0.6736 -0.2109
vn 0.5188 0.8313 -0.1995
vn 0.6441 0.5528 -0.5287
vn 0.6450 0.7480 -0.1562
vn 0.5732 0.7976 0.1878
vn 0.4663 0.8668 0.1768
vn -0.3221 0.9375 0.1319
vn -0.2320 0.8211 0.5216
vn -0.3450 0.7596 0.5514
vn -0.4497 0.8790 0.1587
vn 0.5488 0.6176 -0.5634
vn 0.5255 0.8506 0.0201
vn 0.4080 0.9113 0.0550
vn 0.2370 0.9164 -0.3224
vn 0.3598 0.8591 -0.3639
vn 0.2990 0.9541 0.0190
vn 0.4375 0.6772 -0.5916
vn 0.3949 0.8884 -0.2341
vn 0.3340 0.9260 0.1760
vn 0.2663 0.9519 0.1519
vn -0.6224 0.6254 0.4706
vn -0.3333 0.5797 0.7435
vn -0.3549 0.5421 0.7617
vn -0.6457 0.5705 0.5075
vn -0.6640 0.5403 0.5169
vn -0.6345 0.5769 0.5144
vn -0.3884 0.4489 0.8047
vn -0.4395 0.3992 0.8046
vn 0.4984 0.6631 0.5584
vn 0.7809 0.5482 0.2993
vn 0.9221 0.3849 -0.0392
vn 0.8721 0.4708 -0.1337
vn 0.6634 0.6629 0.3470
vn 0.3221 0.7595 0.5652
vn 0.2843 0.8113 0.5109
vn 0.6032 0.7596 0.2431
vn -0.0315 0.8080 -0.5884
vn -0.3609 0.5856 -0.7259
vn -0.3052 0.5429 -0.7824
vn 0.0571 0.7265 -0.6848
vn 0.5725 0.8196 0.0222
vn 0.8302 0.5225 -0.1945
vn -0.4729 0.8085 -0.3503
vn -0.3808 0.8767 -0.2940
vn 0.7637 0.5849 -0.2733
vn 0.2793 0.9544 0.1055
vn 0.6800 0.6424 -0.3535
vn 0.4806 0.8742 -0.0694
vn 0.2361 0.9358 0.2618
vn 0.1882 0.9599 0.2076
vn 0.4776 0.6502 -0.5908
vn 0.1593 0.5573 -0.8149
vn 0.1820 0.5208 -0.8340
vn 0.5012 0.5955 -0.6279
vn 0.3543 0.5395 0.7638
vn 0.3592 0.5759 0.7344
vn 0.6973 0.4439 0.5628
vn 0.6848 0.3946 0.6126
vn 0.2117 0.6668 0.7145
vn 0.1865 0.7629 0.6190
vn 0.5704 0.6411 0.5134
vn 0.5777 0.5470 0.6058
vn 0.8508 0.3785 0.3644
vn 0.8480 0.4636 0.2568
vn 0.0834 0.6547 -0.7513
vn 0.4194 0.7428 -0.5218
vn 0.3858 0.7960 -0.4664
vn 0.0139 0.7543 -0.6564
vn 0.6220 0.5108 0.5934
vn 0.5922 0.4600 0.6616
vn 0.2229 0.6409 0.7346
vn 0.8375 0.5148 0.1833
vn 0.5492 0.7368 0.3944
vn -0.2828 0.8360 -0.4703
vn -0.6720 0.6654 -0.3250
vn -0.3445 0.7395 -0.5783
vn -0.0144 0.8951 -0.4456
vn -0.3226 0.9315 -0.1682
vn 0.2157 0.9538 0.2089
vn 0.1084 0.9375 0.3308
vn 0.0892 0.9613 0.2608
vn -0.2002 0.6554 -0.7283
vn -0.5682 0.5579 -0.6049
vn -0.5698 0.5217 -0.6349
vn -0.2156 0.6009 -0.7697
vn 0.7123 0.5316 0.4583
vn 0.7024 0.5675 0.4296
vn 0.9002 0.4206 0.1126
vn 0.9137 0.3722 0.1632
vn -0.1878 0.6702 0.7181
vn -0.1585 0.7657 0.6234
vn 0.1799 0.5473 0.8174
vn 0.5375 0.3756 0.7550
vn -0.5639 0.7655 0.3098
vn -0.4840 0.8430 0.2348
vn -0.1650 0.8212 0.5463
vn -0.2782 0.7536 0.5955
vn -0.4307 0.8866 -0.1686
vn -0.7129 0.6974 0.0738
vn -0.7747 0.6321 -0.0192
vn -0.4971 0.8229 -0.2751
vn 0.3181 0.8793 0.3543
vn 0.0827 0.9538 0.2887
vn -0.0522 0.9623 0.2668
vn 0.4787 0.6279 -0.6136
vn 0.1215 0.5947 -0.7947
vn 0.1333 0.5580 -0.8190
vn 0.4842 0.5743 -0.6601
vn -0.4429 0.6654 0.6009
vn -0.3896 0.7616 0.5179
vn -0.0584 0.6601 0.7489
vn 0.3236 0.5002 0.8032
vn 0.3609 0.8325 -0.4204
vn 0.3167 0.8759 -0.3639
vn 0.0909 0.8361 0.5410
vn 0.3712 0.5519 0.7468
vn 0.0156 0.7564 0.6539
vn -0.2093 0.7582 -0.6175
vn -0.1588 0.8342 -0.5282
vn -0.5596 0.7325 -0.3877
vn -0.0550 0.5022 -0.8630
vn 0.0002 0.6078 -0.7941
vn -0.3968 0.6273 -0.6701
vn 0.4301 0.6139 0.6619
vn -0.5084 0.8572 0.0820
vn -0.4007 0.9159 0.0235
vn -0.1548 0.9203 0.3594
vn -0.2648 0.8645 0.4272
vn -0.0637 0.9599 0.2730
vn 0.4862 0.6706 0.5602
vn 0.1563 0.8898 0.4287
vn -0.2252 0.9365 0.2688
vn -0.1845 0.9604 0.2088
vn -0.2886 0.5979 -0.7478
vn -0.6372 0.5233 -0.5658
vn -0.6438 0.4848 -0.5920
vn -0.3109 0.5407 -0.7816
vn 0.7937 0.5127 0.3274
vn 0.9413 0.3373 0.0103
vn -0.6568 0.7348 0.1694
vn -0.2747 0.4781 0.8342
vn 0.0631 0.6639 0.7451
vn -0.3352 0.7009 0.6296
vn -0.3272 0.7561 0.5669
vn 0.0869 0.7683 0.6342
vn -0.5714 0.7971 0.1954
vn -0.4334 0.6936 0.5755
vn -0.5033 0.6365 0.5845
vn -0.6881 0.6946 0.2098
vn -0.1202 0.8943 -0.4311
vn -0.4596 0.6889 -0.5606
vn -0.4062 0.6295 -0.6624
vn -0.0575 0.8374 -0.5435
vn -0.0217 0.6882 0.7252
vn -0.4822 0.8753 -0.0356
vn -0.3593 0.9321 -0.0462
vn -0.2523 0.9002 0.3549
vn -0.3808 0.8458 0.3736
vn -0.2670 0.9577 0.1073
vn 0.0746 0.7463 0.6615
vn -0.3368 0.9415 -0.0094
vn -0.6995 0.6684 -0.2528
vn -0.8263 0.5527 0.1087
vn -0.8510 0.5174 0.0899
vn -0.7416 0.6147 -0.2686
vn 0.8562 0.5141 -0.0518
vn 0.8377 0.3597 -0.4109
vn -0.7435 0.6654 -0.0669
vn -0.6352 0.7664 -0.0960
vn -0.6129 0.7216 0.3218
vn -0.7752 0.6223 -0.1091
vn -0.6531 0.7046 0.2776
vn -0.7340 0.6137 0.2910
vn -0.6671 0.7163 0.2046
vn -0.5852 0.5663 0.5804
vn -0.7552 0.6174 0.2200
vn -0.6726 0.7068 0.2193
vn -0.4857 0.6471 0.5877
vn -0.5851 0.5546 0.5917
vn 0.1995 0.6332 0.7478
vn -0.1671 0.7746 0.6100
vn -0.1411 0.8246 0.5478
vn 0.2566 0.7256 0.6385
vn -0.4599 0.8717 0.1693
vn -0.4523 0.6817 0.5751
vn -0.5893 0.7848 0.1916
vn -0.5897 0.8072 -0.0252
vn -0.3807 0.9155 0.1302
vn -0.4331 0.7371 0.5187
vn -0.5509 0.6744 0.4916
vn -0.5092 0.8523 0.1196
vn -0.4446 0.6920 0.5687
vn -0.1980 0.8804 0.4309
vn -0.1405 0.9366 0.3209
vn 0.2510 0.8686 0.4273
vn 0.2039 0.8109 0.5484
vn -0.3197 0.9357 -0.1493
vn -0.3199 0.9381 0.1326
vn -0.4051 0.8736 -0.2698
vn -0.3341 0.9008 -0.2773
vn 0.7140 0.6802 0.1658
vn 0.7598 0.6273 0.1710
vn 0.8719 0.3365 0.3557
vn 0.8640 0.2916 0.4104
vn -0.5501 0.6619 -0.5092
vn -0.4746 0.7585 -0.4467
vn -0.7418 0.6549 -0.1445
vn -0.8007 0.5595 -0.2143
vn -0.9021 0.4072 0.1431
vn -0.8389 0.4940 0.2285
vn 0.0366 0.7320 0.6803
vn -0.3544 0.8071 0.4723
vn -0.3127 0.8528 0.4184
vn 0.0553 0.8302 0.5547
vn -0.4681 0.7954 0.3850
vn -0.2348 0.6723 0.7021
vn -0.2940 0.6196 0.7278
vn -0.5796 0.6993 0.4184
vn -0.5539 0.8321 0.0280
vn -0.7887 0.5461 0.2824
vn -0.6567 0.7518 -0.0599
vn 0.4881 0.8728 -0.0071
vn 0.3705 0.8330 -0.4110
vn 0.4880 0.8726 0.0224
vn 0.7374 0.6394 -0.2175
vn 0.8040 0.5819 -0.1228
vn 0.5604 0.8180 0.1300
vn -0.7117 0.6087 0.3507
vn 0.1945 0.8851 0.4229
vn 0.1656 0.9389 0.3016
vn 0.5250 0.8433 0.1147
vn 0.5634 0.7907 0.2394
vn -0.2707 0.9580 -0.0943
vn -0.6176 0.6660 0.4184
vn -0.4503 0.8866 0.1061
vn -0.2475 0.9349 -0.2543
vn -0.1928 0.9592 -0.2069
vn -0.8175 0.5236 -0.2396
vn -0.5847 0.6078 -0.5373
vn -0.6643 0.5178 -0.5391
vn -0.6581 0.5541 -0.5098
vn -0.8876 0.4074 -0.2149
vn -0.8948 0.3584 -0.2661
vn -0.2408 0.7015 -0.6707
vn -0.6076 0.6263 -0.4885
vn -0.8744 0.4076 -0.2633
vn -0.8472 0.5036 -0.1692
vn 0.5506 0.7965 0.2499
vn -0.8206 0.5617 -0.1055
vn -0.0995 0.8895 0.4459
vn 0.3088 0.8020 0.5113
vn -0.4342 0.5192 -0.7362
vn -0.1851 0.9393 -0.2887
vn -0.1021 0.9000 -0.4237
vn -0.0694 0.9298 -0.3614
vn -0.2073 0.6808 0.7025
vn 0.1466 0.5420 0.8275
vn 0.1257 0.5079 0.8522
vn -0.2262 0.6281 0.7445
vn -0.1996 0.5141 0.8342
vn -0.1721 0.5487 0.8181
vn 0.1749 0.3701 0.9124
vn 0.1265 0.3243 0.9375
vn 0.4247 0.7481 -0.5098
vn 0.0976 0.6543 -0.7499
vn -0.2097 0.4155 -0.8851
vn -0.2868 0.5043 -0.8145
vn -0.2044 0.6314 0.7480
vn -0.4591 0.7673 0.4478
vn -0.4069 0.8181 0.4063
vn -0.1028 0.7256 0.6804
vn -0.4402 0.8087 -0.3901
vn -0.7037 0.7040 -0.0956
vn -0.7444 0.6515 -0.1463
vn -0.4973 0.7120 -0.4958
vn -0.0528 0.8353 -0.5472
vn -0.3346 0.5576 -0.7597
vn 0.0235 0.7531 -0.6575
vn -0.5447 0.8156 -0.1952
vn -0.4427 0.8827 -0.1575
vn -0.5098 0.8215 0.2553
vn -0.6371 0.7423 0.2075
vn 0.2431 0.8887 -0.3888
vn 0.1288 0.6736 -0.7277
vn 0.2421 0.6153 -0.7502
vn -0.3943 0.6217 -0.6768
vn 0.0972 0.9564 -0.2754
vn -0.4518 0.6804 -0.5770
vn -0.1200 0.8914 -0.4371
vn 0.2578 0.9287 -0.2665
vn 0.2162 0.9540 -0.2076
vn 0.5146 0.6567 -0.5513
vn 0.1825 0.6058 -0.7744
vn 0.2080 0.5697 -0.7951
vn 0.5336 0.6017 -0.5943
vn 0.0334 0.4827 0.8751
vn -0.0072 0.4309 0.9024
vn 0.4279 0.7485 -0.5066
vn 0.1320 0.6430 -0.7545
vn -0.2156 0.4696 -0.8562
vn -0.7311 0.6788 0.0686
vn -0.5932 0.7389 -0.3197
vn -0.4637 0.8482 0.2559
vn -0.1124 0.8643 0.4902
vn -0.4308 0.6351 -0.6412
vn 0.3294 0.8662 -0.3759
vn 0.2636 0.9253 -0.2728
vn 0.0023 0.9824 -0.1868
vn -0.4988 0.6780 -0.5399
vn 0.1178 0.9865 -0.1134
vn 0.7453 0.5895 0.3115
vn 0.1215 0.5200 -0.8455
vn -0.2332 0.3648 -0.9014
vn 0.6384 0.7451 0.1933
vn 0.6949 0.4529 -0.5586
vn -0.6552 0.7552 -0.0181
vn 0.2038 0.4909 0.8471
vn 0.1403 0.4407 0.8866
vn -0.0355 0.9213 0.3871
vn 0.2911 0.7554 0.5871
vn 0.2254 0.6963 0.6815
vn -0.3220 0.8845 0.3377
vn -0.2260 0.9392 0.2586
vn 0.0987 0.8570 0.5058
vn 0.0036 0.8038 0.5949
vn 0.2805 0.9597 0.0160
vn 0.3444 0.9247 0.1620
vn 0.2730 0.9499 0.1523
vn 0.7433 0.6565 -0.1282
vn 0.6517 0.5644 -0.5067
vn 0.6817 0.5281 -0.5063
vn 0.7858 0.6022 -0.1408
vn 0.7410 0.4028 -0.5374
vn 0.3841 0.6631 0.6424
vn 0.3348 0.7597 0.5574
vn 0.7108 0.5467 0.4426
vn 0.9138 0.3821 0.1379
vn 0.1251 0.6369 0.7607
vn -0.2445 0.7545 0.6091
vn -0.2195 0.8068 0.5485
vn 0.1801 0.7342 0.6546
vn 0.3910 0.8152 0.4273
vn 0.3170 0.8789 0.3563
vn 0.5450 0.8384 0.0019
vn 0.6395 0.7633 0.0919
vn 0.3342 0.9054 0.2619
vn 0.6884 0.7054 0.1687
vn 0.7068 0.6483 0.2832
vn 0.3513 0.8509 0.3905
vn -0.4661 0.8840 -0.0352
vn -0.3426 0.9392 -0.0231
vn -0.2961 0.8739 0.3855
vn -0.4262 0.8206 0.3807
vn 0.2571 0.9539 0.1552
vn 0.1846 0.9358 0.3003
vn 0.1480 0.9600 0.2378
vn 0.4545 0.5952 -0.6627
vn 0.7178 0.5113 0.4726
vn 0.9230 0.3346 0.1902
vn -0.3433 0.5998 0.7228
vn 0.0415 0.5619 0.8262
vn 0.4294 0.4764 0.7673
vn 0.4647 0.5723 0.6757
vn 0.3016 0.8115 0.5004
vn -0.6264 0.7408 -0.2426
vn 0.1093 0.8559 0.5055
vn 0.4831 0.6295 0.6086
vn 0.5860 0.8059 -0.0845
vn 0.4818 0.8744 -0.0574
vn 0.4444 0.7584 -0.4768
vn -0.3181 0.9300 -0.1841
vn -0.6105 0.7874 0.0855
vn -0.6871 0.7266 -0.0033
vn -0.4047 0.8710 -0.2783
vn 0.5017 0.6980 0.5111
vn -0.5424 0.8400 -0.0133
vn -0.4304 0.9006 -0.0609
vn -0.2286 0.9260 0.3003
vn -0.3440 0.8682 0.3575
vn -0.1388 0.9435 0.3008
vn 0.5135 0.7601 0.3983
vn 0.1270 0.9164 0.3796
vn -0.2873 0.8931 0.3460
vn -0.2718 0.9217 0.2769
vn -0.4667 0.6116 0.6388
vn 0.1624 0.5122 0.8433
vn 0.5050 0.3290 0.7979
vn 0.6898 0.6811 -0.2455
vn 0.6142 0.7742 0.1533
vn 0.5475 0.8243 0.1442
vn 0.5704 0.7750 -0.2719
vn 0.2187 0.8411 0.4946
vn 0.1878 0.9041 0.3838
vn 0.5533 0.8150 0.1719
vn 0.5842 0.7506 0.3087
vn -0.2182 0.8614 -0.4586
vn -0.1489 0.9214 -0.3589
vn -0.4411 0.8945 -0.0732
vn -0.5265 0.8335 -0.1677
vn 0.4065 0.6091 0.6810
vn -0.8404 0.5269 -0.1270
vn -0.9024 0.3675 0.2249
vn 0.1110 0.5755 0.8102
vn -0.6392 0.6858 -0.3480
vn -0.3002 0.7629 -0.5726
vn -0.2569 0.8127 -0.5229
vn -0.5770 0.7788 -0.2462
vn 0.1608 0.6306 0.7593
vn -0.3472 0.8226 0.4503
vn -0.2735 0.8881 0.3694
vn 0.0862 0.8117 0.5776
vn -0.0062 0.7344 0.6787
vn 0.3240 0.9186 -0.2261
vn -0.0358 0.8999 -0.4346
vn -0.2317 0.9536 0.1921
vn -0.3856 0.9083 0.1623
vn -0.3385 0.9347 0.1085
vn -0.4610 0.6776 0.5730
vn -0.4925 0.6246 0.6061
vn 0.0164 0.5282 0.8490
vn 0.0490 0.5532 0.8316
vn 0.3930 0.3568 0.8475
vn 0.3554 0.3155 0.8799
vn -0.7392 0.6705 -0.0633
vn -0.6406 0.7661 -0.0530
vn -0.6808 0.6467 0.3439
vn -0.7702 0.5529 0.3180
vn -0.6442 0.3856 0.6606
vn -0.5423 0.4703 0.6962
vn -0.7465 0.6468 0.1559
vn -0.6069 0.7642 -0.2184
vn 0.4876 0.8395 0.2399
vn 0.7037 0.7058 -0.0818
vn 0.7522 0.6577 -0.0406
vn 0.5626 0.7537 0.3399
vn -0.4697 0.5212 0.7126
vn -0.5616 0.7418 0.3665
vn 0.3540 0.8008 -0.4831
vn 0.3000 0.8703 -0.3906
vn 0.3040 0.9026 -0.3048
vn 0.2925 0.6890 -0.6631
vn 0.4097 0.6350 -0.6550
vn 0.4346 0.8518 -0.2925
vn -0.3667 0.5826 0.7253
vn -0.2674 0.9560 0.1209
vn -0.2504 0.6389 0.7274
vn -0.2703 0.9627 -0.0158
vn -0.2818 0.6571 0.6991
vn 0.0755 0.5414 0.8373
vn 0.0561 0.5057 0.8609
vn -0.2987 0.6027 0.7399
vn -0.7985 0.5601 0.2206
vn -0.7718 0.5980 0.2163
vn -0.6043 0.5479 0.5786
vn -0.6516 0.4946 0.5752
vn 0.0846 0.7471 -0.6594
vn 0.1371 0.8192 -0.5569
vn -0.2217 0.9047 -0.3639
vn 0.0339 0.6666 -0.7446
vn -0.5674 0.8096 -0.1504
vn 0.1654 0.8532 -0.4947
vn 0.3643 0.6724 0.6443
vn -0.0441 0.7526 0.6570
vn -0.0509 0.8047 0.5915
vn 0.3621 0.7701 0.5251
vn -0.2773 0.7583 0.5900
vn 0.0163 0.5833 0.8121
vn -0.0419 0.5230 0.8513
vn -0.3962 0.6587 0.6397
vn -0.6997 0.6027 -0.3835
vn -0.7309 0.4981 -0.4665
vn 0.5553 0.8063 -0.2036
vn 0.4578 0.8750 -0.1577
vn 0.3490 0.8536 0.3867
vn 0.6773 0.5991 0.4271
vn 0.6430 0.5441 0.5391
vn -0.1901 0.9420 0.2765
vn 0.1673 0.8639 0.4750
vn -0.4442 0.4786 -0.7574
vn -0.0827 0.4446 -0.8919
vn -0.7990 0.5177 0.3059
vn -0.7841 0.6169 -0.0680
vn 0.1594 0.6110 -0.7754
vn -0.1674 0.4279 -0.8882
vn -0.2618 0.6126 -0.7458
vn -0.1954 0.7108 -0.6757
vn -0.5546 0.6892 -0.4663
vn -0.5280 0.7022 -0.4776
vn -0.7626 0.6316 -0.1398
vn -0.8104 0.5403 -0.2266
vn -0.3508 0.8790 -0.3229
vn -0.7125 0.6906 -0.1238
vn -0.4321 0.7955 -0.4248
vn -0.4179 0.8908 -0.1786
vn -0.7369 0.6760 0.0057
vn -0.7797 0.6174 -0.1040
vn -0.4758 0.8300 -0.2911
vn -0.4498 0.8219 -0.3496
vn -0.7333 0.6761 -0.0719
vn -0.7902 0.5933 -0.1536
vn -0.0536 0.9426 0.3296
vn -0.0816 0.9483 -0.3067
vn -0.6086 0.7873 0.0993
vn 0.0263 0.9218 -0.3868
vn 0.2884 0.5199 -0.8041
vn 0.2655 0.5572 -0.7868
vn -0.1003 0.4328 -0.8959
vn -0.0580 0.3819 -0.9224
vn 0.4683 0.6442 -0.6047
vn 0.1414 0.5569 -0.8185
vn -0.2318 0.4209 -0.8770
vn -0.3052 0.5108 -0.8037
vn 0.6855 0.6637 -0.2993
vn 0.6484 0.7539 0.1056
vn 0.5828 0.8061 0.1030
vn 0.5671 0.7614 -0.3141
vn 0.8272 0.5596 -0.0514
vn 0.8615 0.5076 0.0138
vn -0.3503 0.5647 -0.7473
vn -0.3105 0.8297 0.4639
vn 0.1032 0.9555 -0.2765
vn 0.2242 0.9511 -0.2126
vn -0.7449 0.6529 0.1374
vn -0.7861 0.5986 0.1541
vn -0.8417 0.4111 -0.3501
vn -0.8409 0.3623 -0.4021
vn 0.6494 0.7536 -0.1017
vn 0.5617 0.6607 -0.4980
vn 0.4211 0.4219 -0.8029
vn 0.3159 0.5099 -0.8002
vn -0.5703 0.6829 0.4565
vn -0.6961 0.7154 0.0609
vn -0.6385 0.7690 0.0316
vn -0.4631 0.7844 0.4126
vn 0.6013 0.4847 0.6353
vn 0.5644 0.4355 0.7012
vn 0.2435 0.5626 -0.7901
vn 0.6288 0.7773 -0.0198
vn 0.5267 0.8500 0.0131
vn 0.3641 0.8531 -0.3737
vn 0.4916 0.7679 -0.4106
vn 0.3450 0.8647 0.3650
vn 0.2588 0.9249 0.2786
vn 0.4840 0.8730 -0.0593
vn 0.5849 0.8109 0.0186
vn 0.2470 0.9589 -0.1397
vn 0.3622 0.9317 -0.0274
vn 0.2920 0.9564 -0.0104
vn 0.3792 0.6632 0.6453
vn 0.4055 0.6092 0.6815
vn 0.0320 0.5234 0.8515
vn 0.4078 0.4229 0.8093
vn 0.5850 0.5247 -0.6184
vn -0.5532 0.6542 -0.5157
vn -0.1671 0.7528 -0.6367
vn -0.1453 0.8052 -0.5749
vn -0.5234 0.7521 -0.4005
vn 0.5127 0.5751 -0.6375
vn -0.3535 0.8131 0.4624
vn -0.2939 0.8806 0.3718
vn -0.1103 0.8740 -0.4732
vn -0.0711 0.9316 -0.3566
vn -0.4317 0.8889 -0.1530
vn -0.4803 0.8336 -0.2729
vn 0.2516 0.9670 -0.0389
vn 0.3153 0.9427 0.1095
vn 0.2432 0.9651 0.0977
vn 0.1630 0.5201 -0.8384
vn 0.4898 0.5893 -0.6425
vn 0.4418 0.3786 0.8133
vn 0.4059 0.3307 0.8520
vn 0.6080 0.6205 0.4953
vn 0.2321 0.7691 0.5955
vn 0.2184 0.8195 0.5298
vn 0.5930 0.7134 0.3733
vn 0.5272 0.8396 0.1309
vn -0.6835 0.7152 -0.1458
vn -0.5744 0.8005 -0.1710
vn -0.4716 0.8433 0.2579
vn -0.5990 0.7597 0.2533
vn 0.1213 0.8703 0.4773
vn 0.4312 0.6246 0.6511
vn 0.3525 0.5635 0.7472
vn 0.0571 0.8074 0.5872
vn 0.7709 0.6219 -0.1378
vn -0.3415 0.8784 -0.3344
vn 0.2193 0.9604 0.1718
vn 0.6980 0.6787 -0.2283
vn 0.4481 0.8935 0.0279
vn 0.1537 0.9351 0.3192
vn 0.1136 0.9592 0.2589
vn -0.2938 0.5580 -0.7761
vn -0.3233 0.4271 0.8444
vn 0.5044 0.4653 0.7274
vn 0.2321 0.8155 0.5302
vn 0.5405 0.5175 0.6634
vn 0.5818 0.5808 0.5694
vn -0.5537 0.8014 -0.2261
vn -0.4286 0.8695 -0.2455
vn -0.3359 0.9269 0.1677
vn -0.4635 0.8682 0.1773
vn 0.0277 0.9520 0.3050
vn 0.6166 0.6392 0.4595
vn 0.2736 0.8711 0.4078
vn -0.1316 0.9329 0.3351
vn -0.1041 0.9577 0.2683
vn -0.7590 0.6351 -0.1436
vn -0.7419 0.6264 0.2393
vn -0.7674 0.5816 0.2701
vn -0.8023 0.5814 -0.1356
vn -0.6903 0.5445 -0.4765
vn -0.6873 0.5742 -0.4449
vn -0.8874 0.4429 -0.1280
vn -0.9018 0.3966 -0.1714
vn -0.3925 0.7722 0.4996
vn -0.0964 0.6411 0.7614
vn -0.1313 0.6868 0.7149
vn 0.2384 0.5226 0.8186
vn 0.1528 0.4437 0.8831
vn -0.4313 0.7718 0.4671
vn -0.2134 0.5909 0.7780
vn -0.2846 0.5379 0.7935
vn -0.5462 0.6738 0.4977
vn -0.0288 0.8517 0.5233
vn 0.2259 0.5759 0.7857
vn -0.1153 0.7758 0.6204
vn 0.1693 0.8144 0.5551
vn 0.1411 0.8817 0.4502
vn -0.0385 0.7627 0.6456
vn 0.2759 0.5284 0.8029
vn 0.1975 0.4432 0.8744
vn -0.0288 0.9539 0.2989
vn 0.4653 0.6184 0.6334
vn 0.1673 0.8640 0.4749
vn -0.1417 0.9647 0.2220
vn -0.6882 0.6412 -0.3394
vn -0.8133 0.5807 0.0359
vn -0.8390 0.5437 0.0225
vn -0.7317 0.5867 -0.3470
vn -0.7778 0.4680 0.4196
vn -0.8197 0.4174 0.3923
vn -0.7798 0.6167 0.1080
vn -0.6516 0.5828 0.4856
vn -0.3878 0.4974 0.7760
vn -0.5744 0.6881 0.4434
vn -0.2955 0.6024 0.7415
vn -0.3907 0.5109 0.7657
vn 0.5549 0.7669 0.3224
vn 0.8114 0.5769 0.0937
vn 0.8382 0.5209 0.1614
vn 0.5569 0.6820 0.4740
vn -0.3726 0.8723 0.3167
vn -0.2554 0.6636 0.7031
vn -0.4915 0.7872 0.3726
vn -0.2728 0.7882 -0.5516
vn -0.2093 0.8601 -0.4652
vn -0.5160 0.8376 -0.1794
vn -0.5948 0.7514 -0.2855
vn 0.8110 0.5834 -0.0431
vn 0.8468 0.5275 0.0679
vn -0.4090 0.8283 0.3830
vn -0.1960 0.6728 0.7133
vn -0.2893 0.5922 0.7520
vn 0.2471 0.8794 0.4069
vn -0.3091 0.9503 0.0363
vn -0.0329 0.7720 0.6348
vn -0.3639 0.9274 -0.0871
vn 0.5011 0.6796 0.5357
vn 0.7681 0.5885 0.2523
vn 0.7835 0.5549 0.2797
vn 0.5335 0.6252 0.5696
vn -0.7931 0.5450 -0.2720
vn -0.7733 0.5821 -0.2513
vn -0.8707 0.4760 0.1235
vn -0.9013 0.4249 0.0843
vn -0.7047 0.7094 0.0144
vn -0.6691 0.6144 0.4181
vn -0.7589 0.5299 0.3785
vn 0.3438 0.5516 -0.7600
vn 0.4168 0.4986 -0.7601
vn -0.4804 0.8770 0.0108
vn -0.6366 0.6673 0.3867
vn -0.6082 0.7935 -0.0205
vn -0.5744 0.8173 -0.0462
vn 0.4299 0.8979 0.0944
vn 0.7465 0.6618 -0.0698
vn 0.7884 0.6137 0.0422
vn 0.4872 0.8481 0.2083
vn -0.6106 0.7893 0.0647
vn -0.6457 0.6176 0.4491
vn -0.7389 0.5298 0.4164
vn -0.2698 0.9587 -0.0902
vn -0.4071 0.7352 0.5420
vn -0.3637 0.9162 0.1686
vn -0.3636 0.9162 0.1686
vn -0.3080 0.9196 -0.2440
vn -0.2393 0.9450 -0.2229
vn 0.5766 0.5118 0.6369
vn 0.2230 0.6130 0.7579
vn -0.1919 0.3711 -0.9086
vn -0.5123 0.6834 -0.5202
vn -0.8003 0.5436 -0.2529
vn -0.8146 0.4584 -0.3555
vn 0.0750 0.7066 -0.7036
vn 0.4545 0.7199 -0.5246
vn 0.4342 0.7733 -0.4620
vn 0.0362 0.8036 -0.5940
vn 0.7133 0.5852 0.3857
vn 0.7113 0.5325 0.4588
vn -0.4018 0.8584 -0.3190
vn -0.7633 0.6049 -0.2267
vn -0.4457 0.7764 -0.4456
vn 0.4784 0.7720 -0.4185
vn 0.4269 0.8437 -0.3255
vn 0.0512 0.8575 -0.5119
vn 0.1157 0.7704 -0.6269
vn -0.3852 0.8752 0.2926
vn -0.4277 0.6422 0.6362
vn -0.5396 0.5854 0.6051
vn -0.4870 0.7883 -0.3760
vn -0.7988 0.5702 -0.1915
vn -0.8189 0.4961 -0.2885
vn -0.1735 0.9571 -0.2321
vn -0.7387 0.6734 0.0298
vn -0.4317 0.8890 -0.1531
vn -0.0485 0.9564 -0.2880
vn 0.5218 0.6835 0.5104
vn 0.7893 0.5686 0.2316
vn 0.8026 0.5349 0.2640
vn 0.5562 0.6293 0.5428
vn -0.7549 0.5355 0.3786
vn -0.7253 0.5717 0.3835
vn -0.5475 0.4334 0.7159
vn -0.5977 0.3845 0.7035
vn 0.4535 0.7274 -0.5150
vn 0.0873 0.6922 -0.7164
vn 0.0020 0.6652 -0.7467
vn -0.3441 0.4528 -0.8226
vn 0.0413 0.5693 -0.8211
vn -0.0064 0.6527 -0.7576
vn -0.4091 0.5358 -0.7386
vn -0.3523 0.4381 -0.8270
vn -0.0300 0.8816 -0.4710
vn -0.3836 0.6643 -0.6415
vn 0.0118 0.8014 -0.5980
vn -0.5918 0.8021 0.0805
vn -0.4898 0.8706 0.0457
vn -0.3034 0.8530 0.4247
vn -0.1826 0.9077 0.3777
vn -0.0087 0.7117 0.7025
vn -0.1155 0.6542 0.7474
vn -0.0169 0.9022 -0.4311
vn -0.4082 0.7600 -0.5058
vn -0.3779 0.6983 -0.6079
vn 0.4387 0.8894 0.1284
vn 0.1998 0.9539 -0.2242
vn -0.4259 0.7870 -0.4464
vn 0.3261 0.9285 -0.1779
vn 0.8419 0.5192 -0.1471
vn 0.7314 0.4363 -0.5242
vn 0.7520 0.3976 -0.5258
vn 0.8742 0.4588 -0.1590
vn -0.7913 0.3875 0.4730
vn -0.8319 0.3403 0.4383
vn 0.7558 0.6535 -0.0411
vn 0.7128 0.5564 -0.4270
vn 0.5212 0.4104 -0.7483
vn -0.3895 0.7869 -0.4786
vn -0.3006 0.8567 -0.4191
vn -0.5023 0.8634 -0.0477
vn -0.6128 0.7806 -0.1233
vn 0.1249 0.8805 0.4573
vn 0.4985 0.6518 0.5715
vn 0.4325 0.5890 0.6827
vn 0.1181 0.8056 0.5806
vn 0.2659 0.9565 -0.1197
vn 0.3659 0.9306 0.0067
vn 0.2942 0.9556 0.0143
vn 0.7423 0.5202 -0.4223
vn 0.7994 0.5989 -0.0475
vn 0.4736 0.3330 -0.8153
vn 0.5178 0.2760 -0.8098
vn 0.5008 0.6842 0.5301
vn 0.4329 0.7693 0.4698
vn 0.7150 0.6759 0.1786
vn 0.7050 0.6880 0.1719
vn 0.6588 0.7086 0.2528
vn 0.8764 0.4807 -0.0289
vn 0.7283 0.6016 0.3282
vn 0.6803 0.6792 0.2755
vn 0.8147 0.5708 -0.1021
vn 0.8717 0.4892 -0.0301
vn -0.2310 0.5792 -0.7818
vn -0.1802 0.5244 -0.8322
vn 0.2018 0.6563 -0.7270
vn 0.4771 0.8706 0.1203
vn 0.7655 0.6269 -0.1451
vn 0.5796 0.7895 0.2017
vn 0.2229 0.8789 0.4217
vn 0.5056 0.8507 0.1440
vn 0.6891 0.6953 -0.2042
vn 0.7643 0.6286 -0.1441
vn 0.1936 0.9462 0.2594
vn 0.6021 0.7546 -0.2609
vn 0.3903 0.9185 0.0632
vn 0.4702 0.8804 -0.0613
vn 0.2480 0.9246 0.2892
vn 0.1959 0.9515 0.2373
vn 0.4590 0.7002 -0.5468
vn -0.6924 0.3387 0.6370
vn 0.2523 0.6375 0.7280
vn 0.2321 0.7471 0.6229
vn 0.6110 0.5954 0.5216
vn 0.2349 0.6279 0.7420
vn 0.5953 0.5862 0.5495
vn 0.5974 0.4998 0.6271
vn 0.6977 0.5293 0.4828
vn 0.9232 0.2369 0.3027
vn 0.6973 0.4390 0.5665
vn 0.6216 0.6145 0.4858
vn 0.8773 0.4343 0.2044
vn 0.8843 0.3409 0.3192
vn -0.4629 0.7853 -0.4111
vn -0.7646 0.6140 -0.1962
vn -0.7859 0.5608 -0.2605
vn -0.4795 0.6944 -0.5366
vn 0.4549 0.8661 0.2073
vn 0.8014 0.5832 0.1331
vn 0.4983 0.7983 0.3382
vn 0.4669 0.8562 0.2211
vn 0.7742 0.6319 0.0366
vn 0.8085 0.5714 0.1410
vn 0.3279 0.8704 -0.3672
vn 0.2243 0.9550 0.1941
vn 0.7792 0.6258 -0.0348
vn 0.4803 0.8678 0.1273
vn 0.4817 0.8672 0.1265
vn 0.1182 0.9416 0.3154
vn 0.0994 0.9644 0.2449
vn -0.6924 0.5117 0.5087
vn -0.9282 0.3590 0.0976
vn -0.4538 0.6370 0.6231
vn -0.4109 0.7444 0.5264
vn -0.0571 0.6699 0.7402
vn -0.4027 0.6711 0.6224
vn 0.0030 0.6918 0.7221
vn -0.0478 0.5979 0.8001
vn 0.1193 0.6606 0.7412
vn 0.4377 0.4110 0.7997
vn 0.0727 0.5767 0.8137
vn 0.0171 0.7659 0.6427
vn 0.4198 0.6407 0.6428
vn 0.3577 0.5567 0.7498
vn -0.7064 0.6807 -0.1941
vn -0.4445 0.7340 -0.5135
vn 0.0308 0.8519 0.5228
vn 0.3486 0.6018 0.7186
vn -0.0283 0.7733 0.6334
vn -0.6011 0.7876 0.1354
vn 0.0386 0.8478 0.5289
vn 0.4005 0.6583 0.6374
vn 0.3489 0.5830 0.7337
vn 0.0047 0.9591 0.2830
vn 0.5798 0.6513 0.4896
vn 0.2424 0.8820 0.4042
vn 0.2734 0.8684 0.4137
vn -0.1236 0.9420 0.3119
vn -0.0907 0.9648 0.2469
vn -0.3143 0.6522 -0.6898
vn -0.3359 0.5976 -0.7280
vn -0.3174 0.5041 0.8032
vn -0.2878 0.5387 0.7918
vn 0.0415 0.3575 0.9330
vn -0.0102 0.3115 0.9502
vn -0.5339 0.7001 0.4742
vn -0.4356 0.8142 0.3840
vn -0.1788 0.6891 0.7022
vn -0.6432 0.6345 0.4286
vn -0.3416 0.6269 0.7003
vn -0.4057 0.5421 0.7359
vn -0.3503 0.6295 0.6935
vn -0.1027 0.3861 0.9167
vn -0.4332 0.5247 0.7328
vn -0.3643 0.6509 0.6660
vn -0.0199 0.5143 0.8574
vn -0.1110 0.4251 0.8983
vn 0.3884 0.8010 -0.4557
vn -0.7445 0.6218 0.2433
vn -0.7995 0.5675 0.1969
vn -0.1763 0.8577 0.4830
vn 0.0204 0.6038 0.7969
vn -0.2842 0.7759 0.5632
vn -0.2834 0.8309 0.4788
vn -0.2266 0.8936 0.3874
vn 0.1486 0.8462 0.5117
vn 0.1167 0.7573 0.6426
vn 0.0209 0.6050 0.7959
vn 0.4296 0.8329 -0.3488
vn 0.3665 0.8973 -0.2462
vn -0.0022 0.9061 -0.4230
vn 0.0513 0.8416 -0.5376
vn -0.2231 0.9602 0.1680
vn -0.3689 0.9236 0.1042
vn -0.3098 0.9487 0.0626
vn -0.3449 0.5439 0.7650
vn -0.4558 0.4875 0.7447
vn -0.1521 0.3369 0.9292
vn -0.7019 0.4726 0.5329
vn 0.1576 0.7037 -0.6928
vn 0.4923 0.7426 -0.4541
vn 0.4616 0.7951 -0.3933
vn 0.0884 0.7996 -0.5940
vn 0.4805 0.7783 -0.4041
vn 0.2800 0.6163 -0.7361
vn 0.3511 0.5596 -0.7507
vn 0.5960 0.6771 -0.4316
vn -0.6358 0.5238 0.5669
vn -0.1784 0.8756 0.4490
vn -0.3929 0.9193 0.0208
vn -0.5617 0.7447 0.3603
vn -0.6615 0.6865 0.3020
vn 0.1635 0.9052 0.3923
vn 0.1276 0.9543 0.2702
vn 0.4895 0.8698 0.0627
vn 0.5253 0.8298 0.1886
vn -0.2903 0.9559 0.0436
vn -0.3263 0.9383 -0.1146
vn -0.2583 0.9619 -0.0895
vn -0.6522 0.6054 -0.4562
vn -0.3615 0.6733 -0.6449
vn -0.3676 0.6829 -0.6312
vn -0.6434 0.6936 -0.3239
vn -0.6895 0.5976 -0.4092
vn -0.6224 0.7010 -0.3481
vn -0.8750 0.4711 -0.1119
vn -0.6701 0.6035 -0.4321
vn -0.5553 0.7361 -0.3870
vn -0.7729 0.6328 -0.0482
vn -0.8206 0.5553 -0.1349
vn 0.0343 0.8249 0.5643
vn 0.4093 0.6693 0.6201
vn 0.3768 0.6221 0.6864
vn -0.0361 0.7378 0.6741
vn -0.4513 0.8521 -0.2649
vn -0.7867 0.6135 -0.0690
vn -0.5253 0.7668 -0.3689
vn -0.4240 0.8104 -0.4043
vn -0.1389 0.7115 0.6888
vn -0.4640 0.8412 -0.2777
vn -0.7304 0.6830 0.0100
vn -0.7900 0.6090 -0.0704
vn -0.4688 0.8653 0.1771
vn -0.1787 0.9591 -0.2196
vn -0.6673 0.7185 0.1961
vn -0.4086 0.9100 -0.0708
vn -0.4400 0.8972 -0.0372
vn -0.1494 0.9308 -0.3335
vn -0.1082 0.9556 -0.2741
vn -0.3662 0.7050 0.6074
vn -0.0278 0.5800 0.8141
vn -0.0752 0.5526 0.8301
vn -0.3841 0.6508 0.6549
vn 0.8025 0.5312 -0.2716
vn 0.7740 0.5674 -0.2809
vn 0.6446 0.4271 -0.6341
vn 0.6924 0.3781 -0.6145
vn 0.5204 0.6711 -0.5280
vn 0.4796 0.7588 -0.4407
vn 0.1416 0.7215 -0.6778
vn 0.5068 0.6812 -0.5283
vn 0.1221 0.7313 -0.6710
vn 0.1790 0.6336 -0.7526
vn 0.1663 0.7369 -0.6553
vn -0.1624 0.5442 -0.8231
vn 0.2198 0.6387 -0.7374
vn 0.1978 0.7419 -0.6407
vn -0.2026 0.6618 -0.7218
vn -0.1421 0.5803 -0.8019
vn -0.2676 0.7500 -0.6049
vn -0.2366 0.8027 -0.5474
vn -0.0579 0.8303 -0.5544
vn -0.4310 0.6990 -0.5707
vn -0.4170 0.6448 -0.6406
vn 0.0196 0.7409 -0.6714
vn 0.1122 0.8592 -0.4992
vn -0.2018 0.6407 -0.7408
vn 0.1784 0.7729 -0.6089
vn -0.3947 0.7299 -0.5581
vn 0.1207 0.8709 -0.4765
vn -0.2510 0.7371 -0.6275
vn -0.2016 0.6683 -0.7161
vn -0.3726 0.9280 0.0079
vn 0.2396 0.9458 -0.2192
vn -0.3404 0.7713 -0.5378
vn 0.0163 0.9238 -0.3825
vn -0.0363 0.9140 -0.4040
vn 0.3435 0.9090 -0.2362
vn 0.3066 0.9353 -0.1768
vn -0.2013 0.6165 0.7612
vn 0.6785 0.3978 0.6176
vn 0.6722 0.4415 0.5943
vn 0.9115 0.2249 0.3443
vn 0.8977 0.1810 0.4018
vn 0.8625 0.4896 -0.1281
vn 0.7871 0.6093 -0.0961
vn 0.6772 0.5451 -0.4943
vn 0.8435 0.5152 -0.1516
vn 0.6579 0.5468 -0.5178
vn 0.6442 0.6265 -0.4388
vn 0.3889 0.5259 -0.7565
vn 0.4898 0.4208 -0.7636
vn 0.5066 0.7330 -0.4539
vn 0.4712 0.5678 -0.6749
vn 0.5433 0.5152 -0.6629
vn 0.2880 0.6111 -0.7373
vn 0.0688 0.9013 -0.4277
vn -0.2953 0.7480 -0.5944
vn -0.2364 0.6786 -0.6954
vn 0.1163 0.8322 -0.5421
vn 0.1866 0.6831 -0.7061
vn 0.2837 0.6178 -0.7333
vn -0.1863 0.8720 -0.4527
vn -0.1294 0.9301 -0.3438
vn -0.4534 0.8871 -0.0861
vn -0.5200 0.8312 -0.1966
vn 0.2866 0.9569 -0.0458
vn 0.0781 0.7441 -0.6635
vn 0.2322 0.9189 -0.3189
vn 0.3972 0.9155 0.0633
vn 0.3278 0.9413 0.0812
vn -0.5376 0.6721 0.5091
vn -0.5737 0.6187 0.5367
vn 0.0624 0.5291 -0.8463
vn 0.0686 0.5747 -0.8155
vn -0.3288 0.4694 -0.8195
vn -0.2908 0.4167 -0.8613
vn 0.4960 0.7029 0.5097
vn 0.4231 0.7911 0.4416
vn 0.7085 0.6878 0.1581
vn 0.4995 0.7118 0.4938
vn 0.7077 0.6929 0.1380
vn 0.7685 0.6011 0.2193
vn 0.6969 0.6987 0.1619
vn 0.8908 0.4426 -0.1032
vn 0.7589 0.6048 0.2414
vn 0.5543 0.7891 0.2647
vn 0.7086 0.6969 -0.1101
vn 0.7766 0.6290 -0.0352
vn 0.4545 0.8571 0.2423
vn 0.7714 0.6362 -0.0118
vn 0.5425 0.7733 0.3283
vn 0.3698 0.6081 0.7025
vn 0.2861 0.5517 0.7834
vn 0.5670 0.7822 0.2584
vn 0.7792 0.6228 -0.0703
vn 0.8478 0.5304 0.0009
vn 0.2640 0.9563 0.1259
vn 0.6437 0.6713 -0.3673
vn 0.4540 0.8886 -0.0647
vn 0.4740 0.8753 -0.0960
vn 0.2523 0.9346 0.2508
vn 0.2009 0.9588 0.2008
vn 0.5632 0.6335 -0.5305
vn 0.5880 0.5782 -0.5657
vn 0.5717 0.3614 -0.7366
vn -0.0325 0.6558 0.7542
vn 0.6894 0.6962 -0.2001
vn 0.4865 0.8630 0.1363
vn 0.0614 0.9613 0.2686
vn -0.0694 0.9300 0.3610
vn -0.0738 0.9545 0.2889
vn 0.5279 0.6090 0.5920
vn -0.8821 0.3545 -0.3103
vn 0.7086 0.6833 0.1762
vn 0.4267 0.7801 0.4575
vn 0.3743 0.8313 0.4109
vn 0.6319 0.7713 0.0755
vn -0.0603 0.8730 0.4840
vn -0.3605 0.7055 -0.6102
vn -0.2958 0.6451 -0.7045
vn -0.0698 0.9500 0.3045
vn -0.1702 0.9623 0.2121
vn 0.7416 0.6026 -0.2948
vn 0.4727 0.3730 -0.7984
vn -0.7526 0.6585 -0.0062
vn 0.0444 0.8942 -0.4455
vn 0.8137 0.5726 -0.1001
vn 0.6636 0.6955 0.2755
vn -0.2671 0.6367 0.7234
vn -0.2641 0.9609 0.0833
vn -0.1529 0.6939 0.7037
vn -0.2871 0.9565 -0.0516
vn -0.6786 0.5450 0.4925
vn -0.8167 0.5619 0.1312
vn 0.7856 0.5529 0.2778
vn 0.7780 0.5792 0.2434
vn 0.9029 0.4189 -0.0962
vn 0.9254 0.3750 -0.0551
vn -0.6536 0.7498 0.1026
vn -0.4977 0.8049 -0.3231
vn -0.7571 0.6526 -0.0298
vn -0.7952 0.6000 -0.0873
vn -0.5634 0.7104 -0.4218
vn 0.4750 0.8745 0.0976
vn 0.4324 0.8423 -0.3217
vn 0.3028 0.8971 -0.3217
vn 0.2530 0.6885 -0.6797
vn 0.3688 0.6309 -0.6826
vn -0.7890 0.6127 0.0461
vn -0.2110 0.9558 -0.2049
vn -0.7271 0.6713 0.1434
vn -0.0964 0.9552 -0.2797
vn -0.7967 0.6044 -0.0001
vn -0.1680 0.3662 -0.9153
vn 0.8674 0.4675 0.1704
vn 0.8746 0.4181 0.2454
vn -0.2007 0.9156 -0.3484
vn 0.1666 0.9536 -0.2509
vn 0.2778 0.9452 -0.1715
vn -0.7417 0.4399 -0.5063
vn 0.8459 0.3315 0.4177
vn 0.7462 0.6569 0.1082
vn -0.3393 0.5750 0.7445
vn -0.5774 0.6674 0.4703
vn -0.5394 0.7363 0.4085
vn -0.2173 0.6581 0.7209
vn 0.2763 0.9597 -0.0516
vn 0.3520 0.9317 0.0902
vn 0.2799 0.9562 0.0852
vn 0.7905 0.6027 0.1087
vn 0.4996 0.3541 0.7906
vn 0.4621 0.3091 0.8313
vn 0.1583 0.8087 -0.5666
vn -0.2210 0.6774 -0.7016
vn -0.1808 0.6238 -0.7604
vn 0.2158 0.7112 -0.6690
vn 0.2739 0.9448 0.1796
vn 0.1481 0.9617 0.2308
vn -0.3818 0.6557 -0.6513
vn -0.7029 0.5671 -0.4294
vn -0.7135 0.5308 -0.4573
vn -0.4093 0.6013 -0.6862
vn -0.4357 0.4449 0.7825
vn 0.1053 0.9503 0.2929
vn -0.0272 0.9648 0.2616
vn -0.5279 0.6361 -0.5628
vn -0.5665 0.5816 -0.5838
vn 0.7516 0.5622 0.3450
vn 0.7356 0.5953 0.3231
vn 0.8825 0.4695 -0.0267
vn 0.9080 0.4188 0.0103
vn 0.4496 0.8668 0.2159
vn -0.4162 0.8938 -0.1672
vn -0.7016 0.7040 0.1097
vn -0.7734 0.6339 0.0094
vn -0.5165 0.8203 -0.2455
vn -0.2525 0.9609 0.1135
vn -0.3035 0.9527 -0.0133
vn -0.0263 0.6017 0.7983
vn 0.2398 0.5903 -0.7708
vn 0.2091 0.6192 -0.7569
vn -0.1646 0.5216 -0.8371
vn -0.1359 0.4749 -0.8695
vn 0.6268 0.6189 0.4734
vn 0.2427 0.7516 0.6133
vn 0.2305 0.8023 0.5506
vn 0.5877 0.7215 0.3662
vn -0.0666 0.7828 0.6187
vn 0.2589 0.5902 0.7646
vn 0.2153 0.5423 0.8122
vn -0.1740 0.6993 0.6933
vn 0.4060 0.7969 0.4473
vn 0.3299 0.8674 0.3726
vn 0.5707 0.8204 0.0358
vn 0.6684 0.7333 0.1245
vn 0.4723 0.8765 0.0935
vn 0.7082 0.6643 -0.2390
vn 0.7976 0.5866 -0.1407
vn 0.5990 0.7898 0.1321
vn -0.2167 0.9573 -0.1914
vn -0.1429 0.9413 -0.3057
vt 0.802020 0.498040
vt 0.704320 0.674700
vt 0.501860 0.674660
vt 0.501640 0.498040
vt 0.169220 0.498040
vt 0.271180 0.298180
vt 0.501860 0.298130
vt 0.501640 0.816600
vt 0.353560 0.816600
vt 0.325160 0.674630
vt 0.643080 0.137490
vt 0.501640 0.137480
vt 0.501640 0.000240
vt 0.597550 0.000240
vt 0.821380 0.298050
vt 0.627180 0.816600
vt 0.399650 0.137480
vt 0.469180 0.000240
vt 0.501640 0.998880
vt 0.501980 0.999260
s 1
usemtl Leaves_Pine
f 619/1/1 622/2/2 621/3/3 618/4/4
f 10/4/5 12/5/6 9/6/7 8/7/8
f 86/4/9 88/5/10 85/6/11 84/7/12
f 510/8/13 512/9/14 509/10/15 507/3/16
f 3/11/17 4/12/18 2/13/19 1/14/20
f 65/7/21 64/15/22 68/1/23 67/4/24
f 71/2/25 74/16/26 73/8/27 70/3/28
f 59/13/29 61/12/30 63/17/31 62/18/32
f 231/11/33 232/12/34 230/13/35 229/14/36
f 21/13/37 23/12/38 25/17/39 24/18/40
f 3/11/17 7/15/41 8/7/8
f 3/11/17 8/7/8 4/12/18
f 8/7/8 6/17/42 4/12/18
f 8/7/8 9/6/7 6/17/42
f 27/7/43 26/15/44 30/1/45 29/4/46
f 13/3/47 12/5/6 10/4/5
f 30/1/45 33/2/48 32/3/49 29/4/46
f 54/8/50 56/9/51 53/10/52 51/3/53
f 13/3/47 15/10/54 12/5/6
f 52/2/55 55/16/56 54/8/50 51/3/53
f 19/19/57 18/9/58 16/8/59
f 16/8/59 17/16/60 19/20/61
f 22/11/62 26/15/44 27/7/43
f 22/11/62 27/7/43 23/12/38
f 27/7/43 25/17/39 23/12/38
f 27/7/43 28/6/63 25/17/39
f 238/4/64 240/5/65 237/6/66 236/7/67
f 32/3/49 31/5/68 29/4/46
f 16/8/59 18/9/58 15/10/54 13/3/47
f 32/3/49 34/10/69 31/5/68
f 14/2/70 17/16/60 16/8/59 13/3/47
f 38/19/71 37/9/72 35/8/73
f 35/8/73 36/16/74 38/20/75
f 345/11/76 346/12/77 344/13/78 343/14/79
f 211/13/80 213/12/81 215/17/82 214/18/83
f 41/11/84 45/15/85 46/7/86
f 41/11/84 46/7/86 42/12/87
f 46/7/86 44/17/88 42/12/87
f 46/7/86 47/6/89 44/17/88
f 8/7/8 7/15/41 11/1/90 10/4/5
f 51/3/53 50/5/91 48/4/92
f 11/1/90 14/2/70 13/3/47 10/4/5
f 51/3/53 53/10/52 50/5/91
f 57/19/93 56/9/51 54/8/50
f 54/8/50 55/16/56 57/20/94
f 972/11/95 973/12/96 971/13/97 970/14/98
f 40/13/99 42/12/87 44/17/88 43/18/100
f 60/11/101 64/15/22 65/7/21
f 60/11/101 65/7/21 61/12/30
f 65/7/21 63/17/31 61/12/30
f 65/7/21 66/6/102 63/17/31
f 673/7/103 672/15/104 676/1/105 675/4/106
f 618/4/107 620/5/108 617/6/109 616/7/110
f 70/3/28 69/5/111 67/4/24
f 201/1/112 204/2/113 203/3/114 200/4/115
f 206/8/116 208/9/117 205/10/118 203/3/114
f 70/3/28 72/10/119 69/5/111
f 698/2/120 701/16/121 700/8/122 697/3/123
f 76/19/124 75/9/125 73/8/27
f 73/8/27 74/16/26 76/20/126
f 706/11/127 707/12/128 705/13/129 704/14/130
f 116/13/131 118/12/132 120/17/133 119/18/134
f 79/11/135 83/15/136 84/7/12
f 79/11/135 84/7/12 80/12/137
f 84/7/12 82/17/138 80/12/137
f 84/7/12 85/6/11 82/17/138
f 255/7/139 254/15/140 258/1/141 257/4/142
f 371/4/143 373/5/144 370/6/145 369/7/146
f 89/3/147 88/5/10 86/4/9
f 49/1/148 52/2/55 51/3/53 48/4/92
f 757/8/149 759/9/150 756/10/151 754/3/152
f 89/3/147 91/10/153 88/5/10
f 660/2/154 663/16/155 662/8/156 659/3/157
f 95/19/158 94/9/159 92/8/160
f 92/8/160 93/16/161 95/20/162
f 41/11/84 42/12/87 40/13/99 39/14/163
f 458/13/164 460/12/165 462/17/166 461/18/167
f 98/11/168 102/15/169 103/7/170
f 98/11/168 103/7/170 99/12/171
f 103/7/170 101/17/172 99/12/171
f 103/7/170 104/6/173 101/17/172
f 825/7/174 824/15/175 828/1/176 827/4/177
f 922/4/178 924/5/179 921/6/180 920/7/181
f 108/3/182 107/5/183 105/4/184
f 467/1/185 470/2/186 469/3/187 466/4/188
f 358/8/189 360/9/190 357/10/191 355/3/192
f 108/3/182 110/10/193 107/5/183
f 204/2/113 207/16/194 206/8/116 203/3/114
f 114/19/195 113/9/196 111/8/197
f 111/8/197 112/16/198 114/20/199
f 744/11/200 745/12/201 743/13/202 742/14/203
f 2/13/19 4/12/18 6/17/42 5/18/204
f 117/11/205 121/15/206 122/7/207
f 117/11/205 122/7/207 118/12/132
f 122/7/207 120/17/133 118/12/132
f 122/7/207 123/6/208 120/17/133
f 160/7/209 159/15/210 163/1/211 162/4/212
f 903/4/213 905/5/214 902/6/215 901/7/216
f 127/3/217 126/5/218 124/4/219
f 942/1/220 945/2/221 944/3/222 941/4/223
f 187/8/224 189/9/225 186/10/226 184/3/227
f 127/3/217 129/10/228 126/5/218
f 337/2/229 340/16/230 339/8/231 336/3/232
f 133/19/233 132/9/234 130/8/235
f 130/8/235 131/16/236 133/20/237
f 22/11/62 23/12/38 21/13/37 20/14/238
f 515/13/239 517/12/240 519/17/241 518/18/242
f 136/11/243 140/15/244 141/7/245
f 136/11/243 141/7/245 137/12/246
f 141/7/245 139/17/247 137/12/246
f 141/7/245 142/6/248 139/17/247
f 407/7/249 406/15/250 410/1/251 409/4/252
f 352/4/253 354/5/254 351/6/255 350/7/256
f 146/3/257 145/5/258 143/4/259
f 353/1/260 356/2/261 355/3/192 352/4/253
f 263/8/262 265/9/263 262/10/264 260/3/265
f 146/3/257 148/10/266 145/5/258
f 831/2/267 834/16/268 833/8/269 830/3/270
f 152/19/271 151/9/272 149/8/273
f 149/8/273 150/16/274 152/20/275
f 402/11/276 403/12/277 401/13/278 400/14/279
f 1009/13/280 1011/12/281 1013/17/282 1012/18/283
f 155/11/284 159/15/210 160/7/209
f 155/11/284 160/7/209 156/12/285
f 160/7/209 158/17/286 156/12/285
f 160/7/209 161/6/287 158/17/286
f 540/7/288 539/15/289 543/1/290 542/4/291
f 333/4/292 335/5/293 332/6/294 331/7/295
f 165/3/296 164/5/297 162/4/212
f 87/1/298 90/2/299 89/3/147 86/4/9
f 73/8/27 75/9/125 72/10/119 70/3/28
f 165/3/296 167/10/300 164/5/297
f 33/2/48 36/16/74 35/8/73 32/3/49
f 171/19/301 170/9/302 168/8/303
f 168/8/303 169/16/304 171/20/305
f 307/11/306 308/12/307 306/13/308 305/14/309
f 857/13/310 859/12/311 861/17/312 860/18/313
f 174/11/314 178/15/315 179/7/316
f 174/11/314 179/7/316 175/12/317
f 179/7/316 177/17/318 175/12/317
f 179/7/316 180/6/319 177/17/318
f 483/7/320 482/15/321 486/1/322 485/4/323
f 200/4/115 202/5/324 199/6/325 198/7/326
f 184/3/227 183/5/327 181/4/328
f 444/3/329 445/5/330 447/4/331
f 35/8/73 37/9/72 34/10/69 32/3/49
f 184/3/227 186/10/226 183/5/327
f 470/2/186 473/16/332 472/8/333 469/3/187
f 190/19/334 189/9/225 187/8/224
f 187/8/224 188/16/335 190/20/336
f 630/11/337 631/12/338 629/13/339 628/14/340
f 534/13/341 536/12/342 538/17/343 537/18/344
f 193/11/345 197/15/346 198/7/326
f 193/11/345 198/7/326 194/12/347
f 198/7/326 196/17/348 194/12/347
f 198/7/326 199/6/325 196/17/348
f 29/4/46 31/5/68 28/6/63 27/7/43
f 203/3/114 202/5/324 200/4/115
f 752/1/349 755/2/350 754/3/351 751/4/352
f 301/8/353 303/9/354 300/10/355 298/3/356
f 203/3/114 205/10/118 202/5/324
f 166/2/357 169/16/304 168/8/303 165/3/296
f 209/19/358 208/9/117 206/8/116
f 206/8/116 207/16/194 209/20/359
f 649/11/360 650/12/361 648/13/362 647/14/363
f 212/11/364 216/15/365 217/7/366
f 212/11/364 217/7/366 213/12/81
f 217/7/366 215/17/82 213/12/81
f 217/7/366 218/6/367 215/17/82
f 331/7/295 330/15/368 334/1/369 333/4/292
f 222/3/370 221/5/371 219/4/372
f 296/1/373 299/2/374 298/3/356 295/4/375
f 454/11/376 450/15/377 449/7/378
f 222/3/370 224/10/379 221/5/371
f 242/2/380 245/16/381 244/8/382 241/3/383
f 228/19/384 227/9/385 225/8/386
f 225/8/386 226/16/387 228/20/388
f 288/11/389 289/12/390 287/13/391 286/14/392
f 154/13/393 156/12/285 158/17/286 157/18/394
f 231/11/33 235/15/395 236/7/67
f 231/11/33 236/7/67 232/12/34
f 236/7/67 234/17/396 232/12/34
f 236/7/67 237/6/66 234/17/396
f 388/7/397 387/15/398 391/1/399 390/4/400
f 257/4/401 259/5/402 256/6/403 255/7/404
f 241/3/383 240/5/65 238/4/64
f 163/1/211 166/2/357 165/3/296 162/4/212
f 491/8/405 493/9/406 490/10/407 488/3/408
f 241/3/383 243/10/409 240/5/65
f 907/2/410 910/16/411 909/8/412 906/3/413
f 247/19/414 246/9/415 244/8/382
f 244/8/382 245/16/381 247/20/416
f 763/11/417 764/12/418 762/13/419 761/14/420
f 135/13/421 137/12/246 139/17/247 138/18/422
f 250/11/423 254/15/424 255/7/425
f 250/11/426 255/7/427 251/12/428
f 255/7/429 253/17/430 251/12/431
f 255/7/432 256/6/433 253/17/434
f 996/7/435 995/15/436 999/1/437 998/4/438
f 162/4/212 164/5/297 161/6/287 160/7/209
f 260/3/439 259/5/440 257/4/441
f 904/1/442 907/2/410 906/3/413 903/4/213
f 624/8/443 626/9/444 623/10/445 621/3/446
f 260/3/265 262/10/264 259/5/447
f 736/2/448 739/16/449 738/8/450 735/3/451
f 266/19/452 265/9/263 263/8/262
f 263/8/453 264/16/454 266/20/455
f 516/11/456 517/12/240 515/13/239 514/14/457
f 971/13/97 973/12/96 975/17/458 974/18/459
f 269/11/460 273/15/461 274/7/462
f 269/11/460 274/7/462 270/12/463
f 274/7/462 272/17/464 270/12/463
f 274/7/462 275/6/465 272/17/464
f 730/7/466 729/15/467 733/1/468 732/4/469
f 599/4/470 601/5/471 598/6/472 597/7/473
f 279/3/474 278/5/475 276/4/476
f 676/1/105 679/2/477 678/3/478 675/4/106
f 377/8/479 379/9/480 376/10/481 374/3/482
f 279/3/474 281/10/483 278/5/475
f 983/2/484 986/16/485 985/8/486 982/3/487
f 285/19/488 284/9/489 282/8/490
f 282/8/490 283/16/491 285/20/492
f 269/11/460 270/12/463 268/13/493 267/14/494
f 914/13/495 916/12/496 918/17/497 917/18/498
f 288/11/389 292/15/499 293/7/500
f 288/11/389 293/7/500 289/12/390
f 293/7/500 291/17/501 289/12/390
f 293/7/500 294/6/502 291/17/501
f 141/7/245 140/15/244 144/1/503 143/4/259
f 219/4/372 221/5/371 218/6/367 217/7/366
f 298/3/356 297/5/504 295/4/375
f 999/1/437 1002/2/505 1001/3/506 998/4/438
f 130/8/235 132/9/234 129/10/228 127/3/217
f 298/3/356 300/10/355 297/5/504
f 454/11/376 449/7/378 453/12/507
f 304/19/508 303/9/354 301/8/353
f 301/8/353 302/16/509 304/20/510
f 991/11/511 992/12/512 990/13/513 989/14/514
f 572/13/515 574/12/516 576/17/517 575/18/518
f 307/11/306 311/15/519 312/7/520
f 307/11/306 312/7/520 308/12/307
f 312/7/520 310/17/521 308/12/307
f 312/7/520 313/6/522 310/17/521
f 882/7/523 881/15/524 885/1/525 884/4/526
f 466/4/527 468/5/528 465/6/529 464/7/530
f 317/3/531 316/5/532 314/4/533
f 771/1/534 774/2/535 773/3/536 770/4/537
f 681/8/538 683/9/539 680/10/540 678/3/478
f 317/3/531 319/10/541 316/5/532
f 299/2/374 302/16/509 301/8/353 298/3/356
f 323/19/542 322/9/543 320/8/544
f 320/8/544 321/16/545 323/20/546
f 801/11/547 802/12/548 800/13/549 799/14/550
f 401/13/278 403/12/277 405/17/551 404/18/552
f 326/11/553 330/15/368 331/7/295
f 326/11/553 331/7/295 327/12/554
f 331/7/295 329/17/555 327/12/554
f 331/7/295 332/6/294 329/17/555
f 616/7/556 615/15/557 619/1/1 618/4/4
f 295/4/375 297/5/504 294/6/502 293/7/500
f 336/3/232 335/5/293 333/4/292
f 410/1/251 413/2/558 412/3/559 409/4/252
f 320/8/544 322/9/543 319/10/541 317/3/531
f 336/3/232 338/10/560 335/5/293
f 489/2/561 492/16/562 491/8/405 488/3/408
f 342/19/563 341/9/564 339/8/231
f 339/8/231 340/16/230 342/20/565
f 136/11/243 137/12/246 135/13/421 134/14/566
f 97/13/567 99/12/171 101/17/172 100/18/568
f 345/11/76 349/15/569 350/7/256
f 345/11/76 350/7/256 346/12/77
f 350/7/256 348/17/570 346/12/77
f 350/7/256 351/6/255 348/17/570
f 901/7/216 900/15/571 904/1/442 903/4/213
f 884/4/526 886/5/572 883/6/573 882/7/523
f 355/3/192 354/5/254 352/4/253
f 334/1/369 337/2/229 336/3/232 333/4/292
f 415/8/574 417/9/575 414/10/576 412/3/559
f 355/3/192 357/10/191 354/5/254
f 888/2/577 891/16/578 890/8/579 887/3/580
f 361/19/581 360/9/190 358/8/189
f 358/8/189 359/16/582 361/20/583
f 497/11/584 498/12/585 496/13/586 495/14/587
f 344/13/78 346/12/77 348/17/570 347/18/588
f 364/11/589 368/15/590 369/7/146
f 364/11/589 369/7/146 365/12/591
f 369/7/146 367/17/592 365/12/591
f 369/7/146 370/6/145 367/17/592
f 559/7/593 558/15/594 562/1/595 561/4/596
f 143/4/259 145/5/258 142/6/248 141/7/245
f 374/3/482 373/5/144 371/4/143
f 695/1/597 698/2/598 697/3/599 694/4/600
f 871/8/601 873/9/602 870/10/603 868/3/604
f 374/3/482 376/10/481 373/5/144
f 432/2/605 435/16/606 434/8/607 431/3/608
f 380/19/609 379/9/480 377/8/479
f 377/8/479 378/16/610 380/20/611
f 98/11/168 99/12/171 97/13/567 96/14/612
f 363/13/613 365/12/591 367/17/592 366/18/614
f 383/11/615 387/15/398 388/7/397
f 383/11/615 388/7/397 384/12/616
f 388/7/397 386/17/617 384/12/616
f 388/7/397 389/6/618 386/17/617
f 369/7/146 368/15/590 372/1/619 371/4/143
f 444/3/329 442/10/620 445/5/330
f 393/3/621 392/5/622 390/4/400
f 505/1/623 508/2/624 507/3/16 504/4/625
f 472/8/626 474/9/627 471/10/628 469/3/629
f 393/3/621 395/10/630 392/5/622
f 603/2/631 606/16/632 605/8/633 602/3/634
f 399/19/635 398/9/636 396/8/637
f 396/8/637 397/16/638 399/20/639
f 212/11/364 213/12/81 211/13/80 210/14/640
f 192/13/641 194/12/347 196/17/348 195/18/642
f 521/7/643 520/15/644 524/1/645 523/4/646
f 48/4/92 50/5/91 47/6/89 46/7/86
f 714/1/647 717/2/648 716/3/649 713/4/650
f 92/8/160 94/9/159 91/10/153 89/3/147
f 793/2/651 796/16/652 795/8/653 792/3/654
f 364/11/589 365/12/591 363/13/613 362/14/655
f 78/13/656 80/12/137 82/17/138 81/18/657
f 402/11/276 406/15/250 407/7/249
f 402/11/276 407/7/249 403/12/277
f 407/7/249 405/17/551 403/12/277
f 407/7/249 408/6/658 405/17/551
f 787/7/659 786/15/660 790/1/661 789/4/662
f 67/4/24 69/5/111 66/6/102 65/7/21
f 412/3/559 411/5/663 409/4/252
f 581/1/664 584/2/665 583/3/666 580/4/667
f 396/8/637 398/9/636 395/10/630 393/3/621
f 412/3/559 414/10/576 411/5/663
f 945/2/221 948/16/668 947/8/669 944/3/222
f 418/19/670 417/9/575 415/8/574
f 415/8/574 416/16/671 418/20/672
f 573/11/673 574/12/516 572/13/515 571/14/674
f 724/13/675 726/12/676 728/17/677 727/18/678
f 421/11/679 425/15/680 426/7/681
f 421/11/679 426/7/681 422/12/682
f 426/7/681 424/17/683 422/12/682
f 426/7/681 427/6/684 424/17/683
f 768/7/685 767/15/686 771/1/534 770/4/537
f 846/4/687 848/5/688 845/6/689 844/7/690
f 431/3/608 430/5/691 428/4/692
f 106/1/693 109/2/694 108/3/182 105/4/184
f 529/8/695 531/9/696 528/10/697 526/3/698
f 431/3/608 433/10/699 430/5/691
f 90/2/299 93/16/161 92/8/160 89/3/147
f 437/19/700 436/9/701 434/8/607
f 434/8/607 435/16/606 437/20/702
f 554/11/703 555/12/704 553/13/705 552/14/706
f 249/13/707 251/12/708 253/17/709 252/18/710
f 443/2/711 440/16/712 441/8/713 444/3/329
f 449/7/378 450/15/377 446/1/714 447/4/331
f 441/8/713 439/9/715 442/10/620 444/3/329
f 441/8/713 440/16/712 438/20/716
f 863/7/717 862/15/718 866/1/719 865/4/720
f 751/4/721 753/5/722 750/6/723 749/7/724
f 449/7/378 448/6/725 451/17/726
f 125/1/727 128/2/728 127/3/217 124/4/219
f 1004/8/729 1006/9/730 1003/10/731 1001/3/506
f 449/7/378 451/17/726 453/12/507
f 584/2/665 587/16/732 586/8/733 583/3/666
f 447/4/331 445/5/330 448/6/725 449/7/378
f 454/11/376 453/12/507 455/13/734 456/14/735
f 421/11/679 422/12/682 420/13/736 419/14/737
f 325/13/738 327/12/554 329/17/555 328/18/739
f 459/11/740 463/15/741 464/7/742
f 459/11/740 464/7/742 460/12/165
f 464/7/742 462/17/166 460/12/165
f 464/7/743 465/6/744 462/17/745
f 293/7/500 292/15/499 296/1/373 295/4/375
f 409/4/252 411/5/663 408/6/658 407/7/249
f 469/3/746 468/5/747 466/4/748
f 486/1/322 489/2/561 488/3/408 485/4/323
f 643/8/749 645/9/750 642/10/751 640/3/752
f 469/3/753 471/10/754 468/5/755
f 1002/2/505 1005/16/756 1004/8/729 1001/3/506
f 475/19/757 474/9/758 472/8/333
f 472/8/333 473/16/332 475/20/759
f 933/13/760 935/12/761 937/17/762 936/18/763
f 478/11/764 482/15/321 483/7/320
f 478/11/764 483/7/320 479/12/765
f 483/7/320 481/17/766 479/12/765
f 483/7/320 484/6/767 481/17/766
f 958/7/768 957/15/769 961/1/770 960/4/771
f 542/4/291 544/5/772 541/6/773 540/7/288
f 488/3/408 487/5/774 485/4/323
f 391/1/399 394/2/775 393/3/621 390/4/400
f 339/8/231 341/9/564 338/10/560 336/3/232
f 488/3/408 490/10/407 487/5/774
f 109/2/694 112/16/198 111/8/197 108/3/182
f 494/19/776 493/9/406 491/8/405
f 491/8/405 492/16/562 494/20/777
f 1010/11/778 1011/12/281 1009/13/280 1008/14/779
f 629/13/339 631/12/338 633/17/780 632/18/781
f 497/11/584 501/15/782 502/7/783
f 497/11/584 502/7/783 498/12/585
f 502/7/783 500/17/784 498/12/585
f 502/7/783 503/6/785 500/17/784
f 597/7/786 596/15/787 600/1/788 599/4/789
f 998/4/438 1000/5/790 997/6/791 996/7/435
f 507/3/16 506/5/792 504/4/625
f 828/1/793 831/2/794 830/3/795 827/4/796
f 282/8/490 284/9/489 281/10/483 279/3/474
f 507/3/16 509/10/15 506/5/792
f 850/2/797 853/16/798 852/8/799 849/3/800
f 513/19/801 512/9/14 510/8/13
f 510/8/13 511/16/802 513/20/803
f 535/11/804 536/12/342 534/13/341 533/14/805
f 382/13/806 384/12/616 386/17/617 385/18/807
f 516/11/456 520/15/644 521/7/643
f 516/11/456 521/7/643 517/12/240
f 521/7/643 519/17/241 517/12/240
f 521/7/643 522/6/808 519/17/241
f 635/7/809 634/15/810 638/1/811 637/4/812
f 314/4/533 316/5/532 313/6/522 312/7/520
f 526/3/698 525/5/813 523/4/646
f 220/1/814 223/2/815 222/3/370 219/4/372
f 168/8/303 170/9/302 167/10/300 165/3/296
f 526/3/698 528/10/697 525/5/813
f 641/2/816 644/16/817 643/8/818 640/3/819
f 532/19/820 531/9/696 529/8/695
f 529/8/695 530/16/821 532/20/822
f 478/11/764 479/12/765 477/13/823 476/14/824
f 553/13/705 555/12/704 557/17/825 556/18/826
f 535/11/804 539/15/289 540/7/288
f 535/11/804 540/7/288 536/12/342
f 540/7/288 538/17/343 536/12/342
f 540/7/288 541/6/773 538/17/343
f 977/7/827 976/15/828 980/1/829 979/4/830
f 504/4/625 506/5/792 503/6/785 502/7/783
f 545/3/831 544/5/772 542/4/291
f 258/1/832 261/2/833 260/3/834 257/4/835
f 586/8/836 588/9/837 585/10/838 583/3/839
f 545/3/831 547/10/840 544/5/772
f 280/2/841 283/16/491 282/8/490 279/3/474
f 551/19/842 550/9/843 548/8/844
f 548/8/844 549/16/845 551/20/846
f 459/11/740 460/12/165 458/13/164 457/14/847
f 230/13/35 232/12/34 234/17/396 233/18/848
f 554/11/703 558/15/594 559/7/593
f 554/11/703 559/7/593 555/12/704
f 559/7/593 557/17/825 555/12/704
f 559/7/593 560/6/849 557/17/825
f 464/7/742 463/15/741 467/1/185 466/4/188
f 523/4/646 525/5/813 522/6/808 521/7/643
f 564/3/850 563/5/851 561/4/596
f 638/1/811 641/2/816 640/3/819 637/4/812
f 225/8/386 227/9/385 224/10/379 222/3/370
f 564/3/850 566/10/852 563/5/851
f 261/2/853 264/16/854 263/8/855 260/3/856
f 570/19/857 569/9/858 567/8/859
f 567/8/859 568/16/860 570/20/861
f 250/11/862 251/12/863 249/13/864 248/14/865
f 781/13/866 783/12/867 785/17/868 784/18/869
f 573/11/673 577/15/870 578/7/871
f 573/11/673 578/7/871 574/12/516
f 578/7/871 576/17/517 574/12/516
f 578/7/872 579/6/873 576/17/874
f 502/7/783 501/15/782 505/1/623 504/4/625
f 1017/4/875 1019/5/876 1016/6/877 1015/7/878
f 583/3/879 582/5/880 580/4/881
f 182/1/882 185/2/883 184/3/227 181/4/328
f 434/8/607 436/9/701 433/10/699 431/3/608
f 583/3/884 585/10/885 582/5/886
f 185/2/883 188/16/335 187/8/224 184/3/227
f 589/19/887 588/9/888 586/8/889
f 586/8/733 587/16/732 589/20/890
f 611/11/891 612/12/892 610/13/893 609/14/894
f 610/13/893 612/12/892 614/17/895 613/18/896
f 592/11/897 596/15/787 597/7/786
f 592/11/897 597/7/786 593/12/898
f 597/7/786 595/17/899 593/12/898
f 597/7/900 598/6/901 595/17/902
f 122/7/207 121/15/206 125/1/727 124/4/219
f 713/4/903 715/5/904 712/6/905 711/7/906
f 602/3/907 601/5/908 599/4/909
f 790/1/910 793/2/911 792/3/912 789/4/913
f 985/8/486 987/9/914 984/10/915 982/3/487
f 602/3/916 604/10/917 601/5/918
f 375/2/919 378/16/610 377/8/479 374/3/482
f 608/19/920 607/9/921 605/8/633
f 605/8/633 606/16/632 608/20/922
f 687/11/923 688/12/924 686/13/925 685/14/926
f 1028/13/927 1030/12/928 1032/17/929 1031/18/930
f 611/11/891 615/15/557 616/7/556
f 611/11/891 616/7/556 612/12/892
f 616/7/556 614/17/895 612/12/892
f 616/7/931 617/6/932 614/17/933
f 198/7/326 197/15/346 201/1/112 200/4/115
f 675/4/106 677/5/934 674/6/935 673/7/103
f 621/3/936 620/5/937 618/4/938
f 429/1/939 432/2/605 431/3/608 428/4/692
f 719/8/940 721/9/941 718/10/942 716/3/943
f 621/3/944 623/10/945 620/5/946
f 128/2/728 131/16/236 130/8/235 127/3/217
f 627/19/947 626/9/948 624/8/949
f 624/8/950 625/16/951 627/20/952
f 174/11/314 175/12/317 173/13/953 172/14/954
f 477/13/823 479/12/765 481/17/766 480/18/955
f 630/11/337 634/15/810 635/7/809
f 630/11/337 635/7/809 631/12/338
f 635/7/809 633/17/780 631/12/338
f 635/7/956 636/6/957 633/17/958
f 654/7/959 653/15/960 657/1/961 656/4/962
f 865/4/720 867/5/963 864/6/964 863/7/717
f 640/3/965 639/5/966 637/4/967
f 809/1/968 812/2/969 811/3/970 808/4/971
f 776/8/972 778/9/973 775/10/974 773/3/536
f 640/3/975 642/10/976 639/5/977
f 622/2/2 625/16/951 624/8/950 621/3/3
f 646/19/978 645/9/979 643/8/980
f 643/8/818 644/16/817 646/20/981
f 839/11/982 840/12/983 838/13/984 837/14/985
f 895/13/986 897/12/987 899/17/988 898/18/989
f 649/11/360 653/15/990 654/7/991
f 649/11/360 654/7/991 650/12/361
f 654/7/992 652/17/993 650/12/994
f 654/7/995 655/6/996 652/17/997
f 84/7/12 83/15/136 87/1/298 86/4/9
f 390/4/400 392/5/622 389/6/618 388/7/397
f 659/3/998 658/5/999 656/4/1000
f 1018/1/1001 1021/2/1002 1020/3/1003 1017/4/875
f 1023/8/1004 1025/9/1005 1022/10/1006 1020/3/1003
f 659/3/1007 661/10/1008 658/5/1009
f 527/2/1010 530/16/821 529/8/695 526/3/698
f 665/19/1011 664/9/1012 662/8/156
f 662/8/156 663/16/155 665/20/1013
f 820/11/1014 821/12/1015 819/13/1016 818/14/1017
f 762/13/419 764/12/418 766/17/1018 765/18/1019
f 668/11/1020 672/15/104 673/7/103
f 668/11/1020 673/7/103 669/12/1021
f 673/7/103 671/17/1022 669/12/1021
f 673/7/103 674/6/935 671/17/1022
f 426/7/681 425/15/680 429/1/939 428/4/692
f 181/4/328 183/5/327 180/6/319 179/7/316
f 678/3/478 677/5/934 675/4/106
f 1037/1/1023 1040/2/1024 1039/3/1025 1036/4/1026
f 738/8/1027 740/9/1028 737/10/1029 735/3/1030
f 678/3/478 680/10/540 677/5/934
f 684/19/1031 683/9/539 681/8/538
f 681/8/538 682/16/1032 684/20/1033
f 668/11/1020 669/12/1021 667/13/1034 666/14/1035
f 819/13/1016 821/12/1015 823/17/1036 822/18/1037
f 687/11/1038 691/15/1039 692/7/1040
f 687/11/923 692/7/1041 688/12/924
f 692/7/1042 690/17/1043 688/12/1044
f 692/7/1045 693/6/1046 690/17/1047
f 179/7/316 178/15/315 182/1/882 181/4/328
f 941/4/223 943/5/1048 940/6/1049 939/7/1050
f 697/3/1051 696/5/1052 694/4/1053
f 543/1/290 546/2/1054 545/3/831 542/4/291
f 567/8/859 569/9/858 566/10/852 564/3/850
f 697/3/1055 699/10/1056 696/5/1057
f 508/2/624 511/16/802 510/8/13 507/3/16
f 703/19/1058 702/9/1059 700/8/1060
f 700/8/1061 701/16/1062 703/20/1063
f 326/11/553 327/12/554 325/13/738 324/14/1064
f 420/13/736 422/12/682 424/17/683 423/18/1065
f 706/11/1066 710/15/1067 711/7/1068
f 706/11/1069 711/7/1070 707/12/1071
f 711/7/1072 709/17/1073 707/12/1074
f 711/7/1075 712/6/1076 709/17/1077
f 103/7/170 102/15/169 106/1/693 105/4/184
f 637/4/1078 639/5/1079 636/6/1080 635/7/1081
f 716/3/1082 715/5/1083 713/4/1084
f 600/1/788 603/2/631 602/3/634 599/4/789
f 716/3/1085 718/10/1086 715/5/1087
f 318/2/1088 321/16/545 320/8/544 317/3/531
f 722/19/1089 721/9/1090 719/8/1091
f 719/8/1092 720/16/1093 722/20/1094
f 60/11/101 61/12/30 59/13/29 58/14/1095
f 268/13/493 270/12/463 272/17/464 271/18/1096
f 725/11/1097 729/15/1098 730/7/1099
f 725/11/1100 730/7/1101 726/12/1102
f 730/7/1103 728/17/1104 726/12/1105
f 730/7/1106 731/6/1107 728/17/1108
f 1034/7/1109 1033/15/1110 1037/1/1023 1036/4/1026
f 124/4/219 126/5/218 123/6/208 122/7/207
f 735/3/1111 734/5/1112 732/4/1113
f 239/1/1114 242/2/380 241/3/383 238/4/64
f 149/8/273 151/9/272 148/10/266 146/3/257
f 735/3/1115 737/10/1116 734/5/1117
f 546/2/1054 549/16/845 548/8/844 545/3/831
f 741/19/1118 740/9/1119 738/8/1120
f 738/8/1121 739/16/1122 741/20/1123
f 915/11/1124 916/12/496 914/13/495 913/14/1125
f 876/13/1126 878/12/1127 880/17/1128 879/18/1129
f 744/11/1130 748/15/1131 749/7/1132
f 744/11/1133 749/7/1134 745/12/1135
f 749/7/1136 747/17/1137 745/12/1138
f 749/7/1139 750/6/1140 747/17/1141
f 312/7/520 311/15/519 315/1/1142 314/4/533
f 1036/4/1026 1038/5/1143 1035/6/1144 1034/7/1109
f 754/3/1145 753/5/1146 751/4/1147
f 733/1/1148 736/2/1149 735/3/1150 732/4/1151
f 548/8/844 550/9/843 547/10/840 545/3/831
f 754/3/152 756/10/151 753/5/1152
f 812/2/1153 815/16/1154 814/8/1155 811/3/1156
f 760/19/1157 759/9/150 757/8/149
f 757/8/149 758/16/1158 760/20/1159
f 383/11/615 384/12/616 382/13/806 381/14/1160
f 743/13/1161 745/12/1138 747/17/1137 746/18/1162
f 763/11/417 767/15/686 768/7/685
f 763/11/417 768/7/685 764/12/418
f 768/7/685 766/17/1018 764/12/418
f 768/7/685 769/6/1163 766/17/1018
f 806/7/1164 805/15/1165 809/1/1166 808/4/1167
f 827/4/1168 829/5/1169 826/6/1170 825/7/1171
f 773/3/536 772/5/1172 770/4/537
f 562/1/595 565/2/1173 564/3/850 561/4/596
f 1042/8/1174 1044/9/1175 1041/10/1176 1039/3/1025
f 773/3/536 775/10/974 772/5/1172
f 717/2/1177 720/16/1178 719/8/1179 716/3/1180
f 779/19/1181 778/9/973 776/8/972
f 776/8/972 777/16/1182 779/20/1183
f 79/11/135 80/12/137 78/13/656 77/14/1184
f 446/1/714 443/2/711 444/3/329 447/4/331
f 782/11/1185 786/15/660 787/7/659
f 782/11/1186 787/7/1187 783/12/1188
f 787/7/1189 785/17/1190 783/12/1191
f 787/7/1192 788/6/1193 785/17/1194
f 46/7/86 45/15/85 49/1/148 48/4/92
f 732/4/1195 734/5/1196 731/6/1197 730/7/1198
f 792/3/1199 791/5/1200 789/4/1201
f 277/1/1202 280/2/841 279/3/474 276/4/476
f 605/8/633 607/9/921 604/10/1203 602/3/634
f 792/3/1204 794/10/1205 791/5/1206
f 755/2/1207 758/16/1158 757/8/149 754/3/152
f 798/19/1208 797/9/1209 795/8/1210
f 795/8/1211 796/16/1212 798/20/1213
f 725/11/1214 726/12/1215 724/13/1216 723/14/1217
f 952/13/1218 954/12/1219 956/17/1220 955/18/1221
f 801/11/1222 805/15/1223 806/7/1224
f 801/11/1225 806/7/1226 802/12/1227
f 806/7/1228 804/17/1229 802/12/1230
f 806/7/1231 807/6/1232 804/17/1233
f 920/7/181 919/15/1234 923/1/1235 922/4/178
f 656/4/1236 658/5/1237 655/6/1238 654/7/1239
f 811/3/1240 810/5/1241 808/4/1242
f 662/8/156 664/9/1012 661/10/1243 659/3/157
f 811/3/1244 813/10/1245 810/5/1246
f 1021/2/1002 1024/16/1247 1023/8/1004 1020/3/1003
f 817/19/1248 816/9/1249 814/8/1250
f 814/8/1251 815/16/1252 817/20/1253
f 193/11/345 194/12/347 192/13/641 191/14/1254
f 705/13/1255 707/12/1256 709/17/1257 708/18/1258
f 820/11/1259 824/15/1260 825/7/1261
f 820/11/1262 825/7/1263 821/12/1015
f 825/7/1263 823/17/1036 821/12/1015
f 825/7/1264 826/6/1265 823/17/1266
f 939/7/1050 938/15/1267 942/1/220 941/4/223
f 960/4/771 962/5/1268 959/6/1269 958/7/768
f 830/3/795 829/5/1270 827/4/796
f 885/1/525 888/2/577 887/3/580 884/4/526
f 814/8/1271 816/9/1272 813/10/1273 811/3/1274
f 830/3/270 832/10/1275 829/5/1276
f 926/2/1277 929/16/1278 928/8/1279 925/3/1280
f 836/19/1281 835/9/1282 833/8/269
f 833/8/1283 834/16/1284 836/20/1285
f 877/11/1286 878/12/1127 876/13/1126 875/14/1287
f 648/13/1288 650/12/1289 652/17/1290 651/18/1291
f 839/11/1292 843/15/1293 844/7/1294
f 839/11/1295 844/7/1296 840/12/1297
f 844/7/1298 842/17/1299 840/12/1300
f 844/7/1301 845/6/1302 842/17/1303
f 578/7/871 577/15/870 581/1/664 580/4/667
f 485/4/323 487/5/774 484/6/767 483/7/320
f 849/3/1304 848/5/1305 846/4/1306
f 524/1/645 527/2/1010 526/3/698 523/4/646
f 890/8/579 892/9/1307 889/10/1308 887/3/580
f 849/3/1309 851/10/1310 848/5/1311
f 356/2/261 359/16/582 358/8/189 355/3/192
f 855/19/1312 854/9/1313 852/8/1314
f 852/8/1315 853/16/1316 855/20/1317
f 934/11/1318 935/12/761 933/13/760 932/14/1319
f 667/13/1034 669/12/1021 671/17/1022 670/18/1320
f 858/11/1321 862/15/718 863/7/717
f 858/11/1321 863/7/717 859/12/311
f 863/7/717 861/17/312 859/12/311
f 863/7/717 864/6/964 861/17/312
f 274/7/462 273/15/461 277/1/1202 276/4/476
f 770/4/537 772/5/1172 769/6/1163 768/7/685
f 868/3/604 867/5/963 865/4/720
f 315/1/1142 318/2/1088 317/3/531 314/4/533
f 700/8/1060 702/9/1059 699/10/1322 697/3/1323
f 868/3/604 870/10/603 867/5/963
f 679/2/477 682/16/1032 681/8/538 678/3/478
f 874/19/1324 873/9/602 871/8/601
f 871/8/601 872/16/1325 874/20/1326
f 155/11/284 156/12/285 154/13/393 153/14/1327
f 287/13/391 289/12/390 291/17/501 290/18/1328
f 877/11/1286 881/15/524 882/7/523
f 877/11/1286 882/7/523 878/12/1127
f 882/7/523 880/17/1128 878/12/1127
f 882/7/523 883/6/573 880/17/1128
f 844/7/1329 843/15/1330 847/1/1331 846/4/1332
f 276/4/476 278/5/475 275/6/465 274/7/462
f 887/3/580 886/5/572 884/4/526
f 866/1/719 869/2/1333 868/3/604 865/4/720
f 947/8/669 949/9/1334 946/10/1335 944/3/222
f 887/3/580 889/10/1308 886/5/572
f 413/2/558 416/16/671 415/8/574 412/3/559
f 893/19/1336 892/9/1307 890/8/579
f 890/8/579 891/16/578 893/20/1337
f 117/11/205 118/12/132 116/13/131 115/14/1338
f 496/13/586 498/12/585 500/17/784 499/18/1339
f 896/11/1340 900/15/571 901/7/216
f 896/11/1340 901/7/216 897/12/987
f 901/7/216 899/17/988 897/12/987
f 901/7/216 902/6/215 899/17/988
f 438/19/1341 439/9/715 441/8/713
f 694/4/1053 696/5/1052 693/6/1342 692/7/1343
f 906/3/413 905/5/214 903/4/213
f 923/1/1235 926/2/1277 925/3/1280 922/4/178
f 244/8/382 246/9/415 243/10/409 241/3/383
f 906/3/413 908/10/1344 905/5/214
f 565/2/1173 568/16/860 567/8/859 564/3/850
f 912/19/1345 911/9/1346 909/8/412
f 909/8/412 910/16/411 912/20/1347
f 592/11/897 593/12/898 591/13/1348 590/14/1349
f 838/13/1350 840/12/1351 842/17/1352 841/18/1353
f 915/11/1124 919/15/1234 920/7/181
f 915/11/1124 920/7/181 916/12/496
f 920/7/181 918/17/497 916/12/496
f 920/7/181 921/6/180 918/17/497
f 1015/7/878 1014/15/1354 1018/1/1001 1017/4/875
f 789/4/1355 791/5/1356 788/6/1357 787/7/1358
f 925/3/1280 924/5/179 922/4/178
f 961/1/770 964/2/1359 963/3/1360 960/4/771
f 966/8/1361 968/9/1362 965/10/1363 963/3/1360
f 925/3/1280 927/10/1364 924/5/179
f 774/2/535 777/16/1182 776/8/972 773/3/536
f 931/19/1365 930/9/1366 928/8/1279
f 928/8/1279 929/16/1278 931/20/1367
f 896/11/1340 897/12/987 895/13/986 894/14/1368
f 306/13/308 308/12/307 310/17/521 309/18/1369
f 934/11/1318 938/15/1267 939/7/1050
f 934/11/1318 939/7/1050 935/12/761
f 939/7/1050 937/17/762 935/12/761
f 939/7/1050 940/6/1049 937/17/762
f 692/7/1040 691/15/1039 695/1/597 694/4/600
f 979/4/830 981/5/1370 978/6/1371 977/7/827
f 944/3/222 943/5/1048 941/4/223
f 372/1/619 375/2/919 374/3/482 371/4/143
f 928/8/1279 930/9/1366 927/10/1364 925/3/1280
f 944/3/222 946/10/1335 943/5/1048
f 1040/2/1024 1043/16/1372 1042/8/1174 1039/3/1025
f 950/19/1373 949/9/1334 947/8/669
f 947/8/669 948/16/668 950/20/1374
f 455/13/734 453/12/507 451/17/726 452/18/1375
f 173/13/953 175/12/317 177/17/318 176/18/1376
f 953/11/1377 957/15/769 958/7/768
f 953/11/1377 958/7/768 954/12/1219
f 958/7/768 956/17/1220 954/12/1219
f 958/7/768 959/6/1269 956/17/1220
f 749/7/1378 748/15/1379 752/1/1380 751/4/1381
f 105/4/184 107/5/183 104/6/173 103/7/170
f 963/3/1360 962/5/1268 960/4/771
f 980/1/829 983/2/484 982/3/487 979/4/830
f 833/8/269 835/9/1282 832/10/1275 830/3/270
f 963/3/1360 965/10/1363 962/5/1268
f 394/2/775 397/16/638 396/8/637 393/3/621
f 969/19/1382 968/9/1362 966/8/1361
f 966/8/1361 967/16/1383 969/20/1384
f 953/11/1377 954/12/1219 952/13/1218 951/14/1385
f 990/13/513 992/12/512 994/17/1386 993/18/1387
f 972/11/95 976/15/828 977/7/827
f 972/11/95 977/7/827 973/12/96
f 977/7/827 975/17/458 973/12/96
f 977/7/827 978/6/1371 975/17/458
f 217/7/366 216/15/365 220/1/814 219/4/372
f 808/4/1388 810/5/1389 807/6/1390 806/7/1391
f 982/3/487 981/5/1370 979/4/830
f 68/1/23 71/2/25 70/3/28 67/4/24
f 909/8/412 911/9/1346 908/10/1344 906/3/413
f 982/3/487 984/10/915 981/5/1370
f 964/2/1359 967/16/1383 966/8/1361 963/3/1360
f 988/19/1392 987/9/914 985/8/486
f 985/8/486 986/16/485 988/20/1393
f 782/11/1394 783/12/1395 781/13/1396 780/14/1397
f 591/13/1348 593/12/898 595/17/899 594/18/1398
f 991/11/511 995/15/436 996/7/435
f 991/11/511 996/7/435 992/12/512
f 996/7/435 994/17/1386 992/12/512
f 996/7/435 997/6/791 994/17/1386
f 236/7/67 235/15/395 239/1/1114 238/4/64
f 561/4/596 563/5/851 560/6/849 559/7/593
f 1001/3/506 1000/5/790 998/4/438
f 657/1/961 660/2/154 659/3/157 656/4/962
f 111/8/197 113/9/196 110/10/193 108/3/182
f 1001/3/506 1003/10/731 1000/5/790
f 223/2/815 226/16/387 225/8/386 222/3/370
f 1007/19/1399 1006/9/730 1004/8/729
f 1004/8/729 1005/16/756 1007/20/1400
f 1029/11/1401 1030/12/928 1028/13/927 1027/14/1402
f 686/13/1403 688/12/1404 690/17/1405 689/18/1406
f 1010/11/778 1014/15/1354 1015/7/878
f 1010/11/778 1015/7/878 1011/12/281
f 1015/7/878 1013/17/282 1011/12/281
f 1015/7/878 1016/6/877 1013/17/282
f 350/7/256 349/15/569 353/1/260 352/4/253
f 428/4/692 430/5/691 427/6/684 426/7/681
f 1020/3/1003 1019/5/876 1017/4/875
f 144/1/503 147/2/1407 146/3/257 143/4/259
f 795/8/1408 797/9/1409 794/10/1410 792/3/1411
f 1020/3/1003 1022/10/1006 1019/5/876
f 147/2/1407 150/16/274 149/8/273 146/3/257
f 1026/19/1412 1025/9/1005 1023/8/1004
f 1023/8/1004 1024/16/1247 1026/20/1413
f 858/11/1321 859/12/311 857/13/310 856/14/1414
f 800/13/1415 802/12/1416 804/17/1417 803/18/1418
f 1029/11/1401 1033/15/1110 1034/7/1109
f 1029/11/1401 1034/7/1109 1030/12/928
f 1034/7/1109 1032/17/929 1030/12/928
f 1034/7/1109 1035/6/1144 1032/17/929
f 711/7/1419 710/15/1420 714/1/1421 713/4/1422
f 580/4/1423 582/5/1424 579/6/1425 578/7/1426
f 1039/3/1025 1038/5/1143 1036/4/1026
f 847/1/1427 850/2/1428 849/3/1429 846/4/1430
f 852/8/1431 854/9/1432 851/10/1433 849/3/1434
f 1039/3/1025 1041/10/1176 1038/5/1143
f 869/2/1333 872/16/1325 871/8/601 868/3/604
f 1045/19/1435 1044/9/1175 1042/8/1174
f 1042/8/1174 1043/16/1372 1045/20/1436
